<?xml version="1.0" encoding="utf-8"?>
<!-- Generator: $$$/GeneralStr/196=Adobe Illustrator 27.6.0, SVG Export Plug-In . SVG Version: 6.00 Build 0)  -->
<svg version="1.1" id="Ebene_1" xmlns="http://www.w3.org/2000/svg" xmlns:xlink="http://www.w3.org/1999/xlink" x="0px" y="0px"
	 viewBox="0 0 283.5 170.1" style="enable-background:new 0 0 283.5 170.1;" xml:space="preserve">
<style type="text/css">
	.st0{fill:#E30613;}
	.st1{fill:#020203;}
	.st2{fill:none;stroke:#020203;}
</style>
<g>
	<path class="st0" d="M58.4,43.5h17.7V25.8h17.7v17.7h17.7v17.7H93.8v17.7H76.1V61.2H58.4V43.5z"/>
	<g>
		<path d="M125.3,25.7h6.3c3.8,0,6.7,2.4,6.7,7.2c0,4.3-2.2,7.4-6.7,7.4h-6.3V25.7z M128.5,37.7h2.9c1.9,0,3.7-1.1,3.7-4.4
			c0-3-1-4.8-4.2-4.8h-2.3V37.7z"/>
		<path d="M142.4,35.8c0.1,1.8,1,2.7,2.6,2.7c1.2,0,2.1-0.7,2.3-1.4h2.6c-0.8,2.5-2.6,3.6-5,3.6c-3.3,0-5.4-2.3-5.4-5.6
			c0-3.2,2.2-5.6,5.4-5.6c3.6,0,5.4,3,5.2,6.3H142.4z M147.2,33.9c-0.3-1.5-0.9-2.3-2.3-2.3c-1.8,0-2.4,1.4-2.4,2.3H147.2z"/>
		<path d="M161.8,40.4H159v-1.5h-0.1c-0.7,1.2-2,1.8-3.2,1.8c-3.1,0-3.9-1.7-3.9-4.4v-6.5h2.9v6c0,1.7,0.5,2.6,1.9,2.6
			c1.6,0,2.3-0.9,2.3-3v-5.6h2.9V40.4z"/>
		<path d="M167.8,29.8h2.1v1.9h-2.1V37c0,1,0.2,1.2,1.2,1.2c0.3,0,0.6,0,0.9-0.1v2.3c-0.5,0.1-1.1,0.1-1.7,0.1
			c-1.8,0-3.3-0.4-3.3-2.5v-6.3h-1.8v-1.9h1.8v-3.2h2.9V29.8z"/>
		<path d="M173.8,36.9c0,1.3,1.1,1.8,2.2,1.8c0.8,0,1.9-0.3,1.9-1.4c0-0.9-1.2-1.2-3.3-1.6c-1.7-0.4-3.4-1-3.4-2.8
			c0-2.7,2.3-3.4,4.6-3.4c2.3,0,4.5,0.8,4.7,3.4h-2.8c-0.1-1.1-0.9-1.4-2-1.4c-0.7,0-1.6,0.1-1.6,1c0,1,1.6,1.2,3.3,1.6
			c1.7,0.4,3.4,1,3.4,3c0,2.8-2.4,3.7-4.8,3.7c-2.5,0-4.9-0.9-5-3.7H173.8z"/>
		<path d="M189.6,33.5c-0.2-1.2-0.9-1.8-2.2-1.8c-1.9,0-2.5,1.9-2.5,3.4c0,1.5,0.6,3.3,2.4,3.3c1.4,0,2.1-0.9,2.3-2.2h2.8
			c-0.4,2.8-2.3,4.4-5.1,4.4c-3.2,0-5.4-2.3-5.4-5.4c0-3.3,2-5.7,5.4-5.7c2.5,0,4.8,1.3,5,4H189.6z"/>
		<path d="M194.2,25.7h2.9v5.5h0.1c0.7-1.2,2-1.8,3.1-1.8c3.1,0,3.9,1.7,3.9,4.4v6.5h-2.9v-6c0-1.7-0.5-2.6-1.9-2.6
			c-1.6,0-2.3,0.9-2.3,3v5.6h-2.9V25.7z"/>
		<path d="M208.6,35.8c0.1,1.8,1,2.7,2.6,2.7c1.2,0,2.1-0.7,2.3-1.4h2.6c-0.8,2.5-2.6,3.6-5,3.6c-3.3,0-5.4-2.3-5.4-5.6
			c0-3.2,2.2-5.6,5.4-5.6c3.6,0,5.4,3,5.2,6.3H208.6z M213.4,33.9c-0.3-1.5-0.9-2.3-2.3-2.3c-1.8,0-2.4,1.4-2.4,2.3H213.4z"/>
		<path d="M220.3,36.9c0,1.3,1.1,1.8,2.2,1.8c0.8,0,1.9-0.3,1.9-1.4c0-0.9-1.2-1.2-3.3-1.6c-1.7-0.4-3.4-1-3.4-2.8
			c0-2.7,2.3-3.4,4.6-3.4c2.3,0,4.5,0.8,4.7,3.4h-2.8c-0.1-1.1-0.9-1.4-2-1.4c-0.7,0-1.6,0.1-1.6,1c0,1,1.6,1.2,3.3,1.6
			c1.7,0.4,3.4,1,3.4,3c0,2.8-2.4,3.7-4.8,3.7c-2.5,0-4.9-0.9-5-3.7H220.3z"/>
		<path d="M125.3,44.9h7.9c2.6,0,4.3,1.8,4.3,4c0,1.7-0.7,3-2.3,3.7v0c1.6,0.4,2,2,2.1,3.4c0.1,0.9,0,2.6,0.6,3.5h-3.2
			c-0.4-0.9-0.3-2.3-0.5-3.5c-0.2-1.5-0.8-2.2-2.4-2.2h-3.2v5.7h-3.2V44.9z M128.6,51.6h3.5c1.4,0,2.2-0.6,2.2-2.1
			c0-1.4-0.8-2-2.2-2h-3.5V51.6z"/>
		<path d="M144.7,48.7c3.3,0,5.5,2.2,5.5,5.6c0,3.4-2.2,5.6-5.5,5.6c-3.3,0-5.5-2.2-5.5-5.6C139.3,50.9,141.4,48.7,144.7,48.7z
			 M144.7,57.7c2,0,2.6-1.7,2.6-3.4c0-1.7-0.6-3.4-2.6-3.4c-2,0-2.6,1.7-2.6,3.4C142.2,56,142.8,57.7,144.7,57.7z"/>
		<path d="M155.8,49h2.1v2h-2.1v5.3c0,1,0.2,1.2,1.2,1.2c0.3,0,0.6,0,0.9-0.1v2.3c-0.5,0.1-1.1,0.1-1.7,0.1c-1.8,0-3.3-0.4-3.3-2.5
			v-6.3h-1.8v-2h1.8v-3.2h2.9V49z"/>
		<path d="M161.8,55c0.1,1.8,1,2.7,2.6,2.7c1.2,0,2.1-0.7,2.3-1.4h2.6c-0.8,2.5-2.6,3.6-5,3.6c-3.3,0-5.4-2.3-5.4-5.6
			c0-3.2,2.2-5.6,5.4-5.6c3.6,0,5.4,3,5.2,6.3H161.8z M166.5,53.1c-0.3-1.5-0.9-2.3-2.3-2.3c-1.8,0-2.4,1.4-2.4,2.3H166.5z"/>
		<path d="M173.4,56.1c0,1.3,1.1,1.8,2.2,1.8c0.8,0,1.9-0.3,1.9-1.4c0-0.9-1.2-1.2-3.3-1.6c-1.7-0.4-3.4-1-3.4-2.8
			c0-2.7,2.3-3.4,4.6-3.4c2.3,0,4.5,0.8,4.7,3.4h-2.8c-0.1-1.1-0.9-1.4-2-1.4c-0.7,0-1.6,0.1-1.6,1c0,1,1.6,1.2,3.3,1.6
			c1.7,0.4,3.4,1,3.4,3c0,2.8-2.4,3.7-4.8,3.7c-2.5,0-4.9-0.9-5-3.7H173.4z"/>
		<path d="M125.3,64.1h3.2v6.1l5.7-6.1h4l-5.7,5.8l6.3,8.9h-4l-4.4-6.6l-1.8,1.9v4.7h-3.2V64.1z"/>
		<path d="M139.8,68.2h2.8v2h0c0.5-1.3,2-2.3,3.4-2.3c0.2,0,0.5,0,0.6,0.1v2.7c-0.3-0.1-0.7-0.1-1-0.1c-2.1,0-2.9,1.5-2.9,3.4v4.8
			h-2.9V68.2z"/>
		<path d="M149.8,74.2c0.1,1.8,1,2.7,2.6,2.7c1.2,0,2.1-0.7,2.3-1.4h2.6c-0.8,2.5-2.6,3.6-5,3.6c-3.3,0-5.4-2.3-5.4-5.6
			c0-3.2,2.2-5.6,5.4-5.6c3.6,0,5.4,3,5.2,6.3H149.8z M154.6,72.4c-0.3-1.5-0.9-2.3-2.3-2.3c-1.8,0-2.4,1.4-2.4,2.3H154.6z"/>
		<path d="M169,78.8h-2.8v-1.5h-0.1c-0.7,1.2-2,1.8-3.2,1.8c-3.1,0-3.9-1.7-3.9-4.4v-6.5h2.9v6c0,1.7,0.5,2.6,1.9,2.6
			c1.6,0,2.3-0.9,2.3-3v-5.6h2.9V78.8z"/>
		<path d="M170.6,76.6l5.5-6.2H171v-2.2h9v2.2l-5.5,6.2h5.9v2.2h-9.8V76.6z"/>
	</g>
</g>
<g>
	<path class="st1" d="M64.7,109.4c2,0,3.6,0.5,4.6,1.5s1.6,2.6,1.6,4.7c0,1.1-0.1,2.1-0.4,2.9c-0.2,0.8-0.6,1.6-1.1,2.1
		c-0.5,0.6-1.2,1-2,1.3c-0.8,0.3-1.7,0.5-2.8,0.5h-4.5v-13H64.7z M64.8,121c0.2,0,0.4,0,0.7,0c0.3,0,0.6-0.1,0.9-0.2
		c0.3-0.1,0.7-0.3,1-0.5s0.6-0.5,0.9-0.9s0.5-0.8,0.6-1.4c0.2-0.6,0.2-1.3,0.2-2.1c0-0.8-0.1-1.5-0.2-2.1c-0.2-0.6-0.4-1.1-0.7-1.6
		s-0.8-0.8-1.3-1s-1.2-0.3-2-0.3H62V121H64.8z"/>
	<path class="st1" d="M79.2,109.4c1.2,0,2.2,0.3,2.9,0.9c0.7,0.6,1.1,1.4,1.1,2.5c0,0.8-0.2,1.5-0.5,2.1c-0.4,0.6-0.9,1-1.7,1.2v0
		c0.4,0.1,0.7,0.2,0.9,0.4c0.2,0.2,0.4,0.4,0.6,0.6c0.1,0.2,0.2,0.5,0.3,0.8c0.1,0.3,0.1,0.6,0.2,0.9c0,0.3,0,0.6,0.1,1
		c0,0.3,0,0.6,0.1,1c0,0.3,0.1,0.6,0.2,0.9c0.1,0.3,0.2,0.5,0.4,0.8h-1.9c-0.1-0.1-0.2-0.3-0.2-0.5c0-0.2-0.1-0.5-0.1-0.8
		s0-0.6,0-0.9c0-0.3,0-0.6-0.1-1c0-0.3-0.1-0.6-0.2-0.9c-0.1-0.3-0.2-0.5-0.3-0.7c-0.2-0.2-0.4-0.4-0.6-0.5c-0.3-0.1-0.6-0.2-1-0.2
		h-4.2v5.6h-1.7v-13H79.2z M79.6,115.3c0.4-0.1,0.7-0.2,1-0.4c0.3-0.2,0.5-0.4,0.7-0.7s0.2-0.7,0.2-1.2c0-0.7-0.2-1.2-0.5-1.6
		c-0.4-0.4-1-0.6-1.8-0.6h-4.3v4.5h3.6C78.8,115.4,79.2,115.4,79.6,115.3z"/>
	<path class="st1" d="M87.3,109.4v6.5l6.6-6.5h2.2l-5.5,5.3l5.7,7.8h-2.2l-4.7-6.6l-2.2,2v4.6h-1.7v-13H87.3z"/>
	<path class="st1" d="M102.5,116.7v1.5h-5.3v-1.5H102.5z"/>
	<path class="st1" d="M106.6,109.4V121h6.9v1.5h-8.6v-13H106.6z"/>
	<path class="st1" d="M123.2,122.4c-0.3,0.2-0.6,0.2-1.1,0.2c-0.4,0-0.7-0.1-1-0.3c-0.2-0.2-0.4-0.6-0.4-1.1
		c-0.4,0.5-0.9,0.9-1.5,1.1c-0.6,0.2-1.2,0.3-1.8,0.3c-0.4,0-0.8,0-1.2-0.1s-0.7-0.2-1-0.5c-0.3-0.2-0.5-0.5-0.7-0.8
		c-0.2-0.3-0.2-0.7-0.2-1.2c0-0.5,0.1-1,0.3-1.3c0.2-0.3,0.4-0.6,0.7-0.8c0.3-0.2,0.6-0.4,1-0.5c0.4-0.1,0.8-0.2,1.2-0.3
		c0.4-0.1,0.8-0.1,1.2-0.2c0.4,0,0.7-0.1,1-0.2c0.3-0.1,0.5-0.2,0.7-0.3c0.2-0.2,0.3-0.4,0.3-0.7c0-0.3-0.1-0.6-0.2-0.8
		c-0.1-0.2-0.3-0.4-0.5-0.5c-0.2-0.1-0.4-0.2-0.7-0.2c-0.2,0-0.5-0.1-0.7-0.1c-0.7,0-1.2,0.1-1.6,0.4c-0.4,0.2-0.7,0.7-0.7,1.4h-1.6
		c0-0.6,0.1-1.1,0.4-1.5s0.5-0.7,0.9-1c0.4-0.2,0.8-0.4,1.3-0.5c0.5-0.1,1-0.2,1.5-0.2c0.4,0,0.8,0,1.3,0.1c0.4,0.1,0.8,0.2,1.1,0.4
		s0.6,0.5,0.8,0.8c0.2,0.3,0.3,0.8,0.3,1.3v4.8c0,0.4,0,0.6,0.1,0.8c0,0.2,0.2,0.3,0.4,0.3c0.1,0,0.3,0,0.5-0.1L123.2,122.4
		L123.2,122.4z M120.6,117.6c-0.2,0.1-0.4,0.3-0.8,0.3c-0.3,0.1-0.6,0.1-1,0.2c-0.3,0-0.7,0.1-1.1,0.1c-0.4,0.1-0.7,0.1-0.9,0.3
		c-0.3,0.1-0.5,0.3-0.7,0.5c-0.2,0.2-0.3,0.5-0.3,0.9c0,0.3,0.1,0.5,0.2,0.6c0.1,0.2,0.2,0.3,0.4,0.4c0.2,0.1,0.4,0.2,0.6,0.2
		c0.2,0,0.4,0.1,0.7,0.1c0.5,0,0.9-0.1,1.3-0.2c0.4-0.1,0.7-0.3,0.9-0.5c0.2-0.2,0.4-0.4,0.5-0.7c0.1-0.2,0.2-0.5,0.2-0.7
		L120.6,117.6L120.6,117.6z"/>
	<path class="st1" d="M126.1,113v1.5h0c0.6-1.1,1.7-1.7,3.1-1.7c0.6,0,1.1,0.1,1.6,0.3s0.7,0.4,1,0.7c0.3,0.3,0.4,0.7,0.5,1.1
		c0.1,0.4,0.2,0.9,0.2,1.4v6.2h-1.6v-6.4c0-0.6-0.2-1.1-0.5-1.4c-0.3-0.3-0.8-0.5-1.4-0.5c-0.5,0-0.9,0.1-1.2,0.2
		c-0.3,0.1-0.6,0.4-0.9,0.6c-0.2,0.3-0.4,0.6-0.5,0.9c-0.1,0.4-0.2,0.7-0.2,1.2v5.3h-1.6V113H126.1z"/>
	<path class="st1" d="M141.6,122.5v-1.3h0c-0.3,0.5-0.7,0.9-1.2,1.1c-0.5,0.2-1.2,0.3-1.8,0.3c-0.7,0-1.4-0.1-1.9-0.4
		c-0.5-0.3-1-0.6-1.4-1.1c-0.4-0.4-0.6-1-0.8-1.6c-0.2-0.6-0.3-1.2-0.3-1.9c0-0.7,0.1-1.3,0.3-1.9s0.4-1.1,0.8-1.6
		c0.4-0.4,0.8-0.8,1.4-1.1c0.5-0.3,1.2-0.4,1.9-0.4c0.2,0,0.5,0,0.8,0.1s0.6,0.1,0.8,0.2c0.3,0.1,0.5,0.3,0.8,0.5
		c0.2,0.2,0.5,0.4,0.6,0.7h0v-4.9h1.6v13L141.6,122.5z M136.1,119.1c0.1,0.4,0.3,0.8,0.5,1.1c0.2,0.3,0.5,0.6,0.9,0.8
		c0.4,0.2,0.8,0.3,1.3,0.3c0.5,0,1-0.1,1.3-0.3s0.7-0.5,0.9-0.8c0.2-0.3,0.4-0.7,0.5-1.1s0.2-0.9,0.2-1.3c0-0.5-0.1-0.9-0.2-1.3
		c-0.1-0.4-0.3-0.8-0.5-1.1c-0.2-0.3-0.5-0.6-0.9-0.8s-0.8-0.3-1.4-0.3c-0.5,0-1,0.1-1.3,0.3c-0.4,0.2-0.7,0.5-0.9,0.8
		c-0.2,0.3-0.4,0.7-0.5,1.2c-0.1,0.4-0.1,0.9-0.1,1.4C135.9,118.3,135.9,118.7,136.1,119.1z"/>
	<path class="st1" d="M152.3,121.9c-0.7,0.5-1.6,0.8-2.7,0.8c-0.8,0-1.4-0.1-2-0.4c-0.6-0.2-1-0.6-1.4-1c-0.4-0.4-0.7-1-0.8-1.6
		c-0.2-0.6-0.3-1.3-0.3-2c0-0.7,0.1-1.4,0.3-2c0.2-0.6,0.5-1.1,0.9-1.6c0.4-0.4,0.9-0.8,1.4-1c0.5-0.2,1.1-0.4,1.8-0.4
		c0.8,0,1.5,0.2,2.1,0.5c0.6,0.3,1,0.8,1.3,1.3c0.3,0.5,0.6,1.1,0.7,1.8s0.2,1.2,0.2,1.8h-7.1c0,0.4,0,0.8,0.1,1.2s0.3,0.7,0.5,1
		s0.6,0.5,0.9,0.7c0.4,0.2,0.8,0.3,1.3,0.3c0.7,0,1.2-0.2,1.6-0.5c0.4-0.3,0.7-0.8,0.8-1.4h1.5C153.4,120.5,153,121.3,152.3,121.9z
		 M151.9,115.8c-0.1-0.3-0.3-0.6-0.6-0.8s-0.5-0.4-0.8-0.6c-0.3-0.1-0.7-0.2-1.1-0.2c-0.4,0-0.8,0.1-1.1,0.2
		c-0.3,0.1-0.6,0.3-0.8,0.6c-0.2,0.2-0.4,0.5-0.5,0.8c-0.1,0.3-0.2,0.7-0.2,1h5.4C152.1,116.5,152,116.1,151.9,115.8z"/>
	<path class="st1" d="M156.6,120.4c0.1,0.2,0.3,0.4,0.6,0.6c0.2,0.1,0.5,0.2,0.8,0.3c0.3,0.1,0.6,0.1,0.9,0.1c0.2,0,0.5,0,0.8-0.1
		c0.3,0,0.5-0.1,0.7-0.2c0.2-0.1,0.4-0.2,0.6-0.4c0.1-0.2,0.2-0.4,0.2-0.7c0-0.4-0.2-0.7-0.5-0.9c-0.3-0.2-0.7-0.4-1.1-0.5
		c-0.5-0.1-0.9-0.2-1.5-0.3c-0.5-0.1-1-0.2-1.5-0.4c-0.5-0.2-0.8-0.5-1.1-0.8c-0.3-0.3-0.5-0.8-0.5-1.4c0-0.5,0.1-0.9,0.3-1.2
		c0.2-0.3,0.5-0.6,0.8-0.8c0.3-0.2,0.7-0.4,1.1-0.5c0.4-0.1,0.8-0.2,1.3-0.2c0.5,0,1,0,1.5,0.1s0.8,0.2,1.2,0.5
		c0.3,0.2,0.6,0.5,0.8,0.9c0.2,0.4,0.3,0.9,0.4,1.4h-1.6c0-0.3-0.1-0.6-0.2-0.8c-0.1-0.2-0.3-0.4-0.5-0.5c-0.2-0.1-0.4-0.2-0.7-0.3
		c-0.2-0.1-0.5-0.1-0.8-0.1c-0.2,0-0.5,0-0.7,0.1c-0.2,0-0.5,0.1-0.6,0.2s-0.4,0.2-0.5,0.4c-0.1,0.2-0.2,0.3-0.2,0.6
		c0,0.3,0.1,0.5,0.3,0.7c0.2,0.2,0.4,0.3,0.7,0.4c0.3,0.1,0.6,0.2,1,0.3c0.4,0.1,0.7,0.2,1.1,0.2c0.4,0.1,0.8,0.2,1.1,0.3
		c0.4,0.1,0.7,0.3,1,0.5c0.3,0.2,0.5,0.5,0.7,0.8c0.2,0.3,0.3,0.7,0.3,1.1c0,0.6-0.1,1.1-0.4,1.4s-0.5,0.7-0.9,0.9
		c-0.4,0.2-0.8,0.4-1.3,0.5c-0.5,0.1-1,0.1-1.4,0.1c-0.5,0-1-0.1-1.5-0.2c-0.5-0.1-0.9-0.3-1.3-0.5c-0.4-0.2-0.7-0.6-0.9-1
		c-0.2-0.4-0.3-0.9-0.4-1.5h1.6C156.4,119.8,156.4,120.1,156.6,120.4z"/>
	<path class="st1" d="M167.1,122.5l-3.5-9.4h1.7l2.6,7.9h0l2.6-7.9h1.6l-3.5,9.4H167.1z"/>
	<path class="st1" d="M180.3,121.9c-0.7,0.5-1.6,0.8-2.7,0.8c-0.8,0-1.4-0.1-2-0.4c-0.6-0.2-1-0.6-1.4-1c-0.4-0.4-0.7-1-0.8-1.6
		c-0.2-0.6-0.3-1.3-0.3-2c0-0.7,0.1-1.4,0.3-2c0.2-0.6,0.5-1.1,0.9-1.6c0.4-0.4,0.9-0.8,1.4-1c0.5-0.2,1.1-0.4,1.8-0.4
		c0.8,0,1.5,0.2,2.1,0.5c0.6,0.3,1,0.8,1.3,1.3c0.3,0.5,0.6,1.1,0.7,1.8s0.2,1.2,0.2,1.8h-7.1c0,0.4,0,0.8,0.1,1.2s0.3,0.7,0.5,1
		s0.6,0.5,0.9,0.7c0.4,0.2,0.8,0.3,1.3,0.3c0.7,0,1.2-0.2,1.6-0.5c0.4-0.3,0.7-0.8,0.8-1.4h1.5C181.5,120.5,181.1,121.3,180.3,121.9
		z M180,115.8c-0.1-0.3-0.3-0.6-0.6-0.8s-0.5-0.4-0.8-0.6c-0.3-0.1-0.7-0.2-1.1-0.2c-0.4,0-0.8,0.1-1.1,0.2
		c-0.3,0.1-0.6,0.3-0.8,0.6c-0.2,0.2-0.4,0.5-0.5,0.8c-0.1,0.3-0.2,0.7-0.2,1h5.4C180.2,116.5,180.1,116.1,180,115.8z"/>
	<path class="st1" d="M184.9,113v2h0c0.4-0.8,0.8-1.3,1.4-1.7c0.5-0.4,1.2-0.5,2.1-0.5v1.6c-0.6,0-1.2,0.1-1.6,0.3
		c-0.4,0.2-0.8,0.4-1.1,0.7c-0.3,0.3-0.5,0.7-0.6,1.2s-0.2,1-0.2,1.6v4.2h-1.6V113H184.9z"/>
	<path class="st1" d="M191.2,109.4v4.9h0c0.3-0.5,0.7-0.9,1.2-1.1c0.5-0.2,1.2-0.4,1.8-0.4c0.7,0,1.4,0.1,1.9,0.4
		c0.5,0.3,1,0.6,1.4,1.1s0.6,1,0.8,1.6c0.2,0.6,0.3,1.2,0.3,1.9s-0.1,1.3-0.3,1.9c-0.2,0.6-0.4,1.1-0.8,1.6
		c-0.4,0.4-0.8,0.8-1.4,1.1s-1.2,0.4-1.9,0.4c-0.2,0-0.5,0-0.8-0.1s-0.6-0.1-0.8-0.2c-0.3-0.1-0.5-0.3-0.8-0.4s-0.5-0.4-0.6-0.7h0
		v1.3h-1.6v-13H191.2z M196.7,116.4c-0.1-0.4-0.3-0.8-0.5-1.1c-0.2-0.3-0.5-0.6-0.9-0.8c-0.4-0.2-0.8-0.3-1.3-0.3
		c-0.5,0-1,0.1-1.3,0.3c-0.4,0.2-0.7,0.5-0.9,0.8c-0.2,0.3-0.4,0.7-0.5,1.1c-0.1,0.4-0.2,0.9-0.2,1.3c0,0.5,0.1,0.9,0.2,1.3
		c0.1,0.4,0.3,0.8,0.5,1.1c0.2,0.3,0.5,0.6,0.9,0.8c0.4,0.2,0.8,0.3,1.4,0.3s1-0.1,1.3-0.3c0.4-0.2,0.6-0.5,0.9-0.8
		c0.2-0.3,0.4-0.7,0.5-1.2c0.1-0.4,0.1-0.9,0.1-1.4C196.9,117.2,196.9,116.8,196.7,116.4z"/>
	<path class="st1" d="M208.8,122.4c-0.3,0.2-0.6,0.2-1.1,0.2c-0.4,0-0.7-0.1-1-0.3c-0.2-0.2-0.4-0.6-0.4-1.1
		c-0.4,0.5-0.9,0.9-1.5,1.1c-0.6,0.2-1.2,0.3-1.8,0.3c-0.4,0-0.8,0-1.2-0.1c-0.4-0.1-0.7-0.2-1-0.5c-0.3-0.2-0.5-0.5-0.7-0.8
		c-0.2-0.3-0.2-0.7-0.2-1.2c0-0.5,0.1-1,0.3-1.3c0.2-0.3,0.4-0.6,0.7-0.8c0.3-0.2,0.6-0.4,1-0.5c0.4-0.1,0.8-0.2,1.2-0.3
		c0.4-0.1,0.8-0.1,1.2-0.2c0.4,0,0.7-0.1,1-0.2c0.3-0.1,0.5-0.2,0.7-0.3s0.3-0.4,0.3-0.7c0-0.3-0.1-0.6-0.2-0.8
		c-0.1-0.2-0.3-0.4-0.5-0.5c-0.2-0.1-0.4-0.2-0.7-0.2c-0.2,0-0.5-0.1-0.7-0.1c-0.7,0-1.2,0.1-1.6,0.4c-0.4,0.2-0.7,0.7-0.7,1.4h-1.6
		c0-0.6,0.1-1.1,0.4-1.5c0.2-0.4,0.5-0.7,0.9-1c0.4-0.2,0.8-0.4,1.3-0.5c0.5-0.1,1-0.2,1.5-0.2c0.4,0,0.8,0,1.3,0.1s0.8,0.2,1.1,0.4
		c0.3,0.2,0.6,0.5,0.8,0.8c0.2,0.3,0.3,0.8,0.3,1.3v4.8c0,0.4,0,0.6,0.1,0.8c0,0.2,0.2,0.3,0.4,0.3c0.1,0,0.3,0,0.5-0.1L208.8,122.4
		L208.8,122.4z M206.2,117.6c-0.2,0.1-0.4,0.3-0.8,0.3c-0.3,0.1-0.6,0.1-1,0.2c-0.3,0-0.7,0.1-1.1,0.1c-0.4,0.1-0.7,0.1-0.9,0.3
		c-0.3,0.1-0.5,0.3-0.7,0.5c-0.2,0.2-0.3,0.5-0.3,0.9c0,0.3,0.1,0.5,0.2,0.6c0.1,0.2,0.2,0.3,0.4,0.4c0.2,0.1,0.4,0.2,0.6,0.2
		c0.2,0,0.4,0.1,0.7,0.1c0.5,0,0.9-0.1,1.3-0.2c0.4-0.1,0.7-0.3,0.9-0.5c0.2-0.2,0.4-0.4,0.5-0.7c0.1-0.3,0.2-0.5,0.2-0.7
		L206.2,117.6L206.2,117.6z"/>
	<path class="st1" d="M211.7,113v1.5h0c0.6-1.1,1.7-1.7,3.1-1.7c0.6,0,1.1,0.1,1.6,0.3c0.4,0.2,0.7,0.4,1,0.7
		c0.3,0.3,0.4,0.7,0.5,1.1c0.1,0.4,0.2,0.9,0.2,1.4v6.2h-1.6v-6.4c0-0.6-0.2-1.1-0.5-1.4c-0.3-0.3-0.8-0.5-1.4-0.5
		c-0.5,0-0.9,0.1-1.2,0.2c-0.3,0.1-0.6,0.4-0.9,0.6c-0.2,0.3-0.4,0.6-0.5,0.9c-0.1,0.4-0.2,0.7-0.2,1.2v5.3h-1.6V113H211.7z"/>
	<path class="st1" d="M227.2,122.5v-1.3h0c-0.3,0.5-0.7,0.9-1.2,1.1c-0.5,0.2-1.2,0.3-1.8,0.3c-0.7,0-1.4-0.1-1.9-0.4
		s-1-0.6-1.4-1.1c-0.4-0.4-0.6-1-0.8-1.6c-0.2-0.6-0.3-1.2-0.3-1.9c0-0.7,0.1-1.3,0.3-1.9s0.4-1.1,0.8-1.6c0.4-0.4,0.8-0.8,1.4-1.1
		c0.5-0.3,1.2-0.4,1.9-0.4c0.2,0,0.5,0,0.8,0.1s0.6,0.1,0.8,0.2c0.3,0.1,0.5,0.3,0.8,0.5c0.2,0.2,0.5,0.4,0.6,0.7h0v-4.9h1.6v13
		L227.2,122.5z M221.7,119.1c0.1,0.4,0.3,0.8,0.5,1.1c0.2,0.3,0.5,0.6,0.9,0.8c0.4,0.2,0.8,0.3,1.3,0.3c0.5,0,1-0.1,1.3-0.3
		s0.7-0.5,0.9-0.8c0.2-0.3,0.4-0.7,0.5-1.1s0.2-0.9,0.2-1.3c0-0.5-0.1-0.9-0.2-1.3c-0.1-0.4-0.3-0.8-0.5-1.1
		c-0.2-0.3-0.5-0.6-0.9-0.8s-0.8-0.3-1.4-0.3c-0.5,0-1,0.1-1.3,0.3c-0.4,0.2-0.7,0.5-0.9,0.8c-0.2,0.3-0.4,0.7-0.5,1.2
		c-0.1,0.4-0.1,0.9-0.1,1.4C221.5,118.3,221.5,118.7,221.7,119.1z"/>
	<path class="st1" d="M66.4,131.3c1.2,0,2.2,0.3,2.9,0.9s1.1,1.4,1.1,2.5c0,0.8-0.2,1.5-0.5,2.1c-0.4,0.6-0.9,1-1.7,1.2v0
		c0.4,0.1,0.7,0.2,0.9,0.4c0.2,0.2,0.4,0.4,0.6,0.6c0.1,0.2,0.2,0.5,0.3,0.8c0.1,0.3,0.1,0.6,0.2,0.9c0,0.3,0,0.6,0.1,1
		c0,0.3,0,0.6,0.1,1c0,0.3,0.1,0.6,0.2,0.9c0.1,0.3,0.2,0.5,0.4,0.8h-1.9c-0.1-0.1-0.2-0.3-0.2-0.5c0-0.2-0.1-0.5-0.1-0.8
		c0-0.3,0-0.6,0-0.9c0-0.3,0-0.6-0.1-1c0-0.3-0.1-0.6-0.2-0.9c-0.1-0.3-0.2-0.5-0.3-0.7c-0.2-0.2-0.4-0.4-0.6-0.5
		c-0.3-0.1-0.6-0.2-1-0.2H62v5.6h-1.7v-13H66.4z M66.7,137.3c0.4-0.1,0.7-0.2,1-0.4c0.3-0.2,0.5-0.4,0.7-0.7
		c0.2-0.3,0.2-0.7,0.2-1.2c0-0.7-0.2-1.2-0.5-1.6c-0.4-0.4-1-0.6-1.8-0.6H62v4.5h3.6C66,137.3,66.4,137.3,66.7,137.3z"/>
	<path class="st1" d="M74,131.3v5h0c0.1-0.3,0.3-0.5,0.5-0.7s0.5-0.4,0.7-0.5c0.3-0.1,0.6-0.2,0.9-0.3c0.3-0.1,0.6-0.1,0.9-0.1
		c0.6,0,1.1,0.1,1.6,0.3s0.7,0.4,1,0.7c0.3,0.3,0.4,0.7,0.5,1.1s0.2,0.9,0.2,1.4v6.2h-1.6V138c0-0.6-0.2-1.1-0.5-1.4
		c-0.3-0.3-0.8-0.5-1.4-0.5c-0.5,0-0.9,0.1-1.2,0.2s-0.6,0.4-0.9,0.6c-0.2,0.3-0.4,0.6-0.5,0.9S74,138.6,74,139v5.3h-1.6v-13H74z"/>
	<path class="st1" d="M89.3,143.8c-0.7,0.5-1.6,0.8-2.7,0.8c-0.8,0-1.4-0.1-2-0.4c-0.6-0.2-1-0.6-1.4-1c-0.4-0.4-0.7-1-0.8-1.6
		c-0.2-0.6-0.3-1.3-0.3-2c0-0.7,0.1-1.4,0.3-2c0.2-0.6,0.5-1.1,0.9-1.6c0.4-0.4,0.9-0.8,1.4-1s1.1-0.4,1.8-0.4
		c0.8,0,1.5,0.2,2.1,0.5c0.6,0.3,1,0.8,1.3,1.3c0.3,0.5,0.6,1.1,0.7,1.8c0.1,0.6,0.2,1.2,0.2,1.8h-7.1c0,0.4,0,0.8,0.1,1.2
		c0.1,0.4,0.3,0.7,0.5,1c0.2,0.3,0.6,0.5,0.9,0.7c0.4,0.2,0.8,0.3,1.3,0.3c0.7,0,1.2-0.2,1.6-0.5c0.4-0.3,0.7-0.8,0.8-1.4h1.5
		C90.5,142.4,90,143.2,89.3,143.8z M88.9,137.7c-0.1-0.3-0.3-0.6-0.6-0.8c-0.2-0.2-0.5-0.4-0.8-0.6s-0.7-0.2-1.1-0.2
		c-0.4,0-0.8,0.1-1.1,0.2s-0.6,0.3-0.8,0.6s-0.4,0.5-0.5,0.8c-0.1,0.3-0.2,0.7-0.2,1h5.4C89.2,138.4,89.1,138,88.9,137.7z"/>
	<path class="st1" d="M92.5,133.2v-1.9h1.6v1.9H92.5z M94.1,134.9v9.4h-1.6v-9.4H94.1z"/>
	<path class="st1" d="M98,134.9v1.5h0c0.6-1.1,1.7-1.7,3.1-1.7c0.6,0,1.1,0.1,1.6,0.3c0.4,0.2,0.7,0.4,1,0.7
		c0.3,0.3,0.4,0.7,0.5,1.1c0.1,0.4,0.2,0.9,0.2,1.4v6.2h-1.6V138c0-0.6-0.2-1.1-0.5-1.4c-0.3-0.3-0.8-0.5-1.4-0.5
		c-0.5,0-0.9,0.1-1.2,0.2c-0.3,0.1-0.6,0.4-0.9,0.6c-0.2,0.3-0.4,0.6-0.5,0.9c-0.1,0.4-0.2,0.7-0.2,1.2v5.3h-1.6v-9.4H98z"/>
	<path class="st1" d="M108.3,131.3v13h-1.6v-13H108.3z"/>
	<path class="st1" d="M119.1,144.3c-0.3,0.2-0.6,0.2-1.1,0.2c-0.4,0-0.7-0.1-1-0.3c-0.2-0.2-0.4-0.6-0.4-1.1
		c-0.4,0.5-0.9,0.9-1.5,1.1c-0.6,0.2-1.2,0.3-1.8,0.3c-0.4,0-0.8,0-1.2-0.1c-0.4-0.1-0.7-0.2-1-0.5c-0.3-0.2-0.5-0.5-0.7-0.8
		c-0.2-0.3-0.2-0.7-0.2-1.2c0-0.5,0.1-1,0.3-1.3c0.2-0.3,0.4-0.6,0.7-0.8c0.3-0.2,0.6-0.4,1-0.5c0.4-0.1,0.8-0.2,1.2-0.3
		c0.4-0.1,0.8-0.1,1.2-0.2c0.4,0,0.7-0.1,1-0.2c0.3-0.1,0.5-0.2,0.7-0.3c0.2-0.2,0.3-0.4,0.3-0.7c0-0.3-0.1-0.6-0.2-0.8
		c-0.1-0.2-0.3-0.4-0.5-0.5s-0.4-0.2-0.7-0.2c-0.2,0-0.5-0.1-0.7-0.1c-0.7,0-1.2,0.1-1.6,0.4c-0.4,0.2-0.7,0.7-0.7,1.4h-1.6
		c0-0.6,0.1-1.1,0.4-1.5c0.2-0.4,0.5-0.7,0.9-1c0.4-0.2,0.8-0.4,1.3-0.5s1-0.2,1.5-0.2c0.4,0,0.8,0,1.3,0.1c0.4,0.1,0.8,0.2,1.1,0.4
		s0.6,0.5,0.8,0.8c0.2,0.3,0.3,0.8,0.3,1.3v4.9c0,0.4,0,0.6,0.1,0.8c0,0.2,0.2,0.3,0.4,0.3c0.1,0,0.3,0,0.5-0.1L119.1,144.3
		L119.1,144.3z M116.6,139.5c-0.2,0.1-0.4,0.3-0.8,0.3c-0.3,0.1-0.6,0.1-1,0.2s-0.7,0.1-1.1,0.1c-0.4,0.1-0.7,0.1-0.9,0.3
		c-0.3,0.1-0.5,0.3-0.7,0.5c-0.2,0.2-0.3,0.5-0.3,0.9c0,0.3,0.1,0.5,0.2,0.6c0.1,0.2,0.2,0.3,0.4,0.4s0.4,0.2,0.6,0.2
		s0.4,0.1,0.7,0.1c0.5,0,0.9-0.1,1.3-0.2c0.4-0.1,0.7-0.3,0.9-0.5c0.2-0.2,0.4-0.4,0.5-0.7c0.1-0.2,0.2-0.5,0.2-0.7L116.6,139.5
		L116.6,139.5z"/>
	<path class="st1" d="M122,134.9v1.5h0c0.6-1.1,1.7-1.7,3.1-1.7c0.6,0,1.1,0.1,1.6,0.3s0.7,0.4,1,0.7c0.3,0.3,0.4,0.7,0.5,1.1
		c0.1,0.4,0.2,0.9,0.2,1.4v6.2h-1.6V138c0-0.6-0.2-1.1-0.5-1.4c-0.3-0.3-0.8-0.5-1.4-0.5c-0.5,0-0.9,0.1-1.2,0.2
		c-0.3,0.1-0.6,0.4-0.9,0.6c-0.2,0.3-0.4,0.6-0.5,0.9c-0.1,0.4-0.2,0.7-0.2,1.2v5.3h-1.6v-9.4H122z"/>
	<path class="st1" d="M137.6,144.4v-1.3h0c-0.3,0.5-0.7,0.9-1.2,1.1c-0.5,0.2-1.2,0.3-1.8,0.3c-0.7,0-1.4-0.1-1.9-0.4
		c-0.5-0.3-1-0.6-1.4-1.1c-0.4-0.4-0.6-1-0.8-1.6c-0.2-0.6-0.3-1.2-0.3-1.9c0-0.7,0.1-1.3,0.3-1.9s0.4-1.1,0.8-1.6
		c0.4-0.4,0.8-0.8,1.4-1.1c0.5-0.3,1.2-0.4,1.9-0.4c0.2,0,0.5,0,0.8,0.1s0.6,0.1,0.8,0.2c0.3,0.1,0.5,0.3,0.8,0.5
		c0.2,0.2,0.5,0.4,0.6,0.7h0v-4.9h1.6v13H137.6z M132,141c0.1,0.4,0.3,0.8,0.5,1.1c0.2,0.3,0.5,0.6,0.9,0.8c0.4,0.2,0.8,0.3,1.3,0.3
		c0.5,0,1-0.1,1.3-0.3c0.4-0.2,0.7-0.5,0.9-0.8c0.2-0.3,0.4-0.7,0.5-1.1c0.1-0.4,0.2-0.9,0.2-1.3c0-0.5-0.1-0.9-0.2-1.3
		c-0.1-0.4-0.3-0.8-0.5-1.1c-0.2-0.3-0.5-0.6-0.9-0.8c-0.4-0.2-0.8-0.3-1.4-0.3c-0.5,0-1,0.1-1.3,0.3c-0.4,0.2-0.7,0.5-0.9,0.8
		c-0.2,0.3-0.4,0.7-0.5,1.2c-0.1,0.4-0.1,0.9-0.1,1.4C131.8,140.2,131.9,140.6,132,141z"/>
	<path class="st1" d="M146.5,138.6v1.5h-5.3v-1.5H146.5z"/>
	<path class="st1" d="M154.6,131.3c1.3,0,2.3,0.3,3,1c0.7,0.7,1,1.6,1,2.8s-0.3,2.2-1,2.8c-0.7,0.7-1.7,1-3,1h-4v5.3h-1.7v-13H154.6
		z M154,137.6c1,0,1.7-0.2,2.2-0.6c0.5-0.4,0.7-1,0.7-1.8s-0.2-1.4-0.7-1.8c-0.5-0.4-1.2-0.6-2.2-0.6h-3.4v4.8H154z"/>
	<path class="st1" d="M159.5,136.3v-1.4h1.6v-1.4c0-0.8,0.2-1.4,0.7-1.7c0.4-0.4,1.1-0.6,1.9-0.6c0.1,0,0.3,0,0.5,0
		c0.2,0,0.4,0.1,0.5,0.1v1.4c-0.1,0-0.3-0.1-0.4-0.1c-0.2,0-0.3,0-0.4,0c-0.4,0-0.7,0.1-0.9,0.2c-0.2,0.1-0.3,0.4-0.3,0.8v1.3h1.8
		v1.4h-1.8v8.1h-1.6v-8.1C161.1,136.3,159.5,136.3,159.5,136.3z"/>
	<path class="st1" d="M174.2,144.3c-0.3,0.2-0.6,0.2-1.1,0.2c-0.4,0-0.7-0.1-1-0.3c-0.2-0.2-0.4-0.6-0.4-1.1
		c-0.4,0.5-0.9,0.9-1.5,1.1c-0.6,0.2-1.2,0.3-1.8,0.3c-0.4,0-0.8,0-1.2-0.1c-0.4-0.1-0.7-0.2-1-0.5c-0.3-0.2-0.5-0.5-0.7-0.8
		c-0.2-0.3-0.2-0.7-0.2-1.2c0-0.5,0.1-1,0.3-1.3c0.2-0.3,0.4-0.6,0.7-0.8c0.3-0.2,0.6-0.4,1-0.5s0.8-0.2,1.2-0.3
		c0.4-0.1,0.8-0.1,1.2-0.2c0.4,0,0.7-0.1,1-0.2c0.3-0.1,0.5-0.2,0.7-0.3c0.2-0.2,0.3-0.4,0.3-0.7c0-0.3-0.1-0.6-0.2-0.8
		c-0.1-0.2-0.3-0.4-0.5-0.5s-0.4-0.2-0.7-0.2c-0.2,0-0.5-0.1-0.7-0.1c-0.7,0-1.2,0.1-1.6,0.4c-0.4,0.2-0.7,0.7-0.7,1.4h-1.6
		c0-0.6,0.1-1.1,0.4-1.5c0.2-0.4,0.5-0.7,0.9-1c0.4-0.2,0.8-0.4,1.3-0.5s1-0.2,1.5-0.2c0.4,0,0.8,0,1.3,0.1s0.8,0.2,1.1,0.4
		c0.3,0.2,0.6,0.5,0.8,0.8c0.2,0.3,0.3,0.8,0.3,1.3v4.9c0,0.4,0,0.6,0.1,0.8c0,0.2,0.2,0.3,0.4,0.3c0.1,0,0.3,0,0.5-0.1L174.2,144.3
		L174.2,144.3z M171.7,139.5c-0.2,0.1-0.4,0.3-0.8,0.3s-0.6,0.1-1,0.2c-0.3,0-0.7,0.1-1.1,0.1c-0.4,0.1-0.7,0.1-0.9,0.3
		c-0.3,0.1-0.5,0.3-0.7,0.5s-0.3,0.5-0.3,0.9c0,0.3,0.1,0.5,0.2,0.6c0.1,0.2,0.2,0.3,0.4,0.4s0.4,0.2,0.6,0.2c0.2,0,0.4,0.1,0.7,0.1
		c0.5,0,0.9-0.1,1.3-0.2c0.4-0.1,0.7-0.3,0.9-0.5c0.2-0.2,0.4-0.4,0.5-0.7c0.1-0.2,0.2-0.5,0.2-0.7L171.7,139.5L171.7,139.5z"/>
	<path class="st1" d="M177.3,131.3v13h-1.6v-13H177.3z"/>
	<path class="st1" d="M184.7,136.3h-5.3v-1.4h7.3v1.1l-5.8,7h6v1.4h-8v-1.2L184.7,136.3z"/>
	<path class="st1" d="M200.3,143.8c-0.7,0.5-1.6,0.8-2.7,0.8c-0.8,0-1.4-0.1-2-0.4c-0.6-0.2-1-0.6-1.4-1c-0.4-0.4-0.7-1-0.8-1.6
		c-0.2-0.6-0.3-1.3-0.3-2c0-0.7,0.1-1.4,0.3-2c0.2-0.6,0.5-1.1,0.9-1.6c0.4-0.4,0.9-0.8,1.4-1c0.5-0.2,1.1-0.4,1.8-0.4
		c0.8,0,1.5,0.2,2.1,0.5c0.6,0.3,1,0.8,1.3,1.3s0.6,1.1,0.7,1.8c0.1,0.6,0.2,1.2,0.2,1.8h-7.1c0,0.4,0,0.8,0.1,1.2s0.3,0.7,0.5,1
		s0.6,0.5,0.9,0.7c0.4,0.2,0.8,0.3,1.3,0.3c0.7,0,1.2-0.2,1.6-0.5c0.4-0.3,0.7-0.8,0.8-1.4h1.5C201.4,142.4,201,143.2,200.3,143.8z
		 M199.9,137.7c-0.1-0.3-0.3-0.6-0.6-0.8c-0.2-0.2-0.5-0.4-0.8-0.6s-0.7-0.2-1.1-0.2c-0.4,0-0.8,0.1-1.1,0.2s-0.6,0.3-0.8,0.6
		c-0.2,0.2-0.4,0.5-0.5,0.8c-0.1,0.3-0.2,0.7-0.2,1h5.4C200.1,138.4,200,138,199.9,137.7z"/>
	<path class="st1" d="M205.8,142.4v2h-2v-2H205.8z"/>
	<path class="st1" d="M211.9,144.4l-4.6-13h1.9l3.7,11.3h0l3.8-11.3h1.8l-4.6,13L211.9,144.4z"/>
	<path class="st1" d="M219.6,142.4v2h-2v-2H219.6z"/>
</g>
<line class="st2" x1="228" y1="94.1" x2="58.4" y2="94.1"/>
</svg>
