<?xml version="1.0" encoding="utf-8"?>
<!-- Generator: Adobe Illustrator 23.1.1, SVG Export Plug-In . SVG Version: 6.00 Build 0)  -->
<svg version="1.1" id="Ebene_1" xmlns="http://www.w3.org/2000/svg" xmlns:xlink="http://www.w3.org/1999/xlink" x="0px" y="0px"
	 viewBox="0 0 352.8 86.5" style="enable-background:new 0 0 352.8 86.5;" xml:space="preserve">
<style type="text/css">
	.st0{fill:#575656;}
	.st1{fill:#6EB896;}
</style>
<title>swc-logo-web</title>
<g>
	<path class="st0" d="M79.4,47.7c1.3,0.7,2.7,1,4.2,1c1.7,0,2.6-0.7,2.6-1.8c0-1-0.8-1.6-2.8-2.3c-2.8-1-4.6-2.5-4.6-4.9
		c0-2.8,2.4-5,6.3-5c1.5,0,2.9,0.2,4.2,0.8l-0.8,3c-1.1-0.5-2.3-0.8-3.5-0.8c-1.6,0-2.4,0.8-2.4,1.6c0,1.1,0.9,1.5,3.1,2.3
		c2.9,1.1,4.3,2.6,4.3,5c0,2.8-2.1,5.2-6.7,5.2c-1.6,0-3.2-0.3-4.7-1L79.4,47.7z"/>
	<path class="st0" d="M102.2,44.5h-6.1v3.9h6.8v3.1H92.4V34.9h10.2V38h-6.5v3.5h6.1V44.5z"/>
	<path class="st0" d="M119.6,45.2c-0.1-2-0.1-4.4-0.1-6.8h0c-0.5,2.1-1.2,4.5-1.9,6.4l-2,6.5h-2.9l-1.8-6.4c-0.5-2-1.1-4.3-1.5-6.5
		h0c-0.1,2.2-0.2,4.8-0.3,6.9l-0.3,6.3h-3.5l1.1-16.6h5l1.6,5.6c0.5,1.9,1,4,1.4,5.9h0.1c0.4-1.9,1-4.1,1.6-6l1.8-5.5h4.9l0.9,16.6
		h-3.7L119.6,45.2z"/>
	<path class="st0" d="M130.2,47.3l-1.2,4.3h-3.9l5.1-16.6h4.9l5.2,16.6h-4.1l-1.3-4.3H130.2z M134.4,44.5l-1-3.5
		c-0.3-1-0.6-2.2-0.8-3.2h0c-0.2,1-0.5,2.2-0.8,3.2l-1,3.5H134.4z"/>
	<path class="st0" d="M142.1,51.6V34.9h4.4L150,41c1,1.8,1.9,3.7,2.7,5.7h0.1c-0.2-2.3-0.3-4.6-0.3-7v-4.8h3.5v16.6H152l-3.6-6.4
		c-1.1-1.9-2-3.9-2.9-5.9h-0.1c0.1,2.2,0.2,4.6,0.2,7.3v5L142.1,51.6z"/>
	<path class="st0" d="M162.2,38.1h-4.5v-3.2h12.8v3.2h-4.5v13.5h-3.8L162.2,38.1z"/>
	<path class="st0" d="M175.9,34.9v16.6h-3.8V34.9H175.9z"/>
	<path class="st0" d="M191.3,51.1c-1.4,0.5-2.8,0.8-4.2,0.7c-5.7,0-8.7-3.6-8.7-8.3c0-5.7,4-8.8,9.1-8.8c1.4-0.1,2.8,0.2,4.1,0.7
		l-0.8,3c-1-0.4-2.1-0.6-3.2-0.6c-3,0-5.3,1.8-5.3,5.5c0,3.3,2,5.4,5.3,5.4c1.1,0,2.1-0.2,3.2-0.5L191.3,51.1z"/>
	<path class="st0" d="M201.7,51.6l-4.2-16.6h2.3l2,8.4c0.5,2.1,0.9,4.1,1.2,5.7h0.1c0.3-1.7,0.8-3.6,1.4-5.8l2.2-8.4h2.2l2,8.4
		c0.5,2,0.9,3.9,1.2,5.7h0c0.3-1.8,0.8-3.7,1.3-5.7l2.2-8.4h2.2l-4.7,16.6h-2.2l-2.1-8.7c-0.5-1.8-0.8-3.6-1.1-5.4h-0.1
		c-0.3,1.8-0.7,3.6-1.3,5.4l-2.4,8.7L201.7,51.6z"/>
	<path class="st0" d="M228.3,43.8h-6.4v6h7.2v1.8h-9.4V34.9h9v1.8h-6.8V42h6.4L228.3,43.8z"/>
	<path class="st0" d="M231.3,35.2c1.3-0.3,2.6-0.4,3.9-0.4c2.1,0,3.5,0.4,4.5,1.2c0.9,0.7,1.4,1.8,1.4,2.9c-0.1,1.7-1.2,3.2-2.8,3.7
		v0.1c2,0.4,3.4,2.1,3.4,4.1c0,1.3-0.5,2.5-1.4,3.3c-1.1,1.1-3,1.6-5.7,1.6c-1.1,0-2.2-0.1-3.3-0.2L231.3,35.2z M233.5,42h1.9
		c2.2,0,3.6-1.2,3.6-2.8c0-1.9-1.5-2.7-3.6-2.7c-0.6,0-1.3,0-1.9,0.1L233.5,42z M233.5,49.9c0.6,0.1,1.2,0.1,1.8,0.1
		c2.2,0,4.3-0.8,4.3-3.2c0-2.2-1.9-3.2-4.3-3.2h-1.8V49.9z"/>
	<path class="st0" d="M261.5,51.1c-1.4,0.6-2.9,0.8-4.4,0.8c-4.7,0-8.2-3-8.2-8.4c0-5.2,3.5-8.7,8.7-8.7c1.4-0.1,2.7,0.2,3.9,0.7
		l-0.5,1.8c-1-0.5-2.2-0.7-3.3-0.7c-3.9,0-6.5,2.5-6.5,6.9c0,4.1,2.3,6.7,6.4,6.7c1.2,0,2.4-0.2,3.5-0.7L261.5,51.1z"/>
	<path class="st0" d="M277.4,43.1c0,5.7-3.5,8.8-7.7,8.8c-4.4,0-7.5-3.4-7.5-8.5c0-5.3,3.3-8.7,7.7-8.7
		C274.4,34.6,277.4,38.1,277.4,43.1z M264.4,43.3c0,3.6,1.9,6.8,5.3,6.8s5.3-3.1,5.3-6.9c0-3.3-1.7-6.8-5.3-6.8
		S264.4,39.7,264.4,43.3L264.4,43.3z"/>
	<path class="st0" d="M293.9,44.3c-0.1-2.3-0.3-5.1-0.3-7.2h0c-0.6,1.9-1.3,4-2.1,6.3l-2.9,8.1h-1.6l-2.7-7.9
		c-0.8-2.4-1.4-4.5-1.9-6.5h0c0,2.1-0.2,4.8-0.3,7.4l-0.4,7.1h-2l1.2-16.6h2.7l2.8,8c0.7,2,1.2,3.9,1.7,5.6h0c0.4-1.7,1-3.5,1.8-5.6
		l3-8h2.7l1,16.6h-2.1L293.9,44.3z"/>
	<path class="st0" d="M299.5,35.1c1.4-0.2,2.7-0.3,4.1-0.3c1.7-0.1,3.3,0.4,4.7,1.4c1,0.9,1.5,2.2,1.5,3.5c0.1,1.3-0.4,2.6-1.3,3.6
		c-1.4,1.3-3.2,1.9-5.1,1.8c-0.6,0-1.2,0-1.7-0.1v6.7h-2.1L299.5,35.1z M301.6,43.2c0.6,0.1,1.2,0.2,1.8,0.2c2.6,0,4.2-1.3,4.2-3.5
		c0-2.2-1.6-3.3-3.9-3.3c-0.7,0-1.4,0-2,0.2L301.6,43.2z"/>
	<path class="st0" d="M313.5,46.3l-1.7,5.2h-2.2l5.7-16.6h2.6l5.7,16.6h-2.3l-1.8-5.2H313.5z M318.9,44.7l-1.7-4.8
		c-0.4-1.1-0.6-2.1-0.9-3h0c-0.2,1-0.5,2-0.8,3l-1.6,4.8L318.9,44.7z"/>
	<path class="st0" d="M325.5,51.6V34.9h2.4l5.3,8.4c1.1,1.7,2.1,3.5,3,5.4l0.1,0c-0.2-2.2-0.2-4.2-0.2-6.8v-7h2v16.6h-2.2l-5.3-8.4
		c-1.1-1.8-2.2-3.6-3.1-5.6l-0.1,0c0.1,2.1,0.1,4.1,0.1,6.9v7.1L325.5,51.6z"/>
	<path class="st0" d="M345.1,51.6v-7.1l-5.3-9.6h2.5l2.3,4.6c0.6,1.3,1.1,2.3,1.7,3.4h0c0.4-1.1,1-2.2,1.7-3.4l2.4-4.6h2.4l-5.6,9.5
		v7.1L345.1,51.6z"/>
</g>
<g>
	<path class="st0" d="M40.6,32.1c8.4-13.5,19.6-21.8,25-18.4c5.4,3.4-1.8,24.9-10.1,38.5c0,0,6.7-26.1,1.2-29.5
		C51.3,19.3,40.6,32.1,40.6,32.1z"/>
	<path class="st1" d="M64.3,3.1c1.9-3.1,6-4.1,9.1-2.2c3.1,1.9,4.1,6,2.2,9.1s-6,4.1-9.1,2.2c0,0,0,0,0,0
		C63.4,10.3,62.4,6.2,64.3,3.1z"/>
	<path class="st0" d="M62.7,41.9c7.5,14,9.1,27.8,3.5,30.9c-5.6,3-20.7-14-28.3-28c0,0,19.3,18.8,24.9,15.8
		C68.5,57.5,62.7,41.9,62.7,41.9L62.7,41.9z"/>
	<path class="st1" d="M75.7,76.7c1.7,3.2,0.5,7.2-2.7,9c-3.2,1.7-7.2,0.5-9-2.7c-1.7-3.2-0.5-7.2,2.7-9c0,0,0,0,0,0
		C70,72.3,74,73.5,75.7,76.7L75.7,76.7z"/>
	<path class="st0" d="M43.2,56.2c-15.9-0.5-28.7-6-28.5-12.5c0.2-6.4,22.5-10.9,38.4-10.5c0,0-25.9,7.3-26.1,13.7
		S43.2,56.2,43.2,56.2z"/>
	<path class="st1" d="M6.4,50.1C2.8,50-0.1,46.9,0,43.3s3.2-6.5,6.8-6.4s6.5,3.2,6.4,6.8c0,0,0,0,0,0C13.1,47.3,10.1,50.2,6.4,50.1
		C6.4,50.1,6.4,50.1,6.4,50.1z"/>
</g>
</svg>
