<?xml version="1.0" encoding="UTF-8" standalone="no"?>
<svg
   xmlns:dc="http://purl.org/dc/elements/1.1/"
   xmlns:cc="http://creativecommons.org/ns#"
   xmlns:rdf="http://www.w3.org/1999/02/22-rdf-syntax-ns#"
   xmlns:svg="http://www.w3.org/2000/svg"
   xmlns="http://www.w3.org/2000/svg"
   xmlns:sodipodi="http://sodipodi.sourceforge.net/DTD/sodipodi-0.dtd"
   xmlns:inkscape="http://www.inkscape.org/namespaces/inkscape"
   version="1.1"
   id="svg10"
   xml:space="preserve"
   width="1501.3333"
   height="1261.0667"
   viewBox="0 0 1501.3333 1261.0667"
   sodipodi:docname="20201120_Speaker_UPB.svg"
   inkscape:version="1.0.2-2 (e86c870879, 2021-01-15)"><metadata
     id="metadata16"><rdf:RDF><cc:Work
         rdf:about=""><dc:format>image/svg+xml</dc:format><dc:type
           rdf:resource="http://purl.org/dc/dcmitype/StillImage" /><dc:title></dc:title></cc:Work></rdf:RDF></metadata><defs
     id="defs14" /><sodipodi:namedview
     pagecolor="#ffffff"
     bordercolor="#666666"
     borderopacity="1"
     objecttolerance="10"
     gridtolerance="10"
     guidetolerance="10"
     inkscape:pageopacity="0"
     inkscape:pageshadow="2"
     inkscape:window-width="1920"
     inkscape:window-height="1001"
     id="namedview12"
     showgrid="false"
     inkscape:zoom="0.63517658"
     inkscape:cx="397.2216"
     inkscape:cy="627.38459"
     inkscape:window-x="-9"
     inkscape:window-y="-9"
     inkscape:window-maximized="1"
     inkscape:current-layer="g20" /><g
     id="g18"
     inkscape:groupmode="layer"
     inkscape:label="ink_ext_XXXXXX"
     transform="matrix(1.3333333,0,0,-1.3333333,0,1261.0667)"><g
       id="g20"
       transform="scale(0.1)"><path
         d="M 10488.4,5175.24 H 11180 V 6398.8 h -691.6 V 5175.24"
         style="fill:#8b8d8d;fill-opacity:1;fill-rule:nonzero;stroke:none"
         id="path22" /><path
         d="m 7866.32,5175.13 h 691.66 V 6398.78 H 7866.32 V 5175.13"
         style="fill:#8b8d8d;fill-opacity:1;fill-rule:nonzero;stroke:none"
         id="path24" /><path
         d="M 0,5175.13 H 691.668 V 6398.8 H 0 V 5175.13"
         style="fill:#8b8d8d;fill-opacity:1;fill-rule:nonzero;stroke:none"
         id="path26" /><path
         d="m 9159.71,4563.35 h 691.66 V 7010.67 H 9159.71 V 4563.35"
         style="fill:#00a888;fill-opacity:1;fill-rule:nonzero;stroke:none"
         id="path28" /><path
         d="M 6555.24,4563.35 H 7246.9 V 7010.67 H 6555.24 V 4563.35"
         style="fill:#00a888;fill-opacity:1;fill-rule:nonzero;stroke:none"
         id="path30" /><path
         d="m 1311.08,4563.35 h 691.66 V 7010.67 H 1311.08 V 4563.35"
         style="fill:#8b8d8d;fill-opacity:1;fill-rule:nonzero;stroke:none"
         id="path32" /><path
         d="m 5244.19,3951.48 h 691.67 V 7622.46 H 5244.19 V 3951.48"
         style="fill:#00a888;fill-opacity:1;fill-rule:nonzero;stroke:none"
         id="path34" /><path
         d="m 2622.12,3339.7 h 691.7 v 4894.62 h -691.7 V 3339.7"
         style="fill:#00a888;fill-opacity:1;fill-rule:nonzero;stroke:none"
         id="path36" /><path
         d="m 3933.09,2116.02 h 691.69 V 9457.97 H 3933.09 V 2116.02"
         style="fill:#8b8d8d;fill-opacity:1;fill-rule:nonzero;stroke:none"
         id="path38" /><path
         d="m 70,454.828 c 59.324,-32.976 129.344,-60.176 210.105,-81.566 80.723,-21.442 168.903,-32.141 264.485,-32.141 36.238,0 71.691,2.059 106.301,6.188 34.605,4.089 65.074,12.351 91.453,24.711 26.344,12.359 47.351,29.66 63.035,51.91 15.637,22.25 23.48,50.672 23.48,85.281 0,54.379 -20.195,95.559 -60.558,123.578 -40.399,28.012 -90.649,52.313 -150.781,72.922 -60.18,20.598 -125.68,41.187 -196.512,61.801 -70.875,20.597 -136.383,49.437 -196.516,86.508 -60.176,37.089 -110.422,86.91 -150.7811,149.56 -40.4023,62.6 -60.5664,146.65 -60.5664,252.12 0,103.83 23.0625,189.92 69.211,258.31 46.1175,68.36 105.0585,122.36 176.7425,161.92 71.683,39.54 152.015,67.54 241.007,84.04 88.985,16.46 177.122,24.71 264.485,24.71 84.051,0 164.765,-5.79 242.24,-17.3 77.44,-11.55 144.99,-27.18 202.69,-46.97 l -29.66,-355.94 c -59.32,28 -121.54,48.2 -186.622,60.56 -65.117,12.36 -130.625,18.55 -196.511,18.55 -29.661,0 -62.219,-1.24 -97.641,-3.72 -35.453,-2.47 -68.824,-9.08 -100.109,-19.77 -31.325,-10.74 -57.7,-26.82 -79.098,-48.2 -21.434,-21.45 -32.133,-51.1 -32.133,-88.99 0,-46.15 20.16,-81.57 60.555,-106.3 40.363,-24.71 90.613,-46.15 150.785,-64.26 60.141,-18.16 125.637,-37.08 196.512,-56.85 70.84,-19.78 136.342,-48.62 196.512,-86.51 60.14,-37.941 110.39,-88.179 150.78,-150.789 40.36,-62.64 60.57,-145.839 60.57,-249.652 0,-112.078 -21.44,-204.777 -64.27,-278.09 C 1196.32,217.102 1139.46,159.012 1068.63,116.18 997.762,73.3203 916.613,43.2617 825.152,25.9609 733.699,8.64844 640.148,0 544.59,0 463.84,0 377.32,6.17969 285.051,18.5508 192.746,30.9023 107.887,49.4414 30.4492,74.1484 L 70,454.828"
         style="fill:#8b8d8d;fill-opacity:1;fill-rule:nonzero;stroke:none"
         id="path40" /><path
         d="m 2010.39,959.082 h 118.65 c 39.55,0 76.63,3.707 111.24,11.129 34.6,7.418 64.64,20.578 90.21,39.549 25.54,18.92 45.73,43.64 60.57,74.15 14.83,30.49 22.24,67.98 22.24,112.48 0,44.48 -7.41,81.57 -22.24,111.22 -14.84,29.67 -35.03,53.54 -60.57,71.7 -25.57,18.1 -55.61,30.89 -90.21,38.31 -34.61,7.41 -71.69,11.12 -111.24,11.12 h -118.65 z m -459.77,795.948 h 548.76 c 265.3,0 460.57,-45.74 585.83,-137.2 125.21,-91.45 187.86,-234.43 187.86,-428.86 0,-174.69 -60.18,-311.072 -180.45,-409.099 C 2572.31,681.809 2404.23,632.789 2188.37,632.789 H 2010.39 V 29.6719 H 1550.62 V 1755.03"
         style="fill:#8b8d8d;fill-opacity:1;fill-rule:nonzero;stroke:none"
         id="path42" /><path
         d="m 3073.27,1755.03 h 1216.16 v -326.29 h -756.4 V 1072.78 H 4247.4 V 746.512 H 3533.03 V 355.961 h 783.58 V 29.6719 H 3073.27 V 1755.03"
         style="fill:#8b8d8d;fill-opacity:1;fill-rule:nonzero;stroke:none"
         id="path44" /><path
         d="m 5391.86,1399.07 h -4.94 L 5164.45,724.262 h 432.57 z m -281.8,355.96 h 563.59 L 6338.57,29.6719 H 5834.31 L 5705.79,397.969 H 5058.16 L 4922.2,29.6719 H 4455.02 L 5110.06,1755.03"
         style="fill:#8b8d8d;fill-opacity:1;fill-rule:nonzero;stroke:none"
         id="path46" /><path
         d="m 6519.02,1755.03 h 459.77 v -704.48 h 4.94 l 519.09,704.48 h 553.69 L 7418.78,951.672 8105.94,29.6719 H 7520.12 L 6983.73,813.238 h -4.94 V 29.6719 H 6519.02 V 1755.03"
         style="fill:#8b8d8d;fill-opacity:1;fill-rule:nonzero;stroke:none"
         id="path48" /><path
         d="m 8291.31,1755.03 h 1216.15 v -326.29 h -756.39 v -355.96 h 714.37 V 746.512 H 8751.07 V 355.961 h 783.58 V 29.6719 H 8291.31 V 1755.03"
         style="fill:#8b8d8d;fill-opacity:1;fill-rule:nonzero;stroke:none"
         id="path50" /><path
         d="m 10261.4,1038.18 h 121.1 c 36.2,0 74.5,1.25 114.9,3.72 40.4,2.47 76.6,10.27 108.8,23.48 32.1,13.17 58.9,32.94 80.3,59.32 21.4,26.35 32.1,64.27 32.1,113.7 0,39.56 -9.5,72.08 -28.4,97.65 -18.9,25.51 -43.7,44.88 -74.1,58.07 -30.5,13.19 -66,22.26 -106.3,27.2 -40.4,4.95 -82.8,7.42 -127.3,7.42 h -121.1 z m -459.81,716.85 h 820.61 c 75.8,0 147.5,-8.66 215.1,-25.97 67.5,-17.3 126.9,-44.1 178,-80.33 51,-36.27 91,-81.57 119.9,-135.95 28.8,-54.37 43.2,-118.66 43.2,-192.81 0,-115.37 -27.2,-210.11 -81.6,-284.26 -54.3,-74.159 -137.6,-124.44 -249.6,-150.78 v -4.95 c 36.2,-9.878 65.5,-25.558 87.7,-46.949 22.3,-21.449 41.6,-48.211 58.1,-80.34 16.5,-32.14 31.7,-69.211 45.8,-111.242 13.9,-42.019 31.7,-89.41 53.1,-142.129 L 11260,29.6719 h -479.6 l -98.8,311.4491 c -23.1,74.149 -44.9,135.098 -65.5,182.918 -20.7,47.781 -42.9,85.672 -66.8,113.711 -23.9,27.988 -51.1,47.352 -81.5,58.082 -30.6,10.699 -67.2,16.066 -110,16.066 h -96.4 V 29.6719 H 9801.59 V 1755.03"
         style="fill:#8b8d8d;fill-opacity:1;fill-rule:nonzero;stroke:none"
         id="path52" /><path
         style="fill:#a0a0a0;stroke:none;stroke-width:1.57437"
         d="M 350.77783,489.62763 V 164.52118 h 44.86941 44.86941 v 325.10645 325.10644 h -44.86941 -44.86941 z"
         id="path54"
         transform="matrix(7.5000002,0,0,-7.5000002,0,9458.0005)" /><path
         style="fill:#a0a0a0;stroke:none;stroke-width:1.57437"
         d="M 350.77783,489.62763 V 164.52118 h 44.86941 44.86941 v 325.10645 325.10644 h -44.86941 -44.86941 z"
         id="path56"
         transform="matrix(7.5000002,0,0,-7.5000002,0,9458.0005)" /><path
         style="fill:#a0a0a0;stroke:none;stroke-width:1.57437"
         d="M 350.77783,489.62763 V 164.52118 h 44.86941 44.86941 v 325.10645 325.10644 h -44.86941 -44.86941 z"
         id="path58"
         transform="matrix(7.5000002,0,0,-7.5000002,0,9458.0005)" /><path
         style="fill:#00205b;stroke:none;stroke-width:1.57437;fill-opacity:1"
         d="M 350.77783,489.62763 V 164.52118 h 44.86941 44.86941 v 325.10645 325.10644 h -44.86941 -44.86941 z"
         id="path60"
         transform="matrix(7.5000002,0,0,-7.5000002,0,9458.0005)" /><path
         style="fill:#00205b;fill-opacity:1;stroke-width:1.57437"
         d="M 351.56501,489.62763 V 164.52118 h 44.08223 44.08223 v 325.10645 325.10644 h -44.08223 -44.08223 z"
         id="path885"
         transform="matrix(7.5000002,0,0,-7.5000002,0,9458.0005)" /><path
         style="fill:#00205b;fill-opacity:1;stroke-width:1.57437"
         d="M 699.49975,488.84044 V 244.81381 h 45.6566 45.65659 v 244.02663 244.02663 h -45.65659 -45.6566 z"
         id="path887"
         transform="matrix(7.5000002,0,0,-7.5000002,0,9458.0005)" /><path
         style="fill:#00205b;fill-opacity:1;stroke-width:1.57437"
         d="M 874.25431,489.62763 V 326.68081 h 45.65659 45.6566 v 162.94682 162.94681 h -45.6566 -45.65659 z"
         id="path889"
         transform="matrix(7.5000002,0,0,-7.5000002,0,9458.0005)" /><path
         style="fill:#00205b;fill-opacity:1;stroke-width:1.57437"
         d="M 1222.1891,489.62763 V 326.68081 h 45.6565 45.6566 v 162.94682 162.94681 h -45.6566 -45.6565 z"
         id="path891"
         transform="matrix(7.5000002,0,0,-7.5000002,0,9458.0005)" /></g></g></svg>
