<svg xmlns="http://www.w3.org/2000/svg" viewBox="0 0 328.8196 377.2418"><title>Tentris_logo</title><path d="M328.82,124.5218v5.76a7.4986,7.4986,0,0,0-.24,1.02c-.25,4.21-.4,8.43-.75,12.63-.37,4.34-.99,8.66-1.39,13.01-.76,8.18-2.47,16.19-4.06,24.23-1.18,5.97-2.08,12.02-3.48,17.94-2.16,9.14-4.58,18.22-7.03,27.29-1.99,7.38-4.18,14.72-6.32,22.06-.54,1.87-1.27,3.67-1.84,5.53-1.58,5.16-4.89,9.27-8.04,13.48-2.13,2.84-4.26,5.68-6.54,8.4-3.61,4.32-7.34,8.54-11.04,12.78-2.47,2.83-4.94,5.66-7.45,8.45a36.577,36.577,0,0,1-17.97,11c-5.84,1.58-11.7,3.16-17.61,4.45a72.5962,72.5962,0,0,1-9.57,1.08c-4,.31-8.03.73-12.03.66a57.9814,57.9814,0,0,1-14.06-1.52,3.2166,3.2166,0,0,1-2.64-2.7c-1.04-5.43-2.23-10.84-3.28-16.27-.65-3.34-1.15-6.71-1.72-10.06-.1-.6-.38-.85-1.04-.84-5.12.03-10.25-.2-15.35.08-4.62.25-9.21,1.02-13.82,1.58-1.29.15-2.6.28-3.88.54a4.8762,4.8762,0,0,0-2.25.89c-4.16,3.79-8.48,7.45-12.29,11.57-4.22,4.57-8.04,9.51-11.82,14.46a6.4731,6.4731,0,0,1-5.77,2.82c-2.32-.05-4.64.07-6.96-.02-4.33-.18-8.66-.45-13-.69-.2-.01-.4-.02-.6-.02a169.1967,169.1967,0,0,1-17.28-.9,146.3814,146.3814,0,0,1-19.36-2.95c-1.89-.44-3.74-1.07-5.61-1.57a20.6345,20.6345,0,0,0-2.89-.61,3.44,3.44,0,0,1-2.63-1.85c-2.81-4.91-5.66-9.8-8.4-14.75a379.8284,379.8284,0,0,1-25.23-55.18c-3.93-10.93-7.25-22.09-10.53-33.24-2.72-9.23-5.12-18.56-7.37-27.91-1.17-4.88-1.74-9.89-2.53-14.86-.45-2.81-.77-5.64-1.19-8.46a3.6741,3.6741,0,0,1,2.82-4.15c3.52-1.11,7.01-2.34,10.6-3.18,11.06-2.59,22.15-5.02,33.24-7.51.35-.08.7-.14,1.04-.24a1.7694,1.7694,0,0,0,1.48-2.21,109.1671,109.1671,0,0,1-.95-17.52c.01-.86.42-1.92.05-2.53-.26-.43-1.52-.24-2.34-.35-1.02-.13-2.03-.35-3.06-.41-3.54-.19-7.08-.27-10.62-.49-4.16-.26-8.32-.63-12.47-.95-.32-.02-.64-.01-.96-.02-4.9-.08-9.79-.17-14.69-.23a6.8065,6.8065,0,0,1-4.77-2.1,4.5563,4.5563,0,0,1-1.03-3.45c-.15-5.51-.15-11.02-.29-16.53-.11-4.68.75-9.24,1.54-13.82.57-3.23.94-6.5,1.6-9.71,1.15-5.54,2.24-11.11,3.73-16.56,1.48-5.38,3.43-10.63,5.17-15.93a3.9538,3.9538,0,0,1,2.56-2.51c4.35-1.62,8.67-3.36,13.1-4.72,17.4-5.33,34.94-10.12,52.67-14.22,3.35-.78,6.77-1.26,10.12-2.01,4.33-.97,8.59-2.2,12.93-3.1,4.49-.93,9.02-1.65,13.55-2.36,4.03-.64,8.08-1.18,12.13-1.66,2.83-.34,5.69-.49,8.53-.76,3.08-.29,6.16-.63,9.24-.92,2.13-.2,4.27-.35,6.41-.51q6.6-.48,13.2-.95c.12-.01.24-.01.36-.01,8.6-.08,17.19-.23,25.78-.21,4.59,0,9.18.2,13.75.47,4.56.28,9.1.77,13.65,1.16,2.97.25,5.94.45,8.9.75,3.23.33,6.45.77,9.68,1.15,2.96.35,5.92.62,8.86,1.01q5.655.75,11.28,1.63,5.9849.915,11.96,1.96,7.425,1.32,14.82,2.75c3.73.72,7.44,1.56,11.17,2.27a6.365,6.365,0,0,1,4.58,3.08c1.9,3.23,3.76,6.48,5.67,9.69,1.7,2.85,2.13,6.02,2.43,9.24.28,3.12.63,6.23.92,9.35.2,2.01.41,4.03.5,6.05.28,5.89.61,11.78.72,17.68.08,4.54-.11,9.08-.2,13.62a8.8072,8.8072,0,0,0,.83,4.35q5.385,10.785,10.43,21.75c1.99,4.33,3.68,8.8,5.43,13.23A24.5384,24.5384,0,0,1,328.82,124.5218Z"/><path d="M121.92,310.9018c-5.1-.27-10.2-.56-15.3-.8-2.87-.13-5.76-.03-8.62-.29-6.67-.59-13.33-1.23-19.97-2.05a106.5179,106.5179,0,0,1-15.6-3.61,4.6066,4.6066,0,0,1-3.18-2.68c-5.65-10.65-11.48-21.21-16.88-31.98-3.6-7.16-6.6-14.63-9.86-21.96a4.5327,4.5327,0,0,1-.21-.9c.3.02.61.03.91.07,3.71.46,7.41,1.12,11.13,1.34,5.98.35,11.97.58,17.96.57,6.66-.01,13.34-.22,20-.57,6.05-.32,12.08-.93,18.12-1.41,1.1-.08,2.5-.55,3.24-.06.72.49.82,1.97,1.12,3.03,5.28,18.11,11.53,35.88,18.56,53.38.92,2.29,1.8,4.6,2.75,6.89.34.8.09.97-.68.94Z" style="fill:#f1e8b4"/><path d="M191.02,278.9918c-.16-.02-.31-.04-.38-.05-6.16,0-12.24-.26-18.29.08-4.99.29-9.94,1.27-14.89,2.01-1.62.24-1.57.3-2.17-1.19q-1.92-4.77-3.96-9.5c-.42-.95-.28-1.18.78-1.22,5.79-.19,11.58-.3,17.34-.74a110.5017,110.5017,0,0,0,20.06-2.97c.96-.25,1.03.34,1.12.91.52,3.23,1,6.46,1.49,9.69.08.55.18,1.1.24,1.65C192.51,279.1218,192.49,279.1418,191.02,278.9918Z" style="fill:#9a9a78"/><path d="M151.97,283.3018c-3.76,3.4-7.68,6.64-11.15,10.3-3.61,3.8-6.78,8.02-10.14,12.06-.58.7-1.11,1.44-1.69,2.15a3.4578,3.4578,0,0,1-.6.47,5.0087,5.0087,0,0,1-.34-.59c-1.33-3.42-2.72-6.83-3.97-10.28q-5.46-15.015-10.83-30.06c-.43-1.18-.34-1.35.46-1.14,3.22.54,6.43,1.17,9.67,1.6,3.59.47,7.19.87,10.81,1.08,4.42.25,8.86.28,13.29.37.64.01.86.25,1.07.81q2.01,5.19,4.09,10.36A2.2042,2.2042,0,0,1,151.97,283.3018Z" style="fill:#9a9a78"/><path d="M313.2,168.0618c-.3,2.07-.53,3.83-.8,5.59-.54,3.46-1.07,6.92-1.67,10.38-.7,3.95-1.36,7.92-2.23,11.84-1.66,7.48-3.43,14.95-5.21,22.41-.57,2.41-1.24,4.8-1.95,7.18a2.1593,2.1593,0,0,1-.96,1.11c-2.24,1.27-4.52,2.47-6.79,3.68a3.2262,3.2262,0,0,1-.77.2,2.8434,2.8434,0,0,1-.11-.9c1.87-8.65,3.83-17.28,5.63-25.94,1.11-5.32,2.03-10.68,2.95-16.03q1.17-6.87,2.14-13.78c.57-4.14.98-8.31,1.47-12.47q.225-1.875.48-3.75a3.2285,3.2285,0,0,1,.19-.52c.2.1.46.15.57.31q2.46,3.42,4.86,6.87c.59.85,1.15,1.72,1.67,2.6A10.7525,10.7525,0,0,1,313.2,168.0618Z" style="fill:#00353e"/><path d="M318.67,178.4418c-.51,2.9-.89,5.72-1.5,8.48q-2.655,11.985-5.48,23.93c-.73,3.15-1.58,6.26-2.42,9.38a2.2169,2.2169,0,0,1-.72,1.06,23.688,23.688,0,0,1-2.38,1.55,6.8647,6.8647,0,0,1-1.2.44,6.7878,6.7878,0,0,1,.07-1.28c.44-1.83.98-3.65,1.4-5.49,1.58-7.06,3.22-14.11,4.68-21.2,1.16-5.67,2.11-11.39,3.11-17.09.32-1.82.5-3.67.76-5.51a2.011,2.011,0,0,1,.28-.57c.19.11.46.16.55.32.95,1.78,1.89,3.57,2.8,5.38A1.4326,1.4326,0,0,1,318.67,178.4418Z" style="fill:#00353e"/><path d="M319.07,120.3018c.02-2.47.14-4.93.24-7.4a2.9808,2.9808,0,0,1,.22-.74c.17.19.43.34.52.56q1.86,4.425,3.7,8.84c.04.11.18.24.15.32-.53,1.57.48,2.98.49,4.46.03,3.86,0,7.73-.24,11.59-.23,3.66-.78,7.29-1.15,10.95-.28,2.87-.4,5.76-.76,8.62-.42,3.4-1,6.78-1.53,10.16-.25,1.6-.55,3.18-.86,4.77a2.9493,2.9493,0,0,1-.34.69c-.22-.19-.52-.33-.65-.56-.85-1.51-1.76-3-2.48-4.58a5.2947,5.2947,0,0,1-.4-2.52c.33-3.58.81-7.14,1.15-10.71.37-3.9.67-7.81.97-11.71.19-2.45.31-4.9.48-7.36.09-1.26.21-2.52.32-3.78Z" style="fill:#00353e"/><path d="M317.34,108.6018c-.12,4.93-.23,9.86-.36,14.79-.06,1.94-.12,3.89-.24,5.83-.29,4.31-.63,8.61-.94,12.92-.17,2.37-.29,4.74-.51,7.11-.26,2.95-.6,5.89-.92,8.83q-.24,2.235-.51,4.47a3.8831,3.8831,0,0,1-.24.73,3.5774,3.5774,0,0,1-.56-.54c-1.93-2.65-3.83-5.32-5.75-7.98-.21-.29-.45-.55-.67-.83a2.4035,2.4035,0,0,1-.63-2.48,12.3253,12.3253,0,0,0,.32-3.06c.25-4.03.48-8.07.73-12.11.23-3.75.56-7.51.7-11.27.23-6.09.2-12.19.54-18.26.26-4.61.92-9.19,1.42-13.78.03-.27.3-.52.46-.77a2.5831,2.5831,0,0,1,.52.58c2.15,4.45,4.32,8.9,6.41,13.38Z" style="fill:#00353e"/><path d="M305.68,124.9918c-.12,3.64-.45,7.28-.7,10.92-.23,3.23-.48,6.47-.72,9.71-.07,1.03-.12,2.06-.26,3.08a4.8455,4.8455,0,0,1-.46,1.15,5.43,5.43,0,0,1-.93-.68c-1.27-1.38-2.57-2.72-3.72-4.19-1.8-2.29-4.26-3.45-6.89-4.42-6.75-2.49-13.78-3.83-20.84-5.09-4.76-.85-9.51-1.79-14.29-2.58-2.8-.45-5.63-.71-8.46-1-4.05-.42-8.1-.83-12.15-1.19-1.7-.15-3.42-.22-5.12-.25-6.11-.1-12.21-.21-18.32-.22-2.17,0-4.34.27-6.51.45-.68.06-.85-.26-.77-.84.71-5.03,1.28-10.09,2.17-15.09.86-4.88,2.04-9.7,3.13-14.54a1.263,1.263,0,0,1,.87-.78c1.77-.23,3.54-.4,5.31-.5,2.31-.13,4.62-.15,6.92-.26,2.7-.13,5.41-.45,8.11-.44,3.65.02,7.31.28,10.96.43.2.01.4,0,.6.02,4.86.31,9.73.61,14.59.96,2.92.2,5.85.4,8.76.74,3.16.37,6.31.94,9.47,1.38s6.34.79,9.5,1.25c3.04.44,6.07.98,9.1,1.46,2.53.4,5.06.78,7.59,1.16.2.03.4.03.59.07,2.73.64,2.73.64,2.73,3.49v4.68Z" style="fill:#00353e"/><path d="M307.83,225.7318c-.99,3.72-1.89,7.4-2.95,11.04-1.48,5.04-3.23,10.01-4.58,15.09-1.22,4.59-4.37,7.94-6.87,11.73-.11.17-.37.24-.56.36a3.6518,3.6518,0,0,1,.08-.88c1.56-4.73,3.27-9.42,4.68-14.19,1.98-6.67,3.73-13.4,5.63-20.09a3.8481,3.8481,0,0,1,1.14-1.66,24.0207,24.0207,0,0,1,2.52-1.81,2.78,2.78,0,0,1,.74-.22C307.72,225.3218,307.78,225.5418,307.83,225.7318Z" style="fill:#005952"/><path d="M299.72,231.1718c-1.63,5.94-3.14,11.92-4.97,17.8-1.99,6.38-4.49,12.61-6.36,19.02-.94,3.21-2.83,5.58-4.87,7.99-1.54,1.82-3.11,3.62-4.68,5.43a1.829,1.829,0,0,1-.47.28c-.04-.17-.08-.34-.11-.51.34-.99.66-1.97,1-2.93,4.83-13.69,8.29-27.78,11.94-41.8a3.5612,3.5612,0,0,0,.07-.47,3.1555,3.1555,0,0,1,2.19-2.88c1.84-.72,3.56-1.76,5.34-2.64a5.0046,5.0046,0,0,1,.95-.3A3.7875,3.7875,0,0,1,299.72,231.1718Z" style="fill:#005952"/><path d="M288.82,235.6518c-.77,2.95-1.41,5.55-2.12,8.14-2.07,7.55-4.03,15.13-6.28,22.62-1.7,5.69-3.81,11.25-5.69,16.89-.35,1.03-.38,2.19-.79,3.19a11.1944,11.1944,0,0,1-1.71,2.8c-2.7,3.25-5.29,6.61-8.64,9.26a3.7218,3.7218,0,0,1-.71.38,3.0832,3.0832,0,0,1,.05-.75c3.94-11.12,7.13-22.46,10.11-33.86,2.2-8.45,4.48-16.88,6.71-25.32.18-.67.51-.93,1.27-1.13,2.32-.61,4.58-1.47,6.87-2.21A3.9074,3.9074,0,0,1,288.82,235.6518Z" style="fill:#005952"/><path d="M303.29,154.7418c-.29,2.73-.52,5.13-.8,7.53q-.42,3.525-.92,7.05c-.43,3.21-.87,6.42-1.35,9.62-.48,3.24-.95,6.49-1.53,9.71-.94,5.17-1.9,10.33-2.97,15.47-1.67,8-3.45,15.98-5.18,23.97a2.8744,2.8744,0,0,0-.11.57c-.09,2.7-1.53,4.14-4.1,4.8-1.56.4-3.02,1.18-4.55,1.73-.64.23-1.18.43-.89-.79q2.25-9.63,4.3-19.31c1.14-5.4,2.17-10.83,3.19-16.26,1.22-6.52,2.44-13.04,3.55-19.58.62-3.62,1-7.28,1.5-10.92.47-3.49.98-6.96,1.39-10.46.32-2.71.5-5.44.77-8.16.11-1.1.29-2.19.44-3.28.08-.5.24-.65.64-.19,2.1,2.46,4.23,4.88,6.3,7.36A2.4756,2.4756,0,0,1,303.29,154.7418Z" style="fill:#005952"/><path d="M277.16,239.8618c-.71,2.75-1.28,5.54-2.03,8.28-3.11,11.32-6.18,22.65-9.43,33.93-1.53,5.31-3.42,10.53-5.17,15.78a22.5015,22.5015,0,0,1-1.23,2.96,2.0614,2.0614,0,0,1-1.03.9c-2.91,1.13-5.79,2.39-8.79,3.24-5.2,1.47-10.46,2.75-15.74,3.93a52.0148,52.0148,0,0,1-6.96.79c-4.03.35-8.07.64-12.11.96a61.9921,61.9921,0,0,1-13.25-1.48c-.74-.15-1.42-.39-.93-1.44a1.5694,1.5694,0,0,0-.05-1.22c-1.29-2.43-1.44-5.17-2-7.77-1.12-5.25-2-10.56-2.89-15.85-.87-5.19-1.71-10.38-2.42-15.58-.47-3.38-.7-6.78-1.02-10.18-.32-3.39-.6-6.79-.93-10.18-.11-1.05.23-1.41,1.31-1.34,4.12.28,8.25.49,12.38.73h.24c5.7.08,11.42.28,17.12.21,4.29-.05,8.6-.3,12.87-.73,5.54-.56,11.07-1.37,16.59-2.11a181.8535,181.8535,0,0,0,22.65-4.51c.65-.17,1.35-.13,1.99-.32C277.48,238.5318,277.38,239.0118,277.16,239.8618Z" style="fill:#008780"/><path d="M293.99,144.8318c-.42,3.31-.67,6.63-1.06,9.94-.43,3.61-.93,7.22-1.41,10.82-.49,3.73-.92,7.46-1.48,11.18-.51,3.36-1.13,6.7-1.75,10.04-.91,4.97-1.82,9.95-2.8,14.91-1.2,6.04-2.47,12.07-3.74,18.1-.97,4.6-2,9.18-2.98,13.78-.5,2.38-.73,2.62-3.04,3.09-5.41,1.11-10.81,2.32-16.24,3.31-4.35.8-8.75,1.38-13.13,1.99q-5.5948.78-11.19,1.41c-2.13.25-4.28.45-6.42.5-3.75.08-7.51.02-11.26.02-4.03,0-8.06.12-12.09-.03-4.6-.18-9.19-.6-13.78-.97-.24-.01-.62-.44-.65-.71-.21-2.01-.39-4.03-.5-6.05-.12-2.46-.16-4.94-.25-7.41-.15-4.06-.38-8.12-.45-12.18-.05-2.44.19-4.87.2-7.3.03-6.32-.02-12.64.02-18.96.04-7.63.14-15.25.24-22.87.04-3.19.13-6.39.24-9.58.14-4.5.29-9,.48-13.51.12-2.9.37-5.8.45-8.7.06-1.72,1.38-1.53,2.34-1.61,5.22-.47,10.45-.98,15.68-1.2,5.67-.25,11.34-.32,17.01-.24,4.49.06,9,.24,13.46.73,7.12.78,14.23,1.67,21.29,2.86,8.3,1.4,16.55,3.07,24.77,4.84,2.57.55,4.98,1.82,7.47,2.75C293.94,143.9718,294.07,144.2018,293.99,144.8318Z" style="fill:#008780"/><path d="M301.33,36.8318c-.22-4.25-.89-8.47-1.35-12.71-.09-.83-.2-1.66-.27-2.49a2.027,2.027,0,0,1,.1-.58c.17.14.41.23.51.4,1.21,2.2,2.38,4.41,3.61,6.6,1.27,2.27,1.12,4.83,1.42,7.27.46,3.76.73,7.54,1.07,11.31.22,2.42.53,4.84.62,7.26.29,8.06.63,16.13.69,24.19.02,4.06-.56,8.11-.83,12.17-.14,2.03-.21,4.06-.32,6.09-.07,1.24-.15,2.47-.26,3.7-.01.15-.18.28-.28.42a1.7587,1.7587,0,0,1-.27-.34c-1.22-2.5-2.37-5.04-3.68-7.49-1.54-2.88-1.23-5.89-.96-8.95.26-2.9.43-5.82.46-8.73.08-5.72.03-11.44.03-17.15Z" style="fill:#972a36"/><path d="M208.33,99.7918a140,140,0,0,0-4.19,20.05c-.47,3.34-.69,6.72-1,10.08-.05.53-.06.86-.76.93-3.28.3-6.57.67-9.85,1.03a3.9185,3.9185,0,0,0-.45.11c-.07-.19-.26-.42-.24-.63.9-7.94,1.65-15.91,2.76-23.82.99-7.08,2.38-14.11,3.59-21.16.04-.22.12-.43.18-.64a5.3242,5.3242,0,0,1,.48.47c3.09,4.13,6.19,8.26,9.26,12.42A1.5392,1.5392,0,0,1,208.33,99.7918Z" style="fill:#972a36"/><path d="M303.83,102.9718a6.6769,6.6769,0,0,1-1-.01c-2.55-.38-5.11-.77-7.67-1.15-2.91-.43-5.83-.84-8.74-1.25-3.86-.55-7.72-1.12-11.58-1.62-3.99-.52-7.98-1.05-11.98-1.44q-6.42-.63-12.86-.99c-5.51-.3-11.01-.55-16.52-.66-2.7-.06-5.41.26-8.12.41a4.0276,4.0276,0,0,1-.6.01c-4.32-.6-8.59.37-12.88.57a2.8745,2.8745,0,0,1-2.88-1.42c-2.53-3.47-5.11-6.9-7.67-10.35-.09-.13-.18-.26-.26-.39-.79-1.29-.78-1.36.76-1.39,2.99-.04,5.99-.01,8.91-.01,6.39.2,12.71.3,19,.64,5.89.33,11.76.92,17.64,1.4,5.16.41,10.35.64,15.49,1.27,5.48.67,10.92,1.66,16.36,2.61,5.96,1.05,11.89,2.25,17.84,3.29a3.6362,3.6362,0,0,1,3.08,2.24c1.06,2.44,2.28,4.81,3.42,7.22A5.6543,5.6543,0,0,1,303.83,102.9718Z" style="fill:#972a36"/><path d="M84.58,104.7018c0,.71-.06,1.13-.99,1.23-3.16.3-6.32.72-9.47,1.15q-5.37.72-10.73,1.54c-3.03.46-6.03,1.11-9.06,1.42a28.7635,28.7635,0,0,1-4.87-.37c-3.18-.24-6.36-.46-9.54-.68-4.73-.31-9.46-.72-14.2-.9-4.55-.16-9.11-.08-13.66-.1-.52-.01-1.04.06-1.55.03a6.4092,6.4092,0,0,1-1.05-.25,3.7844,3.7844,0,0,1,.98-.54c10.32-2.52,20.62-5.13,30.98-7.47,6.56-1.48,13.21-2.59,19.83-3.76,6.14-1.07,12.31-2,18.47-3,1.25-.2,2.52-.36,3.77-.61.65-.13.86.03.85.69-.03,1.24-.01,2.48-.01,3.72Z" style="fill:#972a36"/><path d="M53.98,120.9118c0-2.64.01-5.28-.01-7.91-.01-.77.26-1.17,1.07-1.28,4.64-.65,9.29-1.35,13.93-2.02,3.91-.56,7.81-1.13,11.72-1.65a30.0471,30.0471,0,0,1,3.68-.23,1.0446,1.0446,0,0,1,.75.69c.21,2.85.37,5.71.51,8.56.17,3.34.3,6.67.5,10,.1,1.7.28,3.39.46,5.08a1.806,1.806,0,0,1-1.75,2.13,26.7864,26.7864,0,0,1-3.1.13c-4.42-.19-8.73.64-13.06,1.23-4.14.56-8.26,1.27-12.4,1.86a1.1022,1.1022,0,0,1-.88-.58,56.778,56.778,0,0,1-1.26-7.16Z" style="fill:#0e6f5f"/><path d="M59.87,246.6218c-3.98,0-7.98.21-11.96-.05-5.07-.33-10.2-.32-15.18-1.62-.68-.18-1.39-.28-2.05-.52a1.2883,1.2883,0,0,1-.61-.72c-2.88-8.04-5.96-16.02-8.55-24.15-2.98-9.36-5.56-18.85-8.24-28.31-1.33-4.69-2.57-9.41-3.66-14.16-.85-3.71-1.46-7.48-2.09-11.24-.54-3.23-.97-6.47-1.42-9.71-.2-1.4-.4-2.81-.47-4.23a1.3762,1.3762,0,0,1,.69-1.11c2.39-.78,4.8-1.53,7.24-2.13,6.4-1.6,12.82-3.17,19.25-4.64q9.1349-2.1,18.33-3.95c4.36-.87,8.75-1.57,13.14-2.29q4.14-.69,8.31-1.17c2.2-.26,4.42-.36,6.63-.52,2.29-.16,4.59-.32,6.88-.42a.92.92,0,0,1,.7.59c.28,2.91.5,5.83.76,8.75.13,1.53.34,3.06.45,4.59.07,1.09-.03,2.18.02,3.27.14,2.78.26,5.55.5,8.32.24,2.83.61,5.65.91,8.48.26,2.43.46,4.88.76,7.31.38,3.13.81,6.25,1.27,9.37.51,3.42,1.06,6.84,1.61,10.26.62,3.85,1.22,7.7,1.91,11.53.75,4.18,1.51,8.36,2.42,12.51.97,4.45,2.12,8.87,3.2,13.3.8,3.28,1.58,6.57,2.43,9.84.2.76-.02.87-.7.91-3.84.22-7.68.48-11.52.71-4.07.25-8.15.53-12.23.71-4.69.21-9.39.32-14.08.5Z" style="fill:#43a592"/><path d="M189.27,263.1018c-4.52.69-9.02,1.57-13.57,2.11a266.2728,266.2728,0,0,1-36.6,1.42,115.6046,115.6046,0,0,1-26.61-3.54,1.55,1.55,0,0,1-.92-.87c-1.71-5.53-3.47-11.05-4.99-16.63-1.07-3.91-2.34-7.76-3.23-11.72-.89-4-1.92-7.98-2.72-12.01-1.84-9.26-3.57-18.55-5.39-27.81-.21-1.1.03-1.5,1.19-1.61,4.84-.46,9.66-1.03,14.5-1.51,5-.49,10-.98,15-1.36,4.5-.35,9-.6,13.5-.8,5.91-.26,11.82-.64,17.72-.59,8.47.08,16.93.53,25.39.79a25.5706,25.5706,0,0,0,3.71-.13c.96-.11,1.32.04,1.31,1.12-.06,4.72-.03,9.44-.03,14.16.01,7.11-.11,14.23.04,21.34.12,5.38.57,10.75.91,16.13q.45,7.275.99,14.53c.14,1.95.36,3.89.59,5.83C190.14,262.6118,190.04,262.9818,189.27,263.1018Z" style="fill:#e53c54"/><path d="M184.19,83.4118c3.47,0,6.95.03,10.42-.03,1-.01,1.3.16,1.1,1.24-1.22,6.83-2.45,13.65-3.52,20.5-.8,5.15-1.44,10.33-2,15.51q-.87,8.085-1.42,16.2c-.32,4.9-.44,9.81-.59,14.72q-.3,9.225-.48,18.45c-.1,5.16-.14,10.31-.15,15.47,0,.89-.27,1.02-1.1.96-2.3-.19-4.61-.34-6.93-.38-10.74-.19-21.49-.45-32.24-.44-4.89,0-9.79.57-14.68.88-2.91.18-5.81.29-8.72.52-3.13.24-6.26.55-9.39.86-3.29.33-6.58.67-9.86,1.05q-4.3351.495-8.64,1.12c-.98.14-1.4.03-1.52-1.12-.54-5.23-1.25-10.44-1.82-15.67-.48-4.43-.87-8.88-1.26-13.32-.42-4.69-.87-9.37-1.16-14.06-.23-3.54-.2-7.09-.37-10.63-.04-.9-.52-1.78-.62-2.69-.41-4.04-.76-8.09-1.13-12.14-.11-1.27-.25-2.54-.32-3.81-.17-3.31-.34-6.61-.47-9.91-.18-4.43-.3-8.86-.52-13.29-.05-1.18.29-1.52,1.5-1.64,4.83-.51,9.63-1.23,14.46-1.78,4.31-.49,8.64-.87,12.96-1.29q5.9552-.585,11.9-1.13,5.955-.54,11.91-1.04c4.41-.37,8.82-.79,13.23-1.11,4.22-.32,8.44-.55,12.66-.8q8.13-.48,16.25-.91" style="fill:#e53c54"/><path d="M299.35,65.0318c-.06,5.79-.25,11.58-.48,17.37-.1,2.33-.45,4.66-.73,6.99-.02.16-.47.43-.67.4-5.8-1.06-11.59-2.18-17.4-3.21-5.06-.89-10.11-1.87-15.21-2.49-5.18-.62-10.4-.84-15.61-1.27-4.33-.36-8.64-.85-12.98-1.15q-6.21-.435-12.43-.59c-7.67-.18-15.34-.28-23.01-.4-1.67-.03-1.64,0-1.43-1.58,1.29-9.68,3.25-19.24,5.42-28.76,2.57-11.31,5.34-22.57,8.14-33.83.84-3.36,2.06-6.62,3.07-9.94.22-.7.49-1.03,1.33-.95,3.96.41,7.93.71,11.9,1.12,3.88.39,7.75.84,11.63,1.31,4.5.55,9.02,1.04,13.5,1.75q11.2049,1.77,22.38,3.8c6.42,1.18,12.81,2.55,19.22,3.81a1.0838,1.0838,0,0,1,1.04,1.15c.43,4.24.95,8.47,1.38,12.71.34,3.41.59,6.83.96,11.26C299.37,49.3718,299.43,57.2018,299.35,65.0318Z" style="fill:#e53c54"/><path d="M87.41,55.9718c.17-4.06.45-8.13.89-12.17.59-5.54,1.34-11.06,2.1-16.59.57-4.09,1.26-8.17,1.94-12.25a1.274,1.274,0,0,1,.66-.88c5.09-1.19,10.15-2.51,15.29-3.41,6.89-1.21,13.83-2.18,20.77-3.04,5.42-.68,10.87-1.02,16.31-1.51,4.41-.39,8.81-.87,13.22-1.15,5.5-.34,11-.62,16.5-.74,5.88-.12,11.77-.15,17.64.01,6.18.17,12.36.58,18.53.93,2.21.12,2.21.19,1.62,2.38-2.58,9.63-5.35,19.21-7.71,28.89-2.03,8.37-3.68,16.83-5.37,25.28-1.17,5.88-2.14,11.81-3.15,17.73-.17,1.04-.67,1.35-1.66,1.37-4.31.08-8.63.17-12.94.35-6.02.25-12.03.56-18.05.89q-6.15.33-12.3.78c-4.33.33-8.65.72-12.98,1.1q-6.015.51-12.03,1.06-6.9.645-13.8,1.35c-4.12.41-8.25.82-12.36,1.28-4.2.48-8.39.99-12.57,1.57-.94.13-1.16-.06-1.15-.99.04-4.51.02-9.03.02-13.55Z" style="fill:#e53c54"/><path d="M89.3,16.1518c-.96,6.86-1.93,13.72-2.81,20.59-.55,4.23-.98,8.47-1.4,12.71-.17,1.62-.22,3.26-.28,4.9-.2,6.02-.44,12.05-.55,18.08-.09,5.27-.05,10.55-.01,15.82.01,1.06-.25,1.42-1.43,1.6-9.12,1.41-18.25,2.87-27.35,4.46-12.6,2.22-25.11,4.92-37.46,8.3-4.23,1.15-8.42,2.43-12.63,3.67-.55.17-.85.28-.88-.51-.11-2.75-.1962-5.4019-.1038-9.3575A102.1254,102.1254,0,0,1,5.32,83.7218c1.07-7.08,2.19-14.17,3.71-21.17,1.71-7.82,3.9-15.54,5.88-23.3a14.7687,14.7687,0,0,0,.58-2.19,2.8587,2.8587,0,0,1,2.38-2.58c7.88-2.47,15.69-5.16,23.64-7.4,11.59-3.27,23.26-6.26,34.92-9.28,3.93-1.02,7.94-1.75,11.9-2.64C89.25,14.9618,89.43,15.2618,89.3,16.1518Z" style="fill:#e53c54"/><path d="M261.62,377.2418c-2.0687-.4039-4.1445-.7756-6.204-1.222a6.3238,6.3238,0,0,1-3.8392-2.4845,2.3921,2.3921,0,0,1-.2188-2.7943,2.2792,2.2792,0,0,1,2.4574-1.3234c1.3443.1749,2.6735.4751,4.02.6186a42.3208,42.3208,0,0,0,7.7083.6181c3.1416-.25,5.3155-2.3524,6.8083-5.093a6.7515,6.7515,0,0,0,.3135-.7759c1.1743-2.9942.82-4.223-2.1619-5.5261a60.12,60.12,0,0,0-7.2455-2.3831c-3.1086-.9091-6.0348-2.0644-8.1695-4.6775-4.3907-5.3746-2.9263-12.5739,3.2753-15.6519a15.2562,15.2562,0,0,1,10.4468-1.5526,4.6817,4.6817,0,0,1,3.8236,4.8206,2.8561,2.8561,0,0,1-1.0718,1.837c-.319.2144-1.2129-.2036-1.72-.5339a6.7544,6.7544,0,0,0-5.0827-.7588,26.2814,26.2814,0,0,0-4.4858,1.235,4.2327,4.2327,0,0,0-2.9493,3.4795c-.2306,1.8344.9324,3.0732,2.28,4.0791,2.1059,1.5726,4.6879,1.9139,7.1156,2.6743a34.6321,34.6321,0,0,1,6.3406,2.4324c3.6473,2.0008,5.6935,5.2755,4.9615,9.8436-.877,5.4736-5.982,11.4888-11.2152,12.7536q-.7935.1917-1.5866.3852Z"/><path d="M197.8523,358.0171c.2145-6.0286.4062-12.058.6522-18.0853.1365-3.3445,1.3345-4.9014,4.5119-5.523a27.4387,27.4387,0,0,1,13.5017.2649c3.8669,1.1791,5.6843,3.96,6.4749,7.6918a7.4916,7.4916,0,0,1-2.7447,7.7933,1.198,1.198,0,0,0-.2392,1.0562c2.1421,6.2089,4.3786,12.3861,6.4424,18.6205a6.0764,6.0764,0,0,1-.1186,3.4814,1.9827,1.9827,0,0,1-3.5.8174,12.5159,12.5159,0,0,1-2.26-3.9873c-1.86-5.2548-3.5849-10.558-5.3242-15.855-.3033-.9239-.69-1.0492-1.635-.7836-2.334.6561-4.7125,1.166-7.0916,1.642a4.5424,4.5424,0,0,1-2.2453-.0744c-.9614-.3244-1.1443-.1125-1.1311.8333q.0972,7.0107.0957,14.0226c.0007,1.3139-.1035,2.63-.2161,3.9405a4.1836,4.1836,0,0,1-.3939,1.2486,2.4572,2.4572,0,0,1-2.6527,1.6051,2.2291,2.2291,0,0,1-1.7515-2.2865c-.12-1.793-.2191-3.59-.2364-5.3867-.0354-3.6768-.0106-7.3542-.0106-11.0314Zm5.2212-13.02h.1166c0,1.0769-.0158,2.1542.006,3.2306.0128.63.0857,1.2584.1316,1.8876.561-.1583,1.1206-.3219,1.6838-.472.1918-.0512.3953-.0574.5891-.1029,2.2447-.5266,4.5371-.9108,6.7168-1.6341a28.9043,28.9043,0,0,0,4.6788-2.3239,2.04,2.04,0,0,0,.9438-2.3643,3.72,3.72,0,0,0-3.19-3.1281c-3.7007-.91-7.4446-.6186-11.1776-.2376-.1927.02-.4659.5414-.4761.8373C203.0462,342.1244,203.0735,343.5613,203.0735,344.9974Z"/><path d="M136.82,361.3415c0,3.88.0364,7.76-.03,11.6379a4.5431,4.5431,0,0,1-.6724,2.346,1.8353,1.8353,0,0,1-3.3821-.4052,7.4684,7.4684,0,0,1-.4642-2.6863c.0631-7.995.175-15.99.28-23.9842q.07-5.2778.1705-10.555a2.36,2.36,0,0,1,.1078-1.0588,3.903,3.903,0,0,1,1.2381-1.5993,1.5944,1.5944,0,0,1,2.0491.8,21.6374,21.6374,0,0,1,1.8858,3.3193c2.0514,4.975,4.0322,9.9792,6.0146,14.9824.822,2.0746,1.5805,4.1742,2.3765,6.2592a4.5751,4.5751,0,0,0,.331.5932,3.0672,3.0672,0,0,0,.1518-.6149c.2537-6.6705.4818-13.342.7586-20.0116.0692-1.6679.25-3.3347.46-4.9918a1.6422,1.6422,0,0,1,1.513-1.5972,1.7638,1.7638,0,0,1,1.9668,1.4072,12.6642,12.6642,0,0,1,.5714,3.3975c.0573,4.3557.065,8.7136-.009,13.0689-.0925,5.4358-.2628,10.8707-.4488,16.3043a13.6186,13.6186,0,0,1-.4892,3.66,9.0009,9.0009,0,0,1-1.6839,2.8386c-.7254.8818-1.4441.81-2.0968-.1813a16.9866,16.9866,0,0,1-1.751-3.3006c-2.7363-7.2654-5.41-14.5541-8.1136-21.832a2.889,2.889,0,0,0-.37-.5573,3.8077,3.8077,0,0,0-.1112.6467q-.01,6.0575-.0049,12.1151Z"/><path d="M102.2522,347.8924c0,2.119.03,4.2387-.015,6.3567-.0171.8146.144,1.0467,1.0565,1.0074a36.6545,36.6545,0,0,1,5.1369.2006,2.7411,2.7411,0,0,1,2.4772,1.9473,2.85,2.85,0,0,1-2.1037,2.6155,5.13,5.13,0,0,1-1.6367.2592c-1.3977.0026-2.8-.0139-4.1919-.1246-.706-.0562-.7768.1862-.7541.79.114,3.0293.2142,6.06.2522,9.0907.01.8335.3385,1.0378,1.0766.96,2.1413-.2244,4.28-.5146,6.4283-.6218,3.6659-.1829,7.3378-.3275,11.0072-.3272,2.0146,0,3.0263,1.1272,2.8654,2.74a2.4368,2.4368,0,0,1-2.2372,2.2928c-2.295.2591-4.6146.2915-6.9164.5011-3.6444.3316-7.28.7567-10.9248,1.0874a23.0542,23.0542,0,0,1-3.9438.0781,2.176,2.176,0,0,1-1.8328-1.9822,27.1862,27.1862,0,0,1-.6778-5.0864c-.0175-10.5033.0511-21.0067.1226-31.51a3.95,3.95,0,0,1,.4643-1.9485,2.4086,2.4086,0,0,1,1.48-1.1761c4.3348-.2552,8.6763-.4759,13.0175-.5136a74.6172,74.6172,0,0,1,7.8587.4947,2.76,2.76,0,0,1,2.3445,1.8309c.7233,1.8607-.6148,3.6731-2.8194,3.6745-2.5956.0016-5.191-.1837-7.7871-.2041-2.8767-.0225-5.7542.077-8.6311.0654-.9455-.0038-1.213.3552-1.187,1.2671.0592,2.0768.0187,4.1565.0187,6.235Z"/><path d="M79.7849,339.8759c-2.5145,0-5.03.04-7.5431-.0176-1.1659-.0266-1.2281.577-1.1991,1.4881q.4327,13.5946.8095,27.1911a10.459,10.459,0,0,1-2.2822,7.3566c-.6309.7476-1.5477.692-1.8342-.2957a27.4276,27.4276,0,0,1-1.4237-6.1176c-.3206-6.5416-.38-13.096-.5353-19.6456-.0711-2.9944-.1627-5.9888-.1767-8.9835-.0037-.7925-.3881-.8057-.962-.8047-3.1982.0054-6.3982.0556-9.5935-.0426a20.941,20.941,0,0,1-3.9918-.6551,3.3685,3.3685,0,0,1-1.67-.8657,3.28,3.28,0,0,1-1.0111-1.9549c.0273-.9738,1.0145-1.2287,1.884-1.292,1.5133-.11,3.03-.21,4.5461-.2415,5.2707-.1085,10.5419-.2251,15.8134-.2638,5.51-.0405,11.0242-.0946,16.53.0769A15.5211,15.5211,0,0,1,91.8,336.1637c.81.3.6826,1.2261-.1267,1.7833a10.4475,10.4475,0,0,1-6.7353,1.9957c-1.712-.1031-3.4351-.02-5.1532-.02Z"/><path d="M165.0345,338.4141c-1.4776,0-2.96.0681-4.4311-.0279a6.7987,6.7987,0,0,1-2.2812-.6177,2.1934,2.1934,0,0,1-1.3131-2.4564,1.9258,1.9258,0,0,1,1.9735-1.751c5.0234-.1791,10.0492-.4369,15.0728-.4116,4.0277.02,8.0559.372,12.0783.6551a11.6605,11.6605,0,0,1,2.8814.7,2.0321,2.0321,0,0,1,1.4978,2.1994,2.09,2.09,0,0,1-1.7834,2.12,25.0766,25.0766,0,0,1-4.2823.19c-2.7913-.125-5.579-.3514-8.3637-.5892-1.0328-.0881-1.3231.1788-1.3207,1.2974.0132,6.2265-.0654,12.4537-.1675,18.68-.0432,2.6341-.2475,5.2652-.3294,7.8992-.0979,3.147-.4455,6.2206-2.5009,8.79a5.047,5.047,0,0,1-1.375.8679,5.1685,5.1685,0,0,1-.5564-1.422c-.6306-8.9058.361-17.7912.3685-26.69.0025-2.9565.0687-5.9131.0544-8.8694-.001-.2028-.4277-.57-.6663-.578-1.5171-.0532-3.037-.0271-4.5559-.0271Z"/><path d="M236.6306,364.167c.0853-9.3761.149-17.411.2447-25.4456a9.8011,9.8011,0,0,1,.339-2.7155c.4749-1.5559,1.8913-1.83,3.0769-.7137,1.3387,1.2608,1.3686,2.9637,1.387,4.5662.0806,7.03.0556,14.0621.0658,21.0934.0055,3.799.0565,7.5992-.0273,11.3964a6.9774,6.9774,0,0,1-.753,3.0538,1.8163,1.8163,0,0,1-3.2414.1168,6.3537,6.3537,0,0,1-1.0433-2.9823C236.5485,369.3037,236.6306,366.0623,236.6306,364.167Z"/></svg>