<svg version="1" xmlns="http://www.w3.org/2000/svg" width="300" height="700"><path d="M169 329l42 6-23-44z" fill="#FFF"/><path d="M188 291l-51-21 32 59zM274 283l-56-48-30 56z" fill="#FFF"/><path d="M188 291l-32-62-19 41zM211 335l63-52-86 8z" fill="#FFF"/><path d="M218 235l-62-6 32 62zM211 335l67 24-4-76z" fill="#FFF"/><path d="M253 391l25-32-67-24z" fill="#FDFDFF"/><path d="M206 418l47-27-42-56z" fill="#F8F9FF"/><path d="M169 329l37 89 5-83z" fill="#FDFDFF"/><path d="M169 424l37-6-37-89z" fill="#F6F8FF"/><path d="M102 393l67 31v-95z" fill="#F8F9FF"/><path d="M137 270l-55 85 87-26z" fill="#FFF"/><path d="M76 277l6 78 55-85zM274 283l16-65-72 17zM278 359l31-55-35-21z" fill="#FFF"/><path d="M82 355l20 38 67-64z" fill="#FDFDFF"/><path d="M77 238l-1 39 61-7zM347 249l-57-31-16 65zM218 235l-7-71-55 65z" fill="#FFF"/><path d="M156 229l-79 9 60 32z" fill="#FFF"/><path d="M253 391l57 14-32-46z" fill="#F7F9FF"/><path d="M278 359l53 8-22-63z" fill="#FFF"/><path d="M272 491l38-86-57-14z" fill="#EDF1FF"/><path d="M272 491l-19-100-47 27z" fill="#ECF1FF"/><path d="M310 405l21-38-53-8z" fill="#F9FAFF"/><path d="M309 304l38-55-73 34zM290 218l-15-26-57 43zM156 229l-77-72-2 81z" fill="#FFF"/><path d="M275 192l-64-28 7 71z" fill="#FFF"/><path d="M169 424l-1 48 38-54z" fill="#EBF0FF"/><path d="M95 480l73-8 1-48z" fill="#E6EDFF"/><path d="M82 355l-57 57 77-19z" fill="#F7F9FF"/><path d="M102 393l-7 87 74-56z" fill="#ECF1FF"/><path d="M76 277l-42 57 48 21z" fill="#FFF"/><path d="M31 289l3 45 42-57z" fill="#FFF"/><path d="M43 224l-12 65 45-12zM211 164l-42-13-13 78zM404 286l-57-37-38 55zM290 218l24-66-39 40z" fill="#FFF"/><path d="M168 472l40 19-2-73z" fill="#E6ECFF"/><path d="M77 238l-34-14 33 53z" fill="#FFF"/><path d="M39 191l4 33 34 14z" fill="#FFF"/><path d="M45 451l50 29 7-87z" fill="#EAEFFF"/><path d="M168 472l-18 53 58-34z" fill="#DDE7FF"/><path d="M208 491h64l-66-73z" fill="#E5EBFF"/><path d="M386 430l11-84-66 21z" fill="#F8FAFF"/><path d="M-15 366l40 46 9-78z" fill="#FBFBFF"/><path d="M34 334l-9 78 57-57z" fill="#FBFCFF"/><path d="M347 249l22-15-79-16z" fill="#FFF"/><path d="M404 286l-35-52-22 15zM169 151l-90 6 77 72zM79 157l-40 34 38 47zM-36 220l2 66 65 3z" fill="#FFF"/><path d="M25 412l20 39 57-58z" fill="#F0F3FF"/><path d="M211 164l-12-48-30 35zM169 151l-75-50-15 56z" fill="#FFF"/><path d="M251 105l-52 11 12 48zM251 105l-40 59 64 28zM369 234l-55-82-24 66zM331 367l66-21-88-42z" fill="#FFF"/><path d="M386 430l-55-63-21 38z" fill="#F4F6FF"/><path d="M272 491l77-32-39-54z" fill="#E8EEFF"/><path d="M208 491l62 19 2-19z" fill="#DDE6FF"/><path d="M228 538l42-28-62-19z" fill="#D9E4FF"/><path d="M352 535l-3-76-77 32zM95 480l55 45 18-53z" fill="#DEE7FF"/><path d="M72 551l78-26-55-45z" fill="#D8E3FF"/><path d="M-34 286l19 80 49-32z" fill="#FFF"/><path d="M-38 481l49 27 34-57z" fill="#E1E9FF"/><path d="M-34 286l68 48-3-45zM199 116l-34-11 4 46z" fill="#FFF"/><path d="M204 60l-39 45 34 11zM388 102l-67-11-7 61zM397 346l7-60-95 18zM314 152l-63-47 24 87z" fill="#FFF"/><path d="M352 535l28-51-31-25z" fill="#DEE7FF"/><path d="M150 525l78 13-20-47z" fill="#D8E3FF"/><path d="M349 459l37-29-76-25z" fill="#EDF1FF"/><path d="M-36 220l67 69 12-65zM165 105l-71-4 75 50zM79 157l-33-30-7 64z" fill="#FFF"/><path d="M39 191l-75 29 79 4zM105 55l-11 46 71 4zM94 101l-48 26 33 30z" fill="#FFF"/><path d="M-13 157l-23 63 75-29z" fill="#FFF"/><path d="M349 459l31 25 6-54z" fill="#E6EDFF"/><path d="M386 430l23 109-12-193z" fill="#EBF0FF"/><path d="M352 535l-80-44-2 19z" fill="#DAE4FF"/><path d="M-15 366l-34 35 74 11z" fill="#F6F7FF"/><path d="M11 508l61 43 23-71z" fill="#D9E4FF"/><path d="M-110 360l61 41 34-35z" fill="#F9FAFF"/><path d="M-110 360l95 6-19-80zM251 105l-47-45-5 56z" fill="#FFF"/><path d="M256 54l-52 6 47 45zM314 152l7-61-70 14zM402 151l-88 1 55 82zM46 127l-59 30 52 34z" fill="#FFF"/><path d="M-25 95l12 62 59-30z" fill="#FFF"/><path d="M11 508l84-28-50-29z" fill="#E1E9FF"/><path d="M192 592l78-15-42-39z" fill="#CCDAFF"/><path d="M-38 481l83-30-20-39z" fill="#E9EEFF"/><path d="M404 286l-2-135-33 83z" fill="#FFF"/><path d="M270 577v-67l-42 28zM270 577l82-42-82-25z" fill="#D3DFFF"/><path d="M310 57l-54-3-5 51z" fill="#FFF"/><path d="M192 592l36-54-78-13z" fill="#D1DDFF"/><path d="M135 595l57-3-42-67z" fill="#CCDAFF"/><path d="M94 101L17 63l29 64zM140 44l-35 11 60 50z" fill="#FFF"/><path d="M140 44l25 61 39-45z" fill="#FFF"/><path d="M201-15l-61 59 64 16z" fill="#FFF"/><path d="M-49 401l11 80 63-69z" fill="#EDF1FF"/><path d="M17 581l64 18-9-48z" fill="#CAD9FF"/><path d="M81 599l54-4-63-44z" fill="#C9D8FF"/><path d="M72 551l63 44 15-70z" fill="#CFDCFF"/><path d="M147-25L88 8l52 36zM321 91l-11-34-59 48z" fill="#FFF"/><path d="M397 51l-87 6 11 34zM-36 220l-48 12 50 54z" fill="#FFF"/><path d="M-49 401l-27 46 38 34z" fill="#EAEFFF"/><path d="M-93 164l9 68 48-12zM402 151l-14-49-74 50zM-84 232l-19 53 69 1z" fill="#FFF"/><path d="M-105 421l29 26 27-46z" fill="#EFF2FF"/><path d="M131 663l79-12-18-59z" fill="#BCD0FF"/><path d="M17 581l55-30-61-43z" fill="#D1DEFF"/><path d="M-33 538l44-30-49-27z" fill="#DAE4FF"/><path d="M-103 285l-7 75 76-74z" fill="#FFF"/><path d="M352 535l57 4-29-55z" fill="#D8E3FF"/><path d="M270 577l70 9 12-51z" fill="#CDDBFF"/><path d="M268 644l72-58-70-9z" fill="#C4D5FF"/><path d="M268 644l2-67-78 15z" fill="#C4D4FF"/><path d="M-13 157l-80 7 57 56zM105 55l-88 8 77 38z" fill="#FFF"/><path d="M88 8L17 63l88-8zM17 63l-42 32 71 32z" fill="#FFF"/><path d="M374 579l35-40-57-4z" fill="#D1DDFF"/><path d="M380 484l29 55-23-109z" fill="#E0E8FF"/><path d="M397 346l12 193-5-253z" fill="#F6F8FF"/><path d="M404 286l5 253-7-388z" fill="#FFF"/><path d="M-110 360l5 61 56-20z" fill="#F5F7FF"/><path d="M-74 519l41 19-5-57z" fill="#DAE4FF"/><path d="M-74 519l36-38-38-34z" fill="#E1E9FF"/><path d="M-33 538l50 43-6-73z" fill="#D3DFFF"/><path d="M340 586l34-7-22-44z" fill="#CDDBFF"/><path d="M-25 95l-68 69 80-7zM-84 232l-9-68-10 121zM-103 285l-3-182-4 257zM140 44L88 8l17 47zM17 63l-54-20 12 52zM201-15l3 75 52-6z" fill="#FFF"/><path d="M265-22l-64 7 55 69zM265-22l-9 76 54 3z" fill="#FFF"/><path d="M-33 538l-9 47 59-4z" fill="#CCDBFF"/><path d="M-105 421l31 98-2-72z" fill="#E5ECFF"/><path d="M131 663l61-71-57 3z" fill="#C0D3FF"/><path d="M340 586l55 43-21-50z" fill="#C5D5FF"/><path d="M110 647l25-52-54 4z" fill="#C1D3FF"/><path d="M388 102l9-51-76 40z" fill="#FFF"/><path d="M402 151l-5-100-9 51z" fill="#FFF"/><path d="M210 651l58-7-76-52z" fill="#BDD1FF"/><path d="M34 659l76-12-29-48z" fill="#BCD0FF"/><path d="M131 663l-21-16-7 44z" fill="#B4CBFF"/><path d="M201-15l-54-10-7 69z" fill="#FFF"/><path d="M201-15l9-40-63 30zM349-15l-84-7 45 79z" fill="#FFF"/><path d="M110 647l21 16 4-68z" fill="#BCD0FF"/><path d="M271 690l59-28-62-18z" fill="#B4CBFF"/><path d="M34 659l47-60-64-18z" fill="#C1D3FF"/><path d="M-74 519l32 66 9-47z" fill="#D1DEFF"/><path d="M-25 95l-81 8 13 61zM-15-11l-22 54 54 20zM34-5L17 63 88 8z" fill="#FFF"/><path d="M93-78L34-5 88 8zM-37 43l-69 60 81-8zM-93 164l-13-61 3 182zM386 3l-37-18-39 72zM397 51L386 3l-76 54z" fill="#FFF"/><path d="M271 690l-3-46-58 7z" fill="#B5CBFF"/><path d="M268 644l62 18 10-76z" fill="#BDD0FF"/><path d="M374 579l21 50 14-90z" fill="#C9D8FF"/><path d="M131 663l64 26 15-38z" fill="#B3CAFF"/><path d="M287-82l-77 27 55 33z" fill="#FFF"/><path d="M265-22l-55-33-9 40zM8-64l-23 53 49 6z" fill="#FFF"/><path d="M330 662l65-33-55-43z" fill="#BED1FF"/><path d="M131 663l31 34 33-8z" fill="#B0C8FF"/><path d="M-12 663l46-4-17-78z" fill="#BCD0FF"/><path d="M103 691l59 6-31-34z" fill="#AFC8FF"/><path d="M195 689l76 1-61-39z" fill="#B1C9FF"/><path d="M202 774l69-84-76-1z" fill="#ABC5FF"/><path d="M34 659l69 32 7-44z" fill="#B4CBFF"/><path d="M349-15l-28-33-56 26z" fill="#FFF"/><path d="M385-66l-64 18 28 33zM-37 43l-73-6 4 66zM34-5l-49-6 32 74zM93-78L88 8l59-33z" fill="#FFF"/><path d="M-42 585l30 78 29-82z" fill="#C2D4FF"/><path d="M-74 519l-16 71 48-5z" fill="#CDDBFF"/><path d="M-105 421l15 169 16-71z" fill="#DAE4FF"/><path d="M-109 642l97 21-30-78z" fill="#BDD1FF"/><path d="M34 659L7 729l96-38z" fill="#ADC6FF"/><path d="M210-55l-45-34-18 64z" fill="#FFF"/><path d="M287-82l-122-7 45 34zM165-89L93-78l54 53zM321-48l-34-34-22 60z" fill="#FFF"/><path d="M385-66l-98-16 34 34zM-87-8l-23 45 73 6zM-106 103l-4-66v323z" fill="#FFF"/><path d="M-87-8l50 51 22-54zM93-78L8-64 34-5z" fill="#FFF"/><path d="M271 690l80 21-21-49z" fill="#AEC7FF"/><path d="M330 662l21 49 44-82z" fill="#B4CBFF"/><path d="M338 748l13-37-80-21z" fill="#ABC5FF"/><path d="M-45-68L-87-8l72-3zM386 3l-1-69-36 51z" fill="#FFF"/><path d="M397 51L385-66l1 69z" fill="#FFF"/><path d="M-90 590l-19 52 67-57z" fill="#C3D4FF"/><path d="M67 780l100-14-64-75z" fill="#ABC5FF"/><path d="M-105 421l-4 221 19-52z" fill="#D1DDFF"/><path d="M-110 360l1 282 4-221z" fill="#E3EAFF"/><path d="M162 697l5 69 28-77z" fill="#ABC5FF"/><path d="M103 691l64 75-5-69z" fill="#ABC5FF"/><path d="M7 729l27-70-46 4z" fill="#AFC8FF"/><path d="M-37 708l44 21-19-66z" fill="#ABC5FF"/><path d="M-74-87L8-64l85-14z" fill="#FFF"/><path d="M-74-87l29 19 53 4z" fill="#FFF"/><path d="M8-64l-53-4 30 57z" fill="#FFF"/><path d="M-109 642l72 66 25-45z" fill="#B3CAFF"/><path d="M351 711l27 20 17-102z" fill="#AEC7FF"/><path d="M338 748l40-17-27-20zM289 777l49-29-67-58zM167 766l35 8-7-85z" fill="#ABC5FF"/><path d="M202 774l87 3-18-87zM338 748l50 16-10-33zM167 766L67 780l135-6z" fill="#ABC5FF"/><path d="M202 774L48 786l241-9zM7 729l60 51 36-89z" fill="#ABC5FF"/><path d="M48 786l19-6-60-51z" fill="#ABC5FF"/><path d="M-45-68l-29-19-13 79z" fill="#FFF"/><path d="M-87-8l13-79-36 124zM165-89l-239 2 167 9z" fill="#FFF"/><path d="M-36 768l84 18-41-57z" fill="#ABC5FF"/><path d="M-109 642l8 61 64 5z" fill="#AFC8FF"/><path d="M289 777l99-13-50-16zM378 731l10 33 7-135z" fill="#ABC5FF"/><path d="M395 629l-7 135 21-225z" fill="#BACEFF"/><path d="M67 780l-19 6 154-12zM-36 768l43-39-44-21z" fill="#ABC5FF"/><path d="M-101 703l65 65-1-60zM-101 703l15 89 50-24z" fill="#ABC5FF"/><path d="M-36 768l-50 24 134-6z" fill="#ABC5FF"/><path d="M48 786l-134 6 375-15z" fill="#ABC5FF"/></svg>