<?xml version="1.0" encoding="utf-8"?>
<!-- Generator: Adobe Illustrator 22.1.0, SVG Export Plug-In . SVG Version: 6.00 Build 0)  -->
<svg version="1.1" id="Layer_1" xmlns="http://www.w3.org/2000/svg" xmlns:xlink="http://www.w3.org/1999/xlink" x="0px" y="0px"
	 viewBox="0 0 1920 763" style="enable-background:new 0 0 1920 763;" xml:space="preserve">
<style type="text/css">
	.st0{fill:#3A78B8;}
</style>
<path class="st0" d="M347,368.8c-10.2,0.3-20.9-2.9-31-8.7c-12.2-7.1-24.4-14.1-36.6-21.1c-22.7-13-45.4-26-68.1-39.1
	c-16.5-9.5-32.9-18.9-49.4-28.4c-16.6-9.5-33.2-19-49.8-28.5c-16.8-9.7-33.7-19.3-50.5-29.1c-1.8-1.1-3.5-2.5-5.1-3.9
	c-6.1-5.5-6.3-15.4-1.4-21.6c2.3-3,5.2-5.4,8.5-7.2c6.4-3.6,12.7-7.3,19.1-10.9c16.5-9.4,32.9-18.9,49.4-28.3
	c18.7-10.7,37.4-21.5,56.1-32.2c18.3-10.5,36.6-21.1,55-31.6c18.3-10.5,36.7-21,55-31.6c8.1-4.7,16.2-9.3,24.3-14
	c3.9-2.3,8.1-3.5,12.6-4.3c7.3-1.3,14.6-1.2,21.9-0.6c6.9,0.5,13.5,2.4,19.6,6c30.5,17.9,61.1,35.6,91.7,53.4
	c21.6,12.6,43.2,25.2,64.8,37.8c29.2,17,58.4,34,87.6,50.9c3.6,2.1,7.2,4.2,10.8,6.3c3.5,2,6.6,4.7,9.2,7.8c4.2,5,4.5,10.4,1,15.9
	c-2.4,3.9-5.8,6.7-9.7,9c-8.7,5.1-17.4,10.1-26.1,15.2c-28,16.3-55.9,32.5-83.9,48.8c-29.2,17-58.5,33.9-87.7,50.9
	c-17.4,10.1-34.8,20.2-52.2,30.4c-6.5,3.8-13.6,6.2-20.9,7.8C357.1,368.7,352.8,368.8,347,368.8z M338.9,276.4
	c2.2-0.1,4.3-0.2,6.5-0.4c10.5-0.7,20.4-3.3,29.2-9.3c4.5-3.1,7.4-7.1,8.9-12.3c0.9-3,0.9-5.9-0.1-8.9c-0.8-2.6-1.8-5.2-3.5-7.4
	c-1.1-1.4-1.1-2.9-0.1-4.4c0.4-0.6,0.7-1.2,1.2-1.8c4.8-5.7,10.3-10.4,17.1-13.6c5.3-2.5,10.9-4.4,16.6-5.9c4.5-1.2,9-1.7,13.6-0.3
	c5.3,1.5,10.8,2.1,16.2,2.1c6.3,0,12.6-0.3,18.8-1.7c6.5-1.5,12.5-4.2,18-8c3-2.1,5.4-4.9,6.9-8.1c1.6-3.3,2.2-6.7,1.5-10.5
	c-1.3-6.3-4.9-11.1-9.8-14.8c-4.8-3.6-10.1-6.6-15.8-8.6c-10.1-3.7-20.6-5-31.4-4.6c-11,0.4-21.3,2.9-30.5,9.2c-2,1.3-4.1,2-6.4,2.1
	c-8.4,0.4-16.6-0.7-25-1c-0.1,0-0.3,0-0.4-0.1c-10.7-1.5-21-4.6-31-8.9c-2.1-0.9-3.6-2.2-4.5-4.4c-2.2-5.9-6.5-10.1-11.6-13.5
	c-4.4-3-9.3-5.2-14.3-6.9c-10.4-3.4-21-4.5-31.9-4.1c-11.2,0.5-21.5,3.7-30.7,10.1c-6.6,4.6-12.1,15.1-5.1,25.4
	c2.9,4.3,6.6,8,11.1,10.7c9.1,5.6,19.2,8.3,29.7,9.6c3,0.4,5.5,1.4,7.8,3.2c3.8,2.9,7,6.3,10.1,10c4.8,5.8,5.9,12.6,5.8,19.8
	c0,0.3-0.1,0.6-0.1,0.9c-0.3,1.8-1,3.2-2.9,4c-1.4,0.6-2.8,1.5-4.2,2.2c-4.1,2-7.4,5-10,8.7c-3,4.2-4.1,8.8-2.9,13.9
	c0.9,3.7,2.6,7,5.1,9.8c6.2,7,14.2,11.2,22.9,13.9C322,274.9,330.3,276.5,338.9,276.4z"/>
<path class="st0" d="M779.6,410c0-43.2,0-86.3,0-129.5c0-2.7,0.1-5.4,0.6-8.1c1-5.7,4-10.1,8.5-13.6c3.3-2.6,6.9-4.8,10.9-6.1
	c5.3-1.8,10.6-3.5,16-5c10.1-2.8,20.5-4.6,30.9-5.9c4.1-0.5,8.3-0.8,12.4-1.1c6.2-0.5,12.3-1.1,18.5-1.5c5.9-0.3,11.8-0.4,17.7-0.4
	c8.9,0,17.8,0,26.8,0.3c5.4,0.2,10.9,0.9,16.3,1.5c6.4,0.8,12.8,1.6,19.2,2.8c18.8,3.5,36.8,9,53.9,17.8c23.6,12.1,42.7,29,57,51.3
	c11,17.3,18.2,36.1,22.3,56.2c1.5,7.3,2.5,14.7,3.3,22.2c0.7,6.1,0.7,12.3,1,18.5c0.1,1.9,0,3.7,0,5.6c0.2,10.2-0.5,20.4-1.5,30.6
	c-1,8.9-2.4,17.7-4.5,26.3c-5.5,22.2-14.9,42.5-29.1,60.6c-9,11.5-19.6,21.4-31.6,29.7c-17.8,12.4-37.6,20.5-58.5,25.6
	c-10.6,2.6-21.4,4.3-32.3,5.5c-14.5,1.6-29,1.8-43.5,1.4c-8.5-0.2-17-0.8-25.4-1.7c-15.3-1.7-30.5-3.7-45.4-7.7
	c-7.7-2-15.1-4.7-22.1-8.5c-7.6-4.2-13.7-10-17.5-17.9c-2.4-5-3.4-10.3-3.7-15.8c-0.1-1.7,0-3.5,0-5.2
	C779.6,495.1,779.6,452.6,779.6,410z M875.6,319c-0.1,2.4-0.1,4.4-0.1,6.4c0,60.7,0,121.4,0,182.1c0,1.2,0,2.3,0,3.5
	c0.1,1,0.3,2,0.4,3.2c1.4,0.4,2.8,0.9,4.2,1.1c3.1,0.4,6.3,0.9,9.4,1.1c6,0.5,12,1,18.1,1.2c2.9,0.1,5.7-0.4,8.6-0.5
	c8.5-0.3,16.9-1.9,24.9-4.6c18.8-6.1,32.9-17.8,42.1-35.4c7.5-14.3,11-29.6,11.9-45.5c0.6-11,0.7-22.1-0.5-33.2
	c-1.4-12.4-4-24.4-9.1-35.8c-6.3-14.2-16-25.5-29.1-33.9c-13.3-8.5-28.1-12.2-43.7-12.7c-8-0.3-16.1-0.2-24.1,0.8
	c-3.3,0.4-6.6,0.6-9.9,1.1C877.8,317.9,876.9,318.5,875.6,319z"/>
<path class="st0" d="M31.8,397.2c0-44.1,0-88.3,0-132.4c0-1.9,0-3.7,0.1-5.6c0.2-3.2,1.3-6.2,3-8.9c3.5-5.4,8.6-6.9,14.6-5.8
	c3.4,0.6,6.6,1.8,9.6,3.6c11.4,6.7,22.8,13.4,34.2,20c15.4,9,30.9,17.9,46.3,26.8c19.8,11.4,39.6,22.9,59.4,34.3
	c17,9.9,34.1,19.7,51.1,29.6c16.6,9.6,33.1,19.1,49.7,28.6c9,5.2,16.7,11.8,22.8,20.1c4.6,6.2,7.3,13.3,8.9,20.9
	c1,4.5,1.1,9.1,1.1,13.7c0,11.4,0,22.7,0,34.1c0,75.6,0,151.3,0,226.9c0,2.2,0,4.3-0.1,6.5c-0.4,6-3.9,10.1-8.8,13
	c-1,0.6-2.5,0.8-3.7,0.9c-4.9,0.3-9.4-1.1-13.7-3.3c-3.5-1.7-6.8-3.7-10.2-5.7c-26.6-15.4-53.2-30.9-79.8-46.3
	c-27.1-15.8-54.2-31.5-81.3-47.3c-20.8-12.1-41.5-24.1-62.3-36.1c-5.7-3.3-11.4-6.7-17.2-10c-3.3-1.9-6.1-4.3-8.5-7.2
	c-6.3-7.6-11.1-16.1-14.1-25.5c-1-3.2-1.4-6.4-1.4-9.8c0-5.5,0-10.9,0-16.4C31.8,476.3,31.8,436.7,31.8,397.2z M117.7,452.1
	C117.7,452.1,117.7,452.1,117.7,452.1c0,20.3,0,40.6,0,60.8c0,7.4,3.2,13,9.6,16.7c10.2,6,20.4,11.9,30.6,17.8
	c17.7,10.3,35.3,20.5,53,30.8c9.8,5.7,19.6,11.4,29.5,17.1c1.4,0.8,2.8,1.5,4.3,1.9c3.1,0.8,5.4-0.5,6.3-3.6
	c0.4-1.3,0.4-2.8,0.4-4.3c0.1-22.7,0.1-45.4,0.5-68.2c0.3-17.7,0.1-35.4,0.2-53.1c0-5.1-1.6-9.6-4.7-13.6c-1.9-2.5-4.6-3.9-7.2-5.4
	c-17.3-10-34.6-20-51.9-30c-20-11.6-40-23.2-60.1-34.9c-0.9-0.5-1.8-1-2.7-1.4c-3.7-1.4-7.1,0.6-7.7,4.5c-0.2,1.4-0.1,2.9-0.1,4.3
	C117.7,411.8,117.7,432,117.7,452.1z M145.7,385.7c0.4-1.5,0.9-2.4,0.9-3.4c0.1-6.6,0.3-13.2-0.1-19.8c-0.4-5.8-3.4-10.6-8.2-14
	c-1.6-1.1-3.3-1.7-5.2-1.6c-2.1,0.1-3.5,1.1-4.4,2.9c-0.3,0.8-0.5,1.6-0.6,2.5c-0.9,6.7-0.6,13.4-0.4,20.2c0.1,2.3,1.1,4,3.2,5.2
	c3.8,2.1,7.4,4.3,11.2,6.4C143,384.7,144.1,385,145.7,385.7z M129.1,541c-0.3,1.5-0.7,2.5-0.7,3.4c0,6-0.1,12,0,18
	c0.1,4.6,1.9,8.6,4.8,12.1c1.6,1.9,3.5,3.4,5.8,4.3c4.1,1.6,7.5-1,7.9-4.7c0.7-6.7,0.5-13.4,0.4-20.2c0-2.3-1-4.1-3.1-5.2
	c-4.1-2.3-8.2-4.8-12.3-7.1C131.3,541.4,130.4,541.4,129.1,541z M237.8,439c0.3-1.1,0.5-1.7,0.6-2.2c0.2-2.9,0.4-5.7,0.5-8.6
	c0.1-4.7,0.4-9.5-0.5-14.2c-1-5.2-3.7-9.3-8.2-12.1c-1.2-0.7-2.6-1.2-4-1.4c-3-0.4-5,1.1-5.7,4c-0.3,1.4-0.6,2.8-0.6,4.2
	c-0.1,5.6,0,11.2-0.1,16.8c0,2.5,1,4.3,3.3,5.6c3.8,2.1,7.4,4.3,11.2,6.4C235.2,438.2,236.3,438.4,237.8,439z M259.4,484.6
	c0,0-0.1,0-0.1,0c0,1.9,0.1,3.7,0,5.6c-0.2,2.8,0.9,4.6,3.3,5.9c5.9,3.3,11.7,6.8,17.6,10.1c1.1,0.6,2.4,1,3.6,1.2
	c2.9,0.4,5-1.1,5.9-3.9c0.5-1.6,0.4-3.1,0-4.7c-1.3-5.5-4.3-9.7-9-12.6c-3.8-2.4-7.7-4.5-11.5-6.7c-2.2-1.3-4.5-2.6-6.7-3.8
	c-1.7-0.9-2.9-0.3-3,1.6C259.3,479.7,259.4,482.1,259.4,484.6z M208.1,408.7C208.1,408.7,208.1,408.7,208.1,408.7
	c0-3.2,0.1-6.3,0-9.5c-0.3-6.1-2.9-11-7.8-14.7c-1.1-0.8-2.5-1.5-3.8-1.9c-2.8-0.8-5.2,0.4-6.3,3.1c-0.4,0.9-0.7,1.9-0.7,2.9
	c-0.1,6.7,0,13.5-0.1,20.2c0,1.7,0.7,3,2.2,3.9c4.5,2.6,8.9,5.2,13.4,7.7c1.8,1,2.8,0.4,3-1.5c0.1-0.9,0.1-1.7,0.1-2.6
	C208.1,413.9,208.1,411.3,208.1,408.7z M177.1,390.8c0-3.3,0.1-6.6,0-9.9c-0.2-6.2-3.2-11-8.1-14.4c-5.5-3.9-10.3-1.4-10.5,5.3
	c-0.2,6.2,0,12.3-0.1,18.5c0,2.4,1,4,3.1,5.2c4,2.2,7.9,4.6,11.9,6.9c0.5,0.3,1,0.5,1.6,0.7c0.9,0.3,1.8-0.2,1.9-1.1
	c0.1-0.7,0.2-1.4,0.2-2.1C177.1,396.8,177.1,393.8,177.1,390.8z M259.8,575.2c-0.3,1.1-0.6,1.6-0.6,2.2c-0.1,4.7-0.3,9.5-0.3,14.2
	c0,2.1,1.3,3.4,3,4.4c5.6,3.2,11.2,6.5,16.8,9.7c1.1,0.6,2.3,1.3,3.5,1.6c4,1.1,7-1,7.2-5.1c0.1-1.5-0.1-3.2-0.5-4.7
	c-1.4-5.1-4.5-8.9-9.1-11.5c-5.6-3.3-11.2-6.5-16.8-9.7C262.1,575.9,261.1,575.7,259.8,575.2z M289.8,534.9c0-0.6,0-0.8-0.1-1.1
	c-0.9-5.8-3.6-10.6-8.7-13.7c-5.8-3.5-11.7-6.8-17.5-10.2c-0.5-0.3-1-0.6-1.5-0.8c-1.5-0.7-2.7-0.2-2.7,1.5c-0.1,5-0.1,10-0.1,15.1
	c0,1.2,0.5,2.2,1.6,2.9c0.5,0.3,0.9,0.7,1.4,0.9c5.8,3.4,11.6,6.8,17.5,10.1c1.1,0.6,2.4,1.1,3.6,1.3c2.9,0.5,5-0.9,5.9-3.7
	C289.6,536.4,289.7,535.5,289.8,534.9z M159.7,558.6c-0.3,1.8-0.5,2.9-0.5,4c0,5.9,0,11.8,0,17.7c0,6,2.7,10.7,7.2,14.6
	c0.9,0.7,1.9,1.3,2.9,1.8c4.2,1.7,7.5-0.1,8.3-4.5c0.1-0.7,0.2-1.4,0.2-2.1c0-6,0-12.1,0-18.1c0-2.4-0.9-4-3.1-5.2
	c-3.8-2.1-7.5-4.3-11.2-6.4C162.5,559.6,161.4,559.3,159.7,558.6z M208.2,598.8c0-3.3,0-6.6,0-9.9c0-1.7-0.6-3.1-2.1-3.9
	c-4.4-2.5-8.7-5.1-13.1-7.5c-2.2-1.2-3.1-0.5-3.4,1.9c0,0.3-0.1,0.6-0.1,0.9c0,6-0.2,12.1,0,18.1c0.2,5.6,2.7,10.2,6.9,13.9
	c1.4,1.3,3.1,2.2,4.9,2.6c2.9,0.7,5.6-0.8,6.4-3.6c0.3-0.9,0.3-2,0.4-3C208.2,605.1,208.2,601.9,208.2,598.8z M221,594.6
	c-0.2,1.2-0.5,2.1-0.5,3.1c0,6.5-0.3,12.9,0,19.4c0.3,6.3,3.6,11,8.9,14.4c0.7,0.5,1.6,0.8,2.4,1c3.5,0.8,5.9-0.6,6.9-4.1
	c0.3-1,0.5-2,0.5-3c0.1-6,0-12.1,0.1-18.1c0-2.2-0.9-3.8-2.8-4.9c-4.2-2.4-8.4-4.9-12.7-7.3C222.9,594.7,222,594.8,221,594.6z
	 M108.4,406.7c0.2-1.3,0.5-2.2,0.5-3.2c0.1-4.2-0.1-8.3,0.1-12.5c0.1-2.3-0.8-3.8-2.7-4.9c-6-3.4-11.9-6.9-17.9-10.3
	c-1.1-0.6-2.4-1.1-3.6-1.2c-3.1-0.4-5.3,1.2-5.9,4.3c-0.4,2-0.2,4,0.5,5.9c1.4,4.2,3.7,7.8,7.5,10.2c6.1,3.8,12.3,7.4,18.6,10.9
	C106.2,406.3,107.2,406.4,108.4,406.7z M259.2,551.8C259.2,551.8,259.2,551.8,259.2,551.8c-0.1,1.9,0.1,3.7-0.1,5.6
	c-0.2,2.6,0.8,4.3,3.1,5.5c5.4,3,10.7,6.2,16,9.2c1.1,0.6,2.3,1.2,3.5,1.7c3.8,1.4,6.8-0.4,7.7-4.4c0.4-2,0-4-0.6-5.9
	c-1.6-4.5-4.3-8.1-8.5-10.5c-4.6-2.6-9.2-5.3-13.8-8c-1.4-0.8-2.7-1.6-4.1-2.3c-2-1-3.1-0.5-3.2,1.7
	C259.2,547,259.2,549.4,259.2,551.8z M108.9,464.3C108.9,464.3,108.9,464.3,108.9,464.3c0-2.2,0-4.3,0.1-6.5
	c0.1-2.2-0.6-3.8-2.7-4.9c-5.8-3.2-11.4-6.6-17.1-9.9c-1.1-0.6-2.3-1.1-3.6-1.5c-3.4-0.9-6.4,1-6.8,4.6c-0.2,1.8,0,3.8,0.5,5.5
	c1.4,4.7,4.2,8.4,8.5,10.9c5.4,3.1,10.7,6.2,16,9.3c0.6,0.4,1.2,0.7,1.9,1c2.1,1,3,0.5,3.1-1.7C109,468.9,108.9,466.6,108.9,464.3z
	 M108.5,439.6c0.1-0.7,0.4-1.5,0.4-2.3c0-4.3-0.1-8.6,0.1-12.9c0.1-2.3-0.8-3.9-2.8-4.9c-0.4-0.2-0.7-0.5-1.1-0.7
	c-5.3-3.1-10.7-6.2-16-9.3c-1.1-0.6-2.4-1-3.6-1.5c-3.1-1.2-6.3,1.3-6.7,4.3c-0.1,0.8-0.2,1.7-0.1,2.6c0.4,5.5,3.1,9.8,7.4,13
	c1.6,1.2,3.4,2.1,5.1,3.1c4.3,2.5,8.7,5.1,13,7.6C105.5,439.3,106.7,440.4,108.5,439.6z M108.9,497.5
	C108.9,497.5,108.9,497.5,108.9,497.5c0-2.2,0-4.3,0.1-6.5c0.1-2.1-0.8-3.5-2.6-4.5c-6.1-3.5-12.1-7.1-18.2-10.6
	c-1.2-0.7-2.7-1-4.1-1.1c-2.9-0.2-4.9,1.6-5.3,4.5c-0.3,2.2-0.1,4.3,0.7,6.3c1.8,4.6,4.7,8.2,8.9,10.7c4.1,2.4,8.2,4.7,12.3,7.1
	c1.7,1,3.4,2.1,5.2,2.9c1.8,0.9,2.8,0.4,2.9-1.6C109,502.4,108.9,499.9,108.9,497.5z"/>
<path class="st0" d="M666.6,395.9c0,43.1,0,86.3,0,129.4c0,4.1-0.4,8.3-1.1,12.4c-0.8,5.4-2.7,10.6-5.7,15.3
	c-2.2,3.5-4.5,7-6.8,10.5c-1.8,2.7-4.2,4.6-7,6.3c-16.1,9.4-32.2,19-48.3,28.4c-23.8,14-47.5,28.1-71.3,42.1
	c-31.3,18.5-62.7,36.9-94.1,55.4c-12,7.1-24,14.2-36.1,21.2c-3.7,2.2-7.8,3.7-11.9,4.9c-2.4,0.7-4.8,0.8-7.3,0.7
	c-3.9-0.1-6.9-1.9-9.1-5c-3-4.3-4.2-9.1-4.4-14.2c-0.2-5-0.1-10.1-0.1-15.1c0-24.6,0.1-49.2,0.1-73.8c0-6.5-0.2-13,0-19.4
	c0.8-21.4,0.3-42.8,0.7-64.3c0-1,0-2,0-3c0-28.8,0.2-57.5,0-86.3c-0.1-9.5,2.3-18.2,6.5-26.5c2.8-5.5,6.4-10.6,10.3-15.4
	c3-3.6,6.6-6.4,10.6-8.7c26.7-15.3,53.3-30.7,80-46.1c33.1-19.1,66.2-38.3,99.4-57.4c22.2-12.8,44.4-25.5,66.6-38.2
	c2.6-1.5,5.4-2.7,8.2-3.9c2.3-1,4.7-1.2,7.2-1.2c3.2,0,5.9,1.2,8.1,3.5c2.4,2.4,3.9,5.4,4.5,8.7c0.6,3.4,1,6.8,1,10.3
	C666.6,309.6,666.6,352.8,666.6,395.9z M562.2,545.8c0.8-0.8,1.3-1.3,1.8-1.7c8-7,14.6-15,20.2-24c4-6.3,7.8-12.7,11.6-19.2
	c4.1-7,7.1-14.5,8.2-22.5c0.6-4.4,1.4-8.8,0.4-13.3c-0.6-2.6-0.1-5,1.1-7.5c4-8.3,6-17.1,5.3-26.3c-0.2-3.6-0.6-7.2-1.2-10.7
	c-0.4-2.6-0.5-5.1,0-7.7c0.1-0.7,0.3-1.4,0.3-2.1c0.4-5,0.8-10-0.6-15c-1-3.6-2.7-6.8-6.1-8.6c-2.7-1.4-4.2-3.4-5.1-6.1
	c-0.3-0.8-0.6-1.6-1-2.4c-2.6-4.3-6-7.3-11.2-7.8c-1.1-0.1-2.3-0.2-3.4-0.3c-1.2-1.3-2.3-2.7-3.5-3.9c-4.4-4.2-9.5-5.9-15.4-3.3
	c-2.6,1.2-4.9,0.9-7.4-0.4c-1.8-0.9-3.7-1.6-5.7-2c-8.2-1.6-15.7,0.7-22.4,5.4c-3.3,2.3-6.2,5.1-9,8c-1.9,1.9-4,3.2-6.6,3.9
	c-5.1,1.4-9.5,4-13.4,7.6c-2.9,2.7-5.3,6.1-9.2,7.6c-0.1,0-0.2,0.2-0.3,0.3c-3.9,2.6-6.8,6.2-9.4,10c-1.5,2.2-3.2,4-5.5,5.4
	c-1.2,0.7-2.3,1.7-3.4,2.7c-3.6,3.2-6.3,7.1-8.6,11.3c-1.9,3.6-4.4,6.7-7.1,9.7c-6.5,7.4-11.9,15.5-15.6,24.7
	c-2.4,5.9-4.3,11.9-5.9,18c-0.8,2.9-1.7,5.8-3.2,8.4c-0.7,1.2-1.3,2.5-2,3.8c-5.7,10.9-7.6,22.6-6.3,34.7c0.5,4.6,0.9,9.2,0.7,13.8
	c-0.2,4.9,0.7,9.7,1.7,14.5c0.7,3,1.9,5.7,3.8,8.1c2.9,3.5,6.5,5.1,11.1,4.2c3.7-0.7,7.3-1.7,10.5-3.7c2.3-1.4,4.6-2.2,7.3-2
	c1,0.1,2-0.1,3-0.4c4.8-1.5,9.5-3.4,13.5-6.6c0.9-0.7,1.8-1.5,2.7-2.1c1.1-0.8,2.3-1.1,3.7-0.8c3.8,1,7.7,0.8,11.6,0.5
	c1.1-0.1,2.2,0,3.4,0c0.4,1.3,0.8,2.4,1.1,3.5c1.1,3.9,2.1,7.8,3.2,11.6c1.2,3.9,2.6,7.6,4.9,11c2.2,3.3,5.3,5.3,9,6.3
	c1.5,0.4,3.1,0.4,4.7,0.6c3.4,0.2,6.5,1.4,8.8,4c1.3,1.5,2.6,3,3.9,4.6c2.5,3.2,4.8,4,8.7,2.9c4.4-1.2,8-3.8,11.3-6.8
	c5.1-4.7,9.1-10.3,12.6-16.3c2.6-4.4,2.8-9,1.6-13.7c-0.5-2.1-1.4-4.1-2.1-6.1C563.2,548.2,562.7,547.1,562.2,545.8z"/>
<path class="st0" d="M1642.7,417.5c0-39.6,0-79.1,0-118.7c0-6.2,0.7-12.4,2.6-18.3c5.5-17.1,17.3-27.4,34.7-31.3
	c5-1.1,10-1.1,15-1.1c51.8,0,103.6,0,155.3,0c7.3,0,14.7,0,22,0c1,0,2,0.1,3,0c2.3-0.1,3.8,0.9,4.7,3c2.6,5.5,4.8,11.1,6.1,17
	c1.9,8.6,2.4,17.3,1.2,26.1c-0.6,4.6-1.6,9-3.5,13.3c-2.1,4.6-5.5,8.1-9.7,10.7c-4.8,2.9-9.9,4.5-15.5,4.6c-1.9,0-3.7,0-5.6,0
	c-36.4,0-72.8,0-109.2,0c-1.6,0-3.2,0-4.7,0.1c-1.8,0.2-2.6,1-2.8,2.7c-0.1,1.1-0.1,2.3-0.1,3.4c0,13.8,0,27.6,0,41.4c0,1,0,2,0.1,3
	c0.2,2.2,1,3,3.3,3.2c1.6,0.1,3.2,0.1,4.7,0.1c36.7,0,73.4,0,110,0c1.2,0,2.3,0,3.5,0c4.7,0,5.1-0.6,7.5,4.7
	c2.6,5.8,4.8,11.7,5.8,18c1.2,7,1.7,13.9,0.8,21c-0.5,4-1,8-2.3,11.8c-3.4,10.1-10.6,15.7-20.8,18c-3.5,0.8-7.1,0.9-10.7,0.9
	c-31.5,0-63,0-94.5,0c-1.6,0-3.2,0-4.7,0.1c-1.6,0.1-2.3,0.8-2.6,2.4c-0.1,0.8-0.2,1.7-0.2,2.6c0,16.7,0,33.4,0,50.1
	c0,0.7,0,1.4,0.1,2.2c0.2,2.1,0.9,2.8,3,2.9c1.6,0.1,3.2,0.1,4.7,0.1c43.3,0,86.6,0,129.9,0c1.3,0,2.6,0.1,3.9,0
	c2.2-0.1,3.5,0.9,4.4,2.8c0.3,0.7,0.7,1.3,1,1.9c3,6.6,5.3,13.4,6.3,20.6c0.9,6.3,0.6,12.6,0.4,19c-0.1,4.1-1,8-2.2,11.8
	c-4.1,12.8-15.3,18.6-25.1,19.3c-1.9,0.1-3.7,0.2-5.6,0.2c-54.5,0-109,0-163.5,0c-6.8,0-13.5-0.6-19.9-2.9
	c-15.4-5.6-24.9-16.5-28.9-32.3c-1.3-5.3-1.8-10.7-1.8-16.2C1642.7,496.3,1642.7,456.9,1642.7,417.5z"/>
<path class="st0" d="M1564.7,337.4c-4.1-2.3-7.9-4.7-11.8-6.8c-9.5-5.2-19.2-9.8-29.7-12.5c-7.8-2-15.7-3.3-23.9-3.1
	c-4.2,0.1-8.4-0.2-12.5,0.1c-16.2,1-31.4,5-45,14.5c-12,8.4-20.5,19.6-26.4,32.8c-4.3,9.6-6.8,19.8-8.3,30.2
	c-1.6,10.6-2.1,21.2-1.5,31.8c0.7,12.4,2.5,24.6,6.8,36.3c10.4,28.4,30.3,46.6,59.5,54.3c11.5,3,23.2,3.9,35.1,3.4
	c14.2-0.7,27.9-3.5,40.9-9.6c6-2.8,12-5.6,17.9-8.5c1.2-0.5,2.3-1.1,3.7-1.7c1,0.7,2,1.3,2.8,2c8.5,8.1,14.1,17.8,15.9,29.4
	c0.9,5.6,1.5,11.3,0.6,17.1c-1.3,7.8-4.5,14.5-9.7,20.3c-6.6,7.5-14.6,13-23.6,17c-9.5,4.2-19.5,6.8-29.8,8.5
	c-15.8,2.6-31.8,2.9-47.7,2.5c-25.1-0.7-49.4-5.1-72.7-14.4c-27.2-10.9-49.7-27.9-66.9-51.9c-14.1-19.7-23.1-41.6-27.8-65.4
	c-1.4-7-2.3-14.2-3-21.3c-0.4-4.3-0.6-8.6-0.8-12.9c-0.1-3-0.5-6-0.6-9c-0.1-3,0-6,0.1-9c0.1-1.9,0.3-3.7,0.4-5.6
	c0.3-14.6,2.1-28.9,5.6-43.1c3.6-14.6,9.1-28.5,16.3-41.6c8.3-15.1,18.7-28.6,31.4-40.3c11.2-10.3,23.6-18.7,37.3-25.4
	c15.8-7.7,32.3-12.7,49.6-15.5c6.5-1.1,13.1-2,19.7-2.1c4.4-0.1,8.9-0.6,13.3-0.6c9.3-0.1,18.7,0.6,28,1.5
	c8.7,0.8,17.4,2.3,25.9,4.5c13.2,3.5,25.5,8.9,36.2,17.5c8.5,6.9,14.8,15.3,17,26.2c0.5,2.4,0.7,4.8,0.8,7.3
	c0.1,4.4,0.1,8.9-0.9,13.3c-1.2,5.1-3.3,9.8-6.2,14.1c-3.4,5-7.7,9.3-12.3,13.2C1567.2,335.9,1566,336.6,1564.7,337.4z"/>
<path class="st0" d="M1152.5,248.5c2-1.2,3.8-1.3,5.5-1.6c8.4-1.2,16.8-2.4,25.2-3.4c1.7-0.2,3.4-0.2,5.2-0.2c6.3,0,12.7-0.2,19,0.1
	c6.5,0.3,12.9,1.2,19,3.4c9.9,3.5,16.6,10.1,19.7,20.2c1.3,4.3,2.2,8.6,2.4,13.1c0.1,3,0.2,6,0.2,9.1c0,95.8,0,191.6,0,287.4
	c0,1.7,0,3.5-0.1,5.2c-0.1,1.5-0.8,2.4-2.3,2.7c-3,0.6-5.9,1.3-8.9,1.6c-6.7,0.9-13.4,1.9-20.1,2.1c-4,0.1-8,0.5-12,0.6
	c-7.3,0.2-14.6-0.6-21.9-1.7c-4.7-0.7-9.2-2.2-13.5-4.4c-5.2-2.8-9.3-6.7-12-12c-1.6-3.1-2.8-6.3-3.5-9.7
	c-1.2-5.8-1.8-11.6-1.8-17.6c0-50.2,0-100.4,0-150.6c0-46.2,0-92.3,0-138.5C1152.4,252.3,1152.5,250.4,1152.5,248.5z"/>
<path class="st0" d="M339.9,174.9c5.7,0.5,11.7,1.2,17.8,1.5c6.4,0.4,12.5,2,18.6,3.7c4.9,1.3,9.5,3.2,14.1,5.4
	c1.9,0.9,3.2,2.2,4.1,4.2c0.8,2,2,3.8,3.1,5.7c0.8,1.4,0.9,2.7-0.1,4c-1.1,1.3-2,2.8-3.2,4c-4.1,4.3-8.7,8-14,10.6
	c-7.2,3.4-14.6,6-22.4,7.6c-2,0.4-4,0.3-6-0.1c-4.2-0.8-8.5-1.6-12.7-2.2c-1.8-0.2-3.3-0.8-4.8-1.8c-5.2-3.6-10.1-7.7-13.5-13.1
	c-3.5-5.7-4.9-11.9-4.5-18.6c0.1-2.1,1.2-3.3,3.1-4.2c2.7-1.3,5.3-2.9,7.8-4.5c1.3-0.8,2.5-1.3,4-1.4
	C333.8,175.4,336.7,175.2,339.9,174.9z"/>
<path class="st0" d="M224.5,555.4c-1.4-0.7-2.2-1-3-1.4c-19.9-11.6-39.7-23.1-59.6-34.7c-4.3-2.5-8.7-5.1-13.1-7.5
	c-2-1.1-2.8-2.5-2.8-4.8c0.1-11.5-0.3-23,0.1-34.5c0.5-13.5,0.2-27,0.4-40.5c0-1.7-0.3-3.4,0.6-5.1c1.7-0.4,2.8,0.7,4,1.4
	c5.1,2.9,10.2,5.9,15.3,8.9c17.9,10.4,35.8,20.8,53.7,31.1c4.6,2.6,4.6,2.6,4.6,7.7c0,25-0.1,50-0.1,75
	C224.7,552.3,224.6,553.5,224.5,555.4z"/>
<path class="st0" d="M596.7,430.5c0.5,0.8,0.8,1.2,0.8,1.5c0.3,2.4,0.8,4.8,0.8,7.3c0.1,8.5-2.7,15.8-9.5,21.3
	c-2.1,1.7-4.4,3.3-7,4.4c-1.6-2.1-1.9-4.2-1.2-6.5c0.4-1.2,1-2.4,1.4-3.6c0.5-1.4,0.5-2.8,0-4.2c-0.8-2.2-3-3-4.9-1.6
	c-1.1,0.8-2.1,2-2.7,3.2c-2.5,4.5-4.1,9.2-3.6,14.4c0.1,1.4,0.1,2.9,0.3,4.3c0.3,3.8-1.4,6-5.2,6.3c-0.7,0.1-1.5,0.1-2.2,0
	c-3.9-0.8-6.4,1.2-8.3,4.1c-1.2,1.8-2,3.8-3.1,5.7c-1.3,2.2-2.6,4.4-4.1,6.6c-0.4,0.6-1.3,0.9-2.3,1.6c-0.3-1.3-0.6-2.2-0.7-3.2
	c-0.1-1.7,0.1-3.4,0-5.2c0-1.5-0.6-2.8-2.2-3.4c-1.6-0.6-2.9,0.1-3.9,1.2c-0.9,1-1.8,2.3-2.3,3.6c-1.7,4.7-2.3,9.5-0.6,14.4
	c0.3,0.8,0.6,1.6,0.9,2.4c0.4,1,0.3,2-0.2,2.9c-2.3,3.8-4.8,7.6-8.8,9.9c-2,1.2-4.1,2-6.5,1.8c-1.1-0.1-2-0.7-2-1.9
	c-0.4-5.9-0.9-11.8,2.8-17.1c1.3-1.8,2-4.1,2.8-6.3c0.5-1.3,0.2-2.5-0.5-3.7c-1.1-2-3.3-2.4-5.1-0.9c-0.4,0.4-0.9,0.8-1.1,1.3
	c-2,3.6-4.3,7.2-6,10.9c-2.2,4.7-3.2,9.8-2.9,15.1c0.1,0.9-0.1,1.7,0,2.6c0.4,3.3-1.1,5.3-4,6.8c-5.2,2.7-10.6,4.3-16.6,3.5
	c-0.7-0.1-1.4-0.2-2.1-0.4c-1.2-0.4-1.9-1.3-1.9-2.6c-0.1-1.6,0.4-3.2,1.3-4.5c1.1-1.5,2.3-3,3.4-4.4c1.7-2.1,2.5-4.5,2.3-7.2
	c-0.1-1.4-0.6-2.5-1.9-3.1c-1.4-0.6-2.6,0-3.6,0.8c-3.3,3-6.2,6.4-8,10.6c-1.3,3.1-2.4,6.2-2.8,9.5c-0.3,3-1.7,5.1-4.5,6.4
	c-1.4,0.7-2.7,1.6-4.1,2.4c-2.2,1.2-4.6,1.8-7.1,1.3c-2.6-0.5-4.8,0.2-6.9,1.6c-1.7,1.1-3.4,2.1-5.2,3.1c-1.7,1-3.5,1.3-5.4,1.2
	c-2.3,0-3.8-1.2-4.7-3.2c-0.5-1.2-1-2.5-1-3.7c-0.2-4.2-0.2-8.3-0.1-12.5c0.1-2.4,1-3.3,3.4-3.6c0.7-0.1,1.4-0.1,2.2-0.1
	c2.4,0.1,4.2-1.2,5.3-3.1c0.8-1.3,1.5-2.8,1.8-4.3c0.7-3.1-1-5.4-4.1-5.8c-2-0.2-4-0.1-5.9,0.7c-0.8,0.3-1.6,0.7-2.5,0.7
	c-0.6,0-1.1-0.7-1.6-1.1c-0.1-0.1-0.1-0.3-0.1-0.4c0.4-4.6,0.4-9.2,2.7-13.4c0.2-0.4,0.4-0.8,0.7-1.1c0.6-0.4,1.2-0.7,1.9-0.9
	c0.4-0.1,0.8,0.1,1.3,0.2c5.6,2,10.4-0.2,15-3.1c4.2-2.6,7.7-5.9,10.9-9.7c2.3-2.6,4.8-5,7.9-6.6c2.2-1.2,4.4-1.3,6.5,0.1
	c0.4,0.2,0.7,0.5,1.1,0.7c2,1,3.6,0.7,5.1-0.8c0.2-0.2,0.4-0.4,0.6-0.7c2-2.7,3.3-5.7,1.7-8.8c-1.7-3.4-5-4.6-8.7-4.6
	c-2,0-4,0.6-5.8,1.6c-1.9,1-3.7,2.1-5.5,3c-1.1-0.4-0.9-1.2-1-1.9c-0.1-1.3,0-2.6-0.2-3.9c-0.4-2.4-2.5-3.4-4.5-2.3
	c-1.1,0.6-2.1,1.5-2.8,2.6c-1.3,1.8-1.8,3.9-1.8,6.1c0,2.3-0.1,4.6,0,6.9c0.1,2.2-0.8,3.9-2.7,5.1c-1.7,1.1-3.4,2.1-5.2,3.1
	c-1.4,0.8-3,0.8-4.6,0.5c-1.7-0.3-2.5-1.4-2.1-3.1c1.1-4.3,2.2-8.6,3.6-12.9c2.7-8,7-15.1,13.1-21.1c3.7-3.6,6.5-7.6,8.7-12.2
	c0.9-1.9,2.4-3.6,3.7-5.3c0.4-0.5,1.1-0.8,1.8-1.3c1.7,1.5,2.5,3.4,3.3,5.2c0.9,2,0.4,4-0.9,5.7c-1.1,1.5-2.2,3-3.3,4.5
	c-1.3,1.8-1.8,3.9-1.6,6.1c0.1,1.4,0.4,2.6,1.7,3.3c1.5,0.8,2.9,0.1,3.9-0.9c1.4-1.4,2.8-2.9,3.9-4.5c1.4-2.2,3.1-3.3,5.8-3.7
	c5.2-0.9,8.8-4,10.4-9.2c0.5-1.8,0.4-3.4-0.8-4.9c-0.9-1.1-2.1-1.6-3.4-1.1c-0.7,0.2-1.3,0.6-1.9,0.9c-0.5,0.2-1.1,0.4-1.8,0.7
	c-0.5-0.5-1.1-0.9-1.4-1.4c-1.4-3-2.8-6-4.3-9.5c1.3-3.6,3.4-6.9,7.7-8.1c2.1-0.6,3.4-1.9,4.8-3.5c1.9-2.2,3.8-4.3,5.8-6.3
	c1.7-1.6,3.6-2.8,6.4-2.2c0.1,0.9,0.3,1.7,0.3,2.6c0,7.1,1.3,14,2.7,20.9c1.5,7.2-0.1,13.4-6,18.2c-2,1.6-3.5,3.5-4.1,5.9
	c-0.3,1.2-0.4,2.6-0.1,3.8c0.5,2.2,2.7,3.1,4.7,2.1c0.9-0.4,1.7-1.1,2.5-1.7c4-3.3,6.8-7.4,9-12c1.8-3.9,3.4-7.9,3.9-12.3
	c0.2-1.9,1-3.1,2.6-4.1c3.2-2,4.6-5,4.4-8.8c-0.1-2.5-1.4-3.8-3.9-3.4c-4.2,0.7-4.9-0.3-5.6-4.3c-0.5-3.1-0.9-6.2-0.9-9.4
	c0-1.7,0.5-3.1,1.5-4.4c3.8-4.6,8.3-8.4,14-10.5c5-1.9,9.9-0.8,14.4,1.9c1.2,0.7,1.1,1.9,0.8,3.1c-1.4,4.7-3.5,9.1-6.4,13.1
	c-1.4,1.9-2.6,3.8-2.8,6.2c-0.1,1,0,2,0.3,2.9c0.8,2.2,3.2,2.8,4.9,1.4c1.3-1.1,2.4-2.4,3.4-3.8c3.8-5.3,6.6-11.1,8.6-17.3
	c0.4-1.1,0.7-2.2,1.1-3.3c0.6-1.5,1.7-2.3,3.3-2.4c1,0,2-0.1,3,0.2c3,0.7,4.8,3.2,4,6.1c-1.3,5.1-2.7,10.3-6,14.5
	c-0.4,0.2-0.6,0.4-0.9,0.4c-1.9,0.1-3.7,0.1-5.1,1.8c-1.6,2.1-2.8,4.4-2.6,7.1c0.2,2.6,1.8,4.2,4.5,4.3c2.4,0,4.5-0.9,6.2-2.6
	c1-1,2-2,3.3-3.2c0.9,1.1,1.6,2,2.3,2.8c1.9,2.3,3.6,2.5,5.9,0.6c2.6-2.2,3.7-6.6,2.3-9.9c-0.3-0.7-0.6-1.3-1-1.9
	c-1.6-2.9-1.6-6.1-1.1-9.2c0.4-2.5,2.9-3.7,5.3-2.6c1.7,0.8,2.7,2.1,3.3,3.8c0.5,1.5,0.9,3,1.2,4.6c0.5,2.6,1.8,4.5,4.5,5.2
	c0.6,0.1,1.1,0.4,1.6,0.6c2.1,1,3.4,2.6,3.4,5c0,1.6-0.1,3.2,0,4.7c0.1,2.7-1,4.7-3.2,6.2c-2.5,1.7-5.1,3-8.3,3.4
	c-4.4,0.5-7.9,6.1-6.5,10.3c0.5,1.6,2,2.8,3.9,2.8c1.3,0,2.6-0.2,3.8-0.7c2.3-0.9,4.5-1.9,6.7-2.9
	C594.9,431.5,595.7,431.1,596.7,430.5z M449.2,531.6c0,0.4,0,0.9,0,1.3c0.1,1.5,0.7,2.8,2.3,3.3c1.4,0.4,2.6-0.2,3.5-1.2
	c0.9-1.1,1.9-2.2,2.4-3.5c1.2-3,3.1-5.5,5-8c1.7-2.3,3.5-4.6,5-7c0.9-1.5,2-2.3,3.8-2.3c2.9,0,5.1-1.4,7.2-3.4
	c5.7-5.6,9.9-12.3,13.3-19.5c0.4-0.9,0.8-1.9,0.8-2.9c0-1.1-0.1-2.3-0.5-3.3c-0.5-1.5-2.2-2.2-3.5-1.5c-1.2,0.7-2.4,1.6-3.2,2.7
	c-1.3,1.8-2.4,3.9-3.5,5.9c-1.6,2.7-3.3,5.4-5.7,7.5c-1.2,1-2.5,0.7-3.2-0.6c-0.6-1.1-1-2.4-1.6-3.5c-0.9-1.7-2.8-2.2-4.4-1.1
	c-1,0.7-2,1.7-2.6,2.8c-1.5,2.2-2,4.7-1.9,7.4c0.1,3.5-1,6.5-3.3,9.1c-0.7,0.8-1.3,1.5-1.9,2.4c-2,3-4,5.9-5.8,9
	C450,527.1,449.2,529.2,449.2,531.6z M512.7,477.2c-0.1,3.7,2.2,5.5,5.3,4.5c1.2-0.4,2.3-1.1,3.3-1.9c2.7-2.2,4.8-4.9,6.4-8
	c0.8-1.5,1.6-3,2.2-4.6c0.7-2,1.9-3,4.1-3.1c1.5-0.1,3.1-0.5,4.6-1.1c3.7-1.6,5.2-4.8,5.5-8.6c0.3-2.9-1.6-4.4-4.6-4
	c-1.1,0.2-2.3,0.4-3.4,0.5c-2.8,0.2-4.3-0.8-4.9-3.6c-0.2-1-0.2-2-0.3-3c-0.1-1.3,0-2.6-0.2-3.9c-0.2-1.5-0.9-2.8-2.4-3.3
	c-1.7-0.6-3.1,0.3-4.1,1.6c-1.6,1.9-2.6,4.1-2.6,6.7c0.1,3.1,0.4,6.3,0.6,9.4c0.1,1.7,0.4,3.4,0.4,5.1c0.2,4.2-1.4,7.5-5.3,9.5
	C514.2,471.1,513.2,474.3,512.7,477.2z M567.2,444.3c-0.2-2.1-0.5-4.1-0.6-6.1c-0.5-5.7-4.1-8.6-9.2-10.1c-3.1-0.9-4.9-0.3-6.7,2.4
	c-1.1,1.6-1.8,3.3-1.9,5.2c-0.2,2.5,0.8,4,3.2,4.9c0.5,0.2,1.1,0.3,1.7,0.5c3,1.2,4,2.8,3.5,6.1c-0.2,1.1-0.5,2.2-1,3.3
	c-1,2.1-2.1,4.1-3.3,6.1c-1,1.7-2.2,3.4-3.1,5.2c-0.7,1.5-1.2,3.2-1.5,4.9c-0.2,1.5,0.6,2.8,2,3.6c1.3,0.7,2.6,0.3,3.6-0.5
	c0.9-0.7,1.7-1.6,2.3-2.5c1.4-2,2.8-4,4-6.1c1-1.7,2.2-2.9,4.4-3c1.1,0,2.3-0.4,3.3-0.8c3.4-1.2,6.2-5.5,6.1-9.1
	c-0.1-2.5-1.6-3.9-4.1-3.8C568.9,444.3,568.1,444.3,567.2,444.3z"/>
<path class="st0" d="M542,574.6c-0.9-1.2-1.6-2-2.4-2.9c-4.4-5.4-9.9-8.7-17-8.7c-4.4,0-6.9-2.5-8.6-6.1c-2.2-4.9-3.4-10-4.4-15.3
	c1.5-2.1,3.4-3.1,5.8-3.3c1.4-0.1,2.8-0.4,4.3-0.6c5.1-0.5,9.3-2.8,13-6.2c1.7-1.6,3.2-3.2,4.9-4.8c1.1,0.8,0.7,1.9,0.9,2.8
	c0.3,1,0.4,2,0.5,3c0.5,5.5,2.1,10.4,6.3,14.2c0.8,0.8,1.5,1.8,2,2.8c1.7,4.1,3.2,8.3,4.9,12.4c1,2.4,0.7,4.4-1.2,6.3
	c-2,2-3.8,4.3-6.5,5.6C543.7,574,543,574.2,542,574.6z"/>
<path class="st0" d="M591.9,475.7c0.8,2.4,0.7,4.5,0,6.5c-0.7,2.2-1.5,4.4-2.5,6.4c-5.8,11.6-12.4,22.6-20.7,32.6
	c-1.9,2.3-4.1,4.4-6.3,6.5c-1.1,1-2.6,1.9-4,2.5c-2.2,1-3.8,0.5-5.2-1.5c-0.6-0.8-1.1-1.7-1.3-2.7c-1.5-5.3-1.7-10.7-0.4-16.2
	c0.2-0.9,0.6-1.9,1.2-2.7c2.2-3.2,4.5-6.3,6.6-9.5c1-1.5,2.2-2.5,4.1-2.6c3.9-0.2,7-2.3,9.9-4.8c1.2-1,2.3-2.2,3.2-3.4
	c1.9-2.4,4.1-4.3,6.9-5.7c2.3-1.2,4.3-2.9,6.4-4.3C590.5,476.5,591.1,476.2,591.9,475.7z"/>
</svg>
