<?xml version="1.0" encoding="utf-8"?>
<!-- Generator: Adobe Illustrator 13.0.2, SVG Export Plug-In . SVG Version: 6.00 Build 14948)  -->
<!DOCTYPE svg PUBLIC "-//W3C//DTD SVG 1.1//EN" "http://www.w3.org/Graphics/SVG/1.1/DTD/svg11.dtd">
<svg version="1.1" xmlns="http://www.w3.org/2000/svg" xmlns:xlink="http://www.w3.org/1999/xlink" x="0px" y="0px"
	 width="538.165px" height="144.131px" viewBox="0 0 538.165 144.131" enable-background="new 0 0 538.165 144.131"
	 xml:space="preserve">
<g id="Hintergrund">
</g>
<g id="Hilfslinien_anzeigen">
</g>
<g id="Vordergrund">
</g>
<g id="Kralle">
	<g>
		<g>
			<polygon fill-rule="evenodd" clip-rule="evenodd" fill="#00205B" points="115.288,122.495 103.826,122.495 103.35,124.759 
				107.543,124.759 104.517,138.96 107.281,138.96 110.284,124.759 114.43,124.759 			"/>
			<path fill-rule="evenodd" clip-rule="evenodd" fill="#00205B" d="M125.282,128.953c0-1.406-0.929-2.359-2.693-2.359
				c-1.454,0-3.122,0.738-4.265,2.097c0.143-0.429,0.381-1.382,0.477-1.811l0.357-1.668c0.333-1.525,0.429-3.193,0.19-3.932
				l-2.668,0.906c0.19,0.762,0.167,1.787-0.215,3.526l-2.812,13.249h2.598l1.667-7.863c1.025-1.311,2.55-2.288,3.527-2.288
				c0.715,0,1.096,0.333,1.12,1.025c0,0.238-0.072,0.62-0.144,1l-1.715,8.125h2.574l1.811-8.531
				C125.234,129.787,125.282,129.333,125.282,128.953z"/>
			<path fill-rule="evenodd" clip-rule="evenodd" fill="#00205B" d="M138.418,129.834c0-2.145-1.478-3.217-3.812-3.217
				c-1.549,0-2.883,0.5-4.075,1.644c-1.644,1.597-2.692,4.194-2.692,6.601c0,2.859,1.715,4.408,4.289,4.408
				c2.025,0,3.455-0.548,4.908-1.715l-0.81-1.621c-1.12,0.882-2.145,1.311-3.407,1.311c-1.311,0-2.192-0.715-2.192-2.216
				c0-0.381,0.095-1.024,0.143-1.263c0.214,0,0.786,0.095,1.454,0.095c2.478,0,4.122-0.548,5.123-1.525
				C138.037,131.669,138.418,130.811,138.418,129.834z M135.773,130.001c0,0.5-0.19,0.881-0.5,1.191
				c-0.572,0.572-1.573,0.786-3.026,0.786c-0.405,0-0.906-0.071-1.049-0.071c0.524-2.264,1.716-3.336,3.074-3.336
				C135.369,128.571,135.773,129.191,135.773,130.001z"/>
			<path fill-rule="evenodd" clip-rule="evenodd" fill="#00205B" d="M160.594,122.495h-2.741l-2.311,10.842
				c-0.238,1.167-0.381,1.548-0.691,2.049c-0.548,0.881-1.597,1.525-3.05,1.525c-1.239,0-2.431-0.429-2.431-1.834
				c0-0.429,0.072-1.025,0.262-1.883l2.288-10.699h-2.764l-2.407,11.271c-0.143,0.691-0.214,1.454-0.214,1.954
				c0,2.288,1.906,3.55,4.861,3.55c2.574,0,3.836-0.739,4.718-1.382c1.263-0.905,1.62-1.93,2.097-4.146L160.594,122.495z"/>
			<path fill-rule="evenodd" clip-rule="evenodd" fill="#00205B" d="M172.302,129.024c0-1.453-0.905-2.383-2.407-2.383
				c-1.668,0-3.193,0.763-4.337,2.145c0.167-0.834,0.024-1.715-0.214-2.264l-2.431,1.001c0.262,0.882,0.238,1.692-0.047,3.097
				l-1.763,8.34h2.573l1.668-7.863c1.263-1.645,2.455-2.24,3.312-2.24c0.644,0,0.953,0.262,0.953,0.953
				c0,0.262-0.047,0.644-0.167,1.167l-1.692,7.983h2.597l1.835-8.626C172.278,129.93,172.302,129.429,172.302,129.024z"/>
			<path fill-rule="evenodd" clip-rule="evenodd" fill="#00205B" d="M179.767,126.641l-2.741,0.405L174.5,138.96h2.668
				L179.767,126.641z M180.886,123.4c0-0.953-0.762-1.739-1.716-1.739c-0.977,0-1.763,0.787-1.763,1.764
				c0,0.953,0.787,1.739,1.74,1.739C180.124,125.164,180.886,124.377,180.886,123.4z"/>
			<path fill-rule="evenodd" clip-rule="evenodd" fill="#00205B" d="M192.904,126.927l-2.835-0.023l-3.455,6.338
				c-0.286,0.548-0.953,1.978-1.239,2.621c0-0.691-0.048-1.763-0.143-2.55l-0.786-6.672l-2.669,0.405l1.811,11.962h2.287
				L192.904,126.927z"/>
			<path fill-rule="evenodd" clip-rule="evenodd" fill="#00205B" d="M203.256,129.834c0-2.145-1.478-3.217-3.812-3.217
				c-1.549,0-2.883,0.5-4.075,1.644c-1.645,1.597-2.692,4.194-2.692,6.601c0,2.859,1.715,4.408,4.289,4.408
				c2.026,0,3.456-0.548,4.909-1.715l-0.81-1.621c-1.12,0.882-2.145,1.311-3.407,1.311c-1.311,0-2.192-0.715-2.192-2.216
				c0-0.381,0.095-1.024,0.143-1.263c0.214,0,0.786,0.095,1.453,0.095c2.479,0,4.123-0.548,5.123-1.525
				C202.875,131.669,203.256,130.811,203.256,129.834z M200.611,130.001c0,0.5-0.19,0.881-0.5,1.191
				c-0.572,0.572-1.573,0.786-3.026,0.786c-0.405,0-0.905-0.071-1.048-0.071c0.524-2.264,1.716-3.336,3.074-3.336
				C200.206,128.571,200.611,129.191,200.611,130.001z"/>
			<path fill-rule="evenodd" clip-rule="evenodd" fill="#00205B" d="M213.817,126.808c-0.357-0.143-0.572-0.191-1-0.191
				c-1.168,0-2.502,0.882-3.598,2.264c0.167-0.833,0.071-1.739-0.191-2.359l-2.43,1.001c0.238,0.833,0.262,1.739-0.095,3.384
				l-1.716,8.054h2.598l1.644-7.744c1.049-1.477,1.978-2.121,2.812-2.121c0.357,0,0.596,0.047,0.834,0.19L213.817,126.808z"/>
			<path fill-rule="evenodd" clip-rule="evenodd" fill="#00205B" d="M223.735,127.523c-0.954-0.596-2.335-1.024-3.765-1.024
				c-3.526,0-5.266,2.001-5.266,4.098c0,1.501,0.833,2.335,2.263,2.883l1.382,0.524c1.096,0.429,1.525,0.81,1.525,1.572
				c0,1.001-1.001,1.74-2.311,1.74c-1.358,0-2.764-0.5-3.765-1.191l-1.048,1.93c1.239,0.786,2.788,1.263,4.456,1.263
				c3.551,0,5.576-2.025,5.576-4.503c0-1.43-0.977-2.288-2.454-2.86l-1.43-0.548c-0.953-0.357-1.287-0.762-1.287-1.406
				c0-1,0.929-1.478,2.192-1.478c0.954,0,1.883,0.262,2.883,0.834L223.735,127.523z"/>
			<path fill-rule="evenodd" clip-rule="evenodd" fill="#00205B" d="M230.604,126.641l-2.74,0.405l-2.526,11.914h2.669
				L230.604,126.641z M231.724,123.4c0-0.953-0.762-1.739-1.716-1.739c-0.977,0-1.763,0.787-1.763,1.764
				c0,0.953,0.786,1.739,1.74,1.739C230.961,125.164,231.724,124.377,231.724,123.4z"/>
			<path fill-rule="evenodd" clip-rule="evenodd" fill="#00205B" d="M240.167,126.903h-2.883c0.238-1.144,0.644-2.55,0.977-3.574
				l-2.788,0.644c-0.31,0.905-0.548,1.834-0.787,2.931h-1.358l-0.381,1.859h1.358l-1.453,6.862c-0.12,0.596-0.167,1.215-0.167,1.644
				c0,1.215,0.905,2.025,2.526,2.025c0.833,0,1.667-0.167,2.501-0.5v-1.62c-0.381,0.167-0.834,0.238-1.215,0.238
				c-0.763,0-1.12-0.238-1.12-1c0-0.31,0.048-0.715,0.143-1.168l1.358-6.481h2.312L240.167,126.903z"/>
			<path fill-rule="evenodd" clip-rule="evenodd" fill="#00205B" d="M251.943,126.903h-2.859l-3.479,6.672
				c-0.62,1.215-1.239,2.526-1.478,3.146h-0.023c0-0.5-0.024-1.811-0.096-2.716l-0.667-7.315l-2.716,0.381l1.048,8.149
				c0.143,1.096,0.286,2.931,0.286,3.789l0.834-0.048c-0.644,1.287-1.072,1.93-1.859,2.478c-0.548,0.381-1.406,0.786-2.121,0.906
				l0.548,1.763c1.025-0.167,2.025-0.548,2.812-1.096c1.144-0.787,2.025-2.264,3.407-4.742L251.943,126.903z"/>
			<path fill-rule="evenodd" clip-rule="evenodd" fill="#00205B" d="M267.185,122.162c-0.62-0.405-1.525-0.691-2.549-0.691
				c-0.929,0-1.74,0.167-2.407,0.571c-1.024,0.62-1.788,1.621-2.073,3.217l-0.286,1.644h-1.144l-0.381,1.859h1.191l-2.025,10.27
				c-0.31,1.548-1.024,2.907-1.715,3.741l1.763,1.358c1.096-1.12,2.097-2.788,2.526-5.027l2.025-10.341h2.407l1.096-1.859h-3.169
				l0.333-1.787c0.19-1.072,0.905-1.691,1.835-1.691c0.5,0,1.001,0.166,1.477,0.453L267.185,122.162z"/>
			<path fill-rule="evenodd" clip-rule="evenodd" fill="#00205B" d="M275.82,130.859c0-2.645-1.501-4.242-4.265-4.242
				c-4.003,0-6.839,3.67-6.839,8.316c0,2.765,1.525,4.313,4.194,4.313C273.342,139.246,275.82,135.267,275.82,130.859z
				 M272.984,130.764c0,2.931-1.263,6.505-3.598,6.505c-1.167,0-1.858-0.644-1.858-2.097c0-2.74,1.239-6.553,3.622-6.553
				C272.222,128.619,272.984,129.143,272.984,130.764z"/>
			<path fill-rule="evenodd" clip-rule="evenodd" fill="#00205B" d="M286.909,126.808c-0.357-0.143-0.572-0.191-1-0.191
				c-1.168,0-2.502,0.882-3.598,2.264c0.167-0.833,0.071-1.739-0.191-2.359l-2.43,1.001c0.238,0.833,0.262,1.739-0.095,3.384
				l-1.716,8.054h2.598l1.644-7.744c1.049-1.477,1.978-2.121,2.812-2.121c0.357,0,0.596,0.047,0.834,0.19L286.909,126.808z"/>
			<path fill-rule="evenodd" clip-rule="evenodd" fill="#00205B" d="M299.91,126.903h-2.883c0.239-1.144,0.644-2.55,0.977-3.574
				l-2.788,0.644c-0.31,0.905-0.548,1.834-0.787,2.931h-1.358l-0.381,1.859h1.358l-1.453,6.862
				c-0.119,0.596-0.167,1.215-0.167,1.644c0,1.215,0.905,2.025,2.526,2.025c0.833,0,1.667-0.167,2.502-0.5v-1.62
				c-0.381,0.167-0.834,0.238-1.215,0.238c-0.763,0-1.12-0.238-1.12-1c0-0.31,0.048-0.715,0.143-1.168l1.358-6.481h2.312
				L299.91,126.903z"/>
			<path fill-rule="evenodd" clip-rule="evenodd" fill="#00205B" d="M311.186,128.953c0-1.406-0.93-2.359-2.693-2.359
				c-1.454,0-3.122,0.738-4.265,2.097c0.143-0.429,0.381-1.382,0.477-1.811l0.357-1.668c0.333-1.525,0.429-3.193,0.19-3.932
				l-2.669,0.906c0.19,0.762,0.167,1.787-0.214,3.526l-2.812,13.249h2.597l1.668-7.863c1.024-1.311,2.549-2.288,3.526-2.288
				c0.715,0,1.096,0.333,1.12,1.025c0,0.238-0.071,0.62-0.143,1l-1.715,8.125h2.573l1.811-8.531
				C311.138,129.787,311.186,129.333,311.186,128.953z"/>
			<path fill-rule="evenodd" clip-rule="evenodd" fill="#00205B" d="M324.323,129.834c0-2.145-1.478-3.217-3.812-3.217
				c-1.549,0-2.883,0.5-4.075,1.644c-1.645,1.597-2.693,4.194-2.693,6.601c0,2.859,1.716,4.408,4.289,4.408
				c2.026,0,3.456-0.548,4.909-1.715l-0.81-1.621c-1.12,0.882-2.145,1.311-3.407,1.311c-1.311,0-2.192-0.715-2.192-2.216
				c0-0.381,0.095-1.024,0.143-1.263c0.214,0,0.786,0.095,1.453,0.095c2.479,0,4.123-0.548,5.123-1.525
				C323.941,131.669,324.323,130.811,324.323,129.834z M321.678,130.001c0,0.5-0.19,0.881-0.5,1.191
				c-0.572,0.572-1.573,0.786-3.026,0.786c-0.405,0-0.905-0.071-1.048-0.071c0.524-2.264,1.716-3.336,3.074-3.336
				C321.272,128.571,321.678,129.191,321.678,130.001z"/>
			<polygon fill-rule="evenodd" clip-rule="evenodd" fill="#00205B" points="337.92,122.495 335.156,122.495 331.629,138.96 
				334.417,138.96 			"/>
			<path fill-rule="evenodd" clip-rule="evenodd" fill="#00205B" d="M349.865,129.024c0-1.453-0.906-2.383-2.407-2.383
				c-1.668,0-3.193,0.763-4.337,2.145c0.167-0.834,0.024-1.715-0.214-2.264l-2.431,1.001c0.262,0.882,0.238,1.692-0.047,3.097
				l-1.764,8.34h2.574l1.668-7.863c1.263-1.645,2.455-2.24,3.312-2.24c0.643,0,0.953,0.262,0.953,0.953
				c0,0.262-0.048,0.644-0.167,1.167l-1.692,7.983h2.597l1.834-8.626C349.841,129.93,349.865,129.429,349.865,129.024z"/>
			<path fill-rule="evenodd" clip-rule="evenodd" fill="#00205B" d="M361.976,122.162c-0.619-0.405-1.525-0.691-2.549-0.691
				c-0.929,0-1.739,0.167-2.407,0.571c-1.024,0.62-1.787,1.621-2.073,3.217l-0.286,1.644h-1.144l-0.381,1.859h1.192l-2.026,10.27
				c-0.31,1.548-1.024,2.907-1.715,3.741l1.764,1.358c1.096-1.12,2.097-2.788,2.525-5.027l2.025-10.341h2.407l1.096-1.859h-3.169
				l0.333-1.787c0.191-1.072,0.906-1.691,1.835-1.691c0.5,0,1.001,0.166,1.477,0.453L361.976,122.162z"/>
			<path fill-rule="evenodd" clip-rule="evenodd" fill="#00205B" d="M370.611,130.859c0-2.645-1.501-4.242-4.266-4.242
				c-4.003,0-6.838,3.67-6.838,8.316c0,2.765,1.525,4.313,4.194,4.313C368.133,139.246,370.611,135.267,370.611,130.859z
				 M367.775,130.764c0,2.931-1.263,6.505-3.598,6.505c-1.167,0-1.858-0.644-1.858-2.097c0-2.74,1.239-6.553,3.622-6.553
				C367.013,128.619,367.775,129.143,367.775,130.764z"/>
			<path fill-rule="evenodd" clip-rule="evenodd" fill="#00205B" d="M381.7,126.808c-0.357-0.143-0.572-0.191-1.001-0.191
				c-1.167,0-2.502,0.882-3.598,2.264c0.167-0.833,0.071-1.739-0.19-2.359l-2.431,1.001c0.238,0.833,0.262,1.739-0.095,3.384
				l-1.716,8.054h2.598l1.644-7.744c1.048-1.477,1.978-2.121,2.812-2.121c0.357,0,0.596,0.047,0.834,0.19L381.7,126.808z"/>
			<path fill-rule="evenodd" clip-rule="evenodd" fill="#00205B" d="M398.837,129.048c0-1.525-0.953-2.431-2.335-2.431
				c-1.263,0-2.717,0.596-4.17,2.145c-0.072-1.406-0.81-2.121-2.145-2.121c-1.287,0-2.717,0.62-4.123,2.121
				c0.143-0.763,0.048-1.692-0.191-2.24l-2.43,1.001c0.215,0.762,0.238,1.763-0.024,3.026l-1.787,8.411h2.526l1.668-7.863
				c1.096-1.43,2.311-2.24,3.169-2.24c0.643,0,0.857,0.286,0.857,0.81c0,0.262-0.095,0.762-0.214,1.287l-1.692,8.006h2.526
				l1.692-7.887c0.953-1.311,2.168-2.216,3.05-2.216c0.667,0,0.953,0.262,0.953,0.857c0,0.286-0.047,0.667-0.143,1.096l-1.739,8.149
				h2.573l1.787-8.411C398.742,130.049,398.837,129.477,398.837,129.048z"/>
			<path fill-rule="evenodd" clip-rule="evenodd" fill="#00205B" d="M412.167,127.523c-0.953-0.62-2.359-0.906-3.741-0.906
				c-1.931,0-3.503,0.644-4.79,1.954c-1.549,1.596-2.55,4.17-2.55,6.839c0,2.573,1.263,3.836,3.145,3.836
				c1.549,0,2.765-0.691,3.622-1.858c0,0.786,0.262,1.454,0.905,1.978l2.145-1.596c-0.595-0.643-0.738-1.263-0.429-2.716
				l0.977-4.766C411.619,129.429,411.953,128.19,412.167,127.523z M409.236,128.929l-1.287,5.909
				c-0.548,1.216-1.763,2.312-2.859,2.312c-0.882,0-1.311-0.5-1.311-1.811c0-1.692,0.5-4.027,1.573-5.314
				c0.929-1.096,1.691-1.334,2.764-1.334C408.521,128.69,408.998,128.786,409.236,128.929z"/>
			<path fill-rule="evenodd" clip-rule="evenodd" fill="#00205B" d="M421.92,126.903h-2.883c0.238-1.144,0.644-2.55,0.977-3.574
				l-2.788,0.644c-0.31,0.905-0.548,1.834-0.787,2.931h-1.358l-0.381,1.859h1.358l-1.453,6.862
				c-0.119,0.596-0.167,1.215-0.167,1.644c0,1.215,0.905,2.025,2.526,2.025c0.833,0,1.668-0.167,2.502-0.5v-1.62
				c-0.381,0.167-0.834,0.238-1.215,0.238c-0.763,0-1.12-0.238-1.12-1c0-0.31,0.048-0.715,0.143-1.168l1.358-6.481h2.311
				L421.92,126.903z"/>
			<path fill-rule="evenodd" clip-rule="evenodd" fill="#00205B" d="M426.834,126.641l-2.74,0.405l-2.526,11.914h2.668
				L426.834,126.641z M427.954,123.4c0-0.953-0.762-1.739-1.715-1.739c-0.977,0-1.764,0.787-1.764,1.764
				c0,0.953,0.787,1.739,1.74,1.739C427.191,125.164,427.954,124.377,427.954,123.4z"/>
			<path fill-rule="evenodd" clip-rule="evenodd" fill="#00205B" d="M439.638,130.859c0-2.645-1.501-4.242-4.265-4.242
				c-4.003,0-6.839,3.67-6.839,8.316c0,2.765,1.525,4.313,4.194,4.313C437.16,139.246,439.638,135.267,439.638,130.859z
				 M436.803,130.764c0,2.931-1.263,6.505-3.598,6.505c-1.167,0-1.858-0.644-1.858-2.097c0-2.74,1.239-6.553,3.622-6.553
				C436.04,128.619,436.803,129.143,436.803,130.764z"/>
			<path fill-rule="evenodd" clip-rule="evenodd" fill="#00205B" d="M452.896,129.024c0-1.453-0.905-2.383-2.407-2.383
				c-1.668,0-3.193,0.763-4.337,2.145c0.167-0.834,0.024-1.715-0.214-2.264l-2.43,1.001c0.262,0.882,0.238,1.692-0.048,3.097
				l-1.763,8.34h2.573l1.668-7.863c1.263-1.645,2.455-2.24,3.312-2.24c0.644,0,0.953,0.262,0.953,0.953
				c0,0.262-0.047,0.644-0.167,1.167l-1.692,7.983h2.597l1.835-8.626C452.872,129.93,452.896,129.429,452.896,129.024z"/>
			<path fill-rule="evenodd" clip-rule="evenodd" fill="#00205B" d="M474.428,123.615c-1.167-0.977-2.954-1.549-4.813-1.549
				c-3.717,0-6.625,2.383-6.625,5.48c0,1.931,1.001,2.931,2.907,3.646l1.644,0.62c1.43,0.548,1.954,1.191,1.954,2.24
				c0,1.74-1.478,2.979-3.813,2.979c-1.667,0-2.812-0.429-4.122-1.263l-1.406,2.121c1.358,0.882,2.931,1.406,5.028,1.406
				c4.646,0,7.458-2.669,7.458-5.957c0-1.907-0.93-3.146-3.003-3.908l-1.834-0.667c-1.358-0.501-1.764-1.096-1.764-2.05
				c0-1.334,1.382-2.382,3.17-2.382c1.429,0,2.501,0.357,3.646,1.215L474.428,123.615z"/>
			<path fill-rule="evenodd" clip-rule="evenodd" fill="#00205B" d="M486.28,130.859c0-2.645-1.501-4.242-4.265-4.242
				c-4.003,0-6.839,3.67-6.839,8.316c0,2.765,1.525,4.313,4.194,4.313C483.802,139.246,486.28,135.267,486.28,130.859z
				 M483.445,130.764c0,2.931-1.263,6.505-3.598,6.505c-1.167,0-1.858-0.644-1.858-2.097c0-2.74,1.239-6.553,3.622-6.553
				C482.682,128.619,483.445,129.143,483.445,130.764z"/>
			<path fill-rule="evenodd" clip-rule="evenodd" fill="#00205B" d="M498.584,127.833c-0.834-0.858-1.93-1.263-3.074-1.263
				c-1.524,0-2.716,0.477-3.812,1.406c-1.644,1.382-3.074,4.265-3.074,7.148c0,2.621,1.358,4.122,4.051,4.122
				c1.644,0,2.931-0.524,4.265-1.596l-0.953-1.644c-0.882,0.786-1.835,1.263-2.741,1.263c-1.143,0-1.787-0.715-1.787-2.145
				c0-1.858,0.81-4.384,1.668-5.433c0.524-0.619,1.239-0.977,1.954-0.977s1.453,0.262,2.073,0.881L498.584,127.833z"/>
			<path fill-rule="evenodd" clip-rule="evenodd" fill="#00205B" d="M504.5,126.641l-2.74,0.405l-2.526,11.914h2.669L504.5,126.641z
				 M505.621,123.4c0-0.953-0.763-1.739-1.716-1.739c-0.977,0-1.764,0.787-1.764,1.764c0,0.953,0.787,1.739,1.74,1.739
				C504.858,125.164,505.621,124.377,505.621,123.4z"/>
			<path fill-rule="evenodd" clip-rule="evenodd" fill="#00205B" d="M516.853,129.834c0-2.145-1.478-3.217-3.812-3.217
				c-1.549,0-2.883,0.5-4.075,1.644c-1.644,1.597-2.692,4.194-2.692,6.601c0,2.859,1.715,4.408,4.289,4.408
				c2.026,0,3.456-0.548,4.909-1.715l-0.81-1.621c-1.12,0.882-2.145,1.311-3.407,1.311c-1.311,0-2.192-0.715-2.192-2.216
				c0-0.381,0.095-1.024,0.143-1.263c0.214,0,0.786,0.095,1.453,0.095c2.479,0,4.123-0.548,5.123-1.525
				C516.471,131.669,516.853,130.811,516.853,129.834z M514.208,130.001c0,0.5-0.19,0.881-0.5,1.191
				c-0.572,0.572-1.573,0.786-3.026,0.786c-0.405,0-0.906-0.071-1.049-0.071c0.524-2.264,1.716-3.336,3.074-3.336
				C513.802,128.571,514.208,129.191,514.208,130.001z"/>
			<path fill-rule="evenodd" clip-rule="evenodd" fill="#00205B" d="M526.389,126.903h-2.883c0.239-1.144,0.644-2.55,0.977-3.574
				l-2.788,0.644c-0.31,0.905-0.548,1.834-0.787,2.931h-1.358l-0.381,1.859h1.358l-1.453,6.862
				c-0.119,0.596-0.167,1.215-0.167,1.644c0,1.215,0.905,2.025,2.526,2.025c0.834,0,1.668-0.167,2.502-0.5v-1.62
				c-0.381,0.167-0.834,0.238-1.215,0.238c-0.763,0-1.12-0.238-1.12-1c0-0.31,0.048-0.715,0.143-1.168l1.358-6.481h2.311
				L526.389,126.903z"/>
			<path fill-rule="evenodd" clip-rule="evenodd" fill="#00205B" d="M538.165,126.903h-2.859l-3.479,6.672
				c-0.62,1.215-1.239,2.526-1.477,3.146h-0.024c0-0.5-0.024-1.811-0.096-2.716l-0.667-7.315l-2.716,0.381l1.048,8.149
				c0.143,1.096,0.286,2.931,0.286,3.789l0.834-0.048c-0.643,1.287-1.072,1.93-1.859,2.478c-0.548,0.381-1.405,0.786-2.12,0.906
				l0.548,1.763c1.024-0.167,2.025-0.548,2.812-1.096c1.144-0.787,2.025-2.264,3.408-4.742L538.165,126.903z"/>
		</g>
		<g>
			<g>
				<path fill-rule="evenodd" clip-rule="evenodd" fill="#00205B" d="M350.783,104.917V85.282h-4.534v18.334
					c0,3.628-1.617,5.56-4.929,5.56c-3.352,0-4.85-1.38-4.85-5.56V85.282h-4.574v19.675c0,4.376,2.247,8.083,9.423,8.083
					C347.313,113.04,350.783,109.925,350.783,104.917z"/>
				<path fill-rule="evenodd" clip-rule="evenodd" fill="#00205B" d="M376.928,112.567V85.282h-4.298l0.079,12.459
					c0,2.484,0.276,6.388,0.395,7.768l-0.119,0.119c-0.355-1.262-1.538-4.495-2.799-7.019l-6.624-13.327h-5.126v27.285h4.456
					l-0.158-13.209c-0.04-2.405-0.079-5.283-0.276-7.57l0.118-0.119c0.512,1.617,2.011,5.047,3.47,8.083l6.112,12.814H376.928z"/>
				<rect x="384.776" y="85.282" fill-rule="evenodd" clip-rule="evenodd" fill="#00205B" width="4.652" height="27.285"/>
				<path fill-rule="evenodd" clip-rule="evenodd" fill="#00205B" d="M416.126,85.282h-4.731l-5.007,15.22
					c-1.341,4.061-1.656,5.717-1.656,5.717h-0.08c0,0-0.315-2.011-1.419-5.481l-4.929-15.456h-4.968l9.188,27.403h4.218
					L416.126,85.282z"/>
				<polygon fill-rule="evenodd" clip-rule="evenodd" fill="#00205B" points="435.431,112.623 435.431,108.759 424.51,108.759 
					424.51,100.243 432.829,100.243 432.829,96.498 424.432,96.498 424.432,89.046 434.446,89.046 435.037,85.34 419.897,85.34 
					419.897,112.623 				"/>
				<path fill-rule="evenodd" clip-rule="evenodd" fill="#00205B" d="M460.152,112.567l-4.022-6.545
					c-1.419-2.287-3.233-4.929-4.219-5.441c4.259,0,6.782-3.588,6.782-7.492c0-4.258-2.76-7.807-8.872-7.807h-8.32v27.285h4.456
					v-11.79c0.868,0.04,1.262,0.315,1.774,0.828c1.498,1.498,2.76,3.391,4.653,6.743l2.366,4.219H460.152z M453.962,93.128
					c0,1.419-0.473,2.563-1.222,3.312c-0.828,0.828-2.09,1.143-4.456,1.143h-2.326v-8.635h2.484
					C452.463,88.949,453.962,90.368,453.962,93.128z"/>
				<path fill-rule="evenodd" clip-rule="evenodd" fill="#00205B" d="M482.349,104.447c0-4.101-2.76-6.624-6.703-7.767l-3.233-0.946
					c-2.681-0.789-3.628-1.656-3.628-3.352c0-2.248,1.775-3.706,4.456-3.706c2.169,0,3.903,0.591,6.426,2.089l2.05-3.193
					c-2.404-1.695-5.52-2.603-8.634-2.603c-5.48,0-9.265,3.273-9.265,8.083c0,1.578,0.394,2.878,1.143,3.982
					c1.025,1.538,2.8,2.563,5.283,3.273l2.918,0.828c2.799,0.789,4.061,2.05,4.061,4.061c0,2.72-2.011,4.337-5.362,4.337
					c-2.76,0-4.928-0.828-7.373-2.247l-1.735,3.47c2.682,1.616,5.835,2.444,8.95,2.444
					C478.682,113.2,482.349,108.981,482.349,104.447z"/>
				<rect x="488.278" y="85.343" fill-rule="evenodd" clip-rule="evenodd" fill="#00205B" width="4.652" height="27.284"/>
				<polygon fill-rule="evenodd" clip-rule="evenodd" fill="#00205B" points="516.157,85.343 497.271,85.343 497.271,89.128 
					504.17,89.128 504.17,112.627 508.705,112.627 508.705,89.128 515.565,89.128 				"/>
				<path fill-rule="evenodd" clip-rule="evenodd" fill="#00205B" d="M538.163,85.343h-5.283l-4.18,8.635
					c-0.71,1.499-1.499,3.43-1.499,3.43s-0.631-1.774-1.458-3.509l-4.101-8.556h-5.481l8.596,16.245v11.04h4.692v-11L538.163,85.343
					z"/>
			</g>
			<g>
				<path fill-rule="evenodd" clip-rule="evenodd" fill="#00205B" d="M121.753,93.434c0-2.992-1.375-5.432-3.842-6.849
					c-1.537-0.906-3.034-1.299-7.119-1.299h-7.442v27.24h4.611v-10.392h4.732C117.749,102.133,121.753,98.787,121.753,93.434z
					 M116.616,93.709c0,3.228-1.577,4.802-5.015,4.802h-3.64v-9.565h3.64c1.82,0,3.033,0.472,3.883,1.338
					C116.252,91.072,116.616,92.213,116.616,93.709z"/>
				<path fill-rule="evenodd" clip-rule="evenodd" fill="#00205B" d="M144.361,112.525l-8.938-27.279h-5.379l-9.181,27.279h4.813
					l2.265-7.164H137l2.265,7.164H144.361z M135.948,101.582h-6.875c0.647-1.811,3.519-11.612,3.519-11.612h0.041
					C132.834,91.032,135.666,100.992,135.948,101.582z"/>
				<path fill-rule="evenodd" clip-rule="evenodd" fill="#00205B" d="M167.689,98.984c0-4.251-0.971-7.519-3.033-9.841
					c-2.629-2.913-5.744-3.858-11.001-3.858h-5.824v27.24h6.916c5.218,0,7.645-0.905,9.99-3.818
					C166.637,106.345,167.689,103.117,167.689,98.984z M162.512,99.457c0,6.18-1.981,9.369-6.916,9.369h-3.074V88.868h2.953
					c2.507,0,3.963,0.629,5.258,2.362C162.188,93.158,162.512,95.953,162.512,99.457z"/>
				<polygon fill-rule="evenodd" clip-rule="evenodd" fill="#00205B" points="189.397,112.525 189.397,108.668 178.194,108.668 
					178.194,100.165 186.728,100.165 186.728,96.425 178.113,96.425 178.113,88.985 188.386,88.985 188.993,85.285 173.461,85.285 
					173.461,112.525 				"/>
				<path fill-rule="evenodd" clip-rule="evenodd" fill="#00205B" d="M214.427,112.525l-4.125-6.534
					c-1.456-2.283-3.316-4.921-4.328-5.433c4.207,0,6.957-3.267,6.957-7.479c0-4.251-2.831-7.794-9.1-7.794h-8.534v27.24h4.57
					v-11.77c0.89,0.04,1.294,0.315,1.82,0.827c1.537,1.496,2.831,3.386,4.772,6.731l2.427,4.212H214.427z M208.077,93.119
					c0,1.417-0.485,2.559-1.254,3.307c-0.85,0.827-2.144,1.142-4.57,1.142h-2.387v-8.621h2.548
					C206.54,88.946,208.077,90.363,208.077,93.119z"/>
				<path fill-rule="evenodd" clip-rule="evenodd" fill="#00205B" d="M238.482,104.81c0-2.716-1.294-5.787-5.945-6.889
					c3.114-0.866,4.813-3.031,4.813-5.944c0-2.283-1.052-4.054-3.155-5.354c-1.739-1.063-3.195-1.338-7.361-1.338h-7.401v27.24
					h8.129C234.64,112.525,238.482,110.203,238.482,104.81z M232.456,92.686c0,0.709-0.243,1.851-1.092,2.716
					c-0.89,0.905-1.739,1.023-3.438,1.023h-3.964v-7.44h3.6c1.335,0,2.063,0.118,2.629,0.315
					C231.525,89.773,232.456,91.111,232.456,92.686z M233.345,104.377c0,2.441-1.537,4.409-5.096,4.409h-4.207v-8.621h4.085
					c1.334,0,1.901,0.04,2.588,0.236C232.253,100.834,233.345,102.448,233.345,104.377z"/>
				<path fill-rule="evenodd" clip-rule="evenodd" fill="#00205B" d="M265.659,98.945c0-7.952-3.802-14.053-11.689-14.053
					c-6.997,0-11.689,5.039-11.689,14.014c0,8.07,3.923,14.053,11.891,14.053C261.453,112.958,265.659,107.447,265.659,98.945z
					 M260.361,99.22c0,7.322-2.144,10.313-6.31,10.313c-4.773,0-6.593-3.897-6.593-10.904c0-6.535,1.779-10.235,6.471-10.235
					C258.945,88.395,260.361,92.568,260.361,99.22z"/>
				<path fill-rule="evenodd" clip-rule="evenodd" fill="#00205B" d="M290.372,112.525l-4.125-6.534
					c-1.456-2.283-3.317-4.921-4.328-5.433c4.206,0,6.957-3.267,6.957-7.479c0-4.251-2.832-7.794-9.101-7.794h-8.534v27.24h4.57
					v-11.77c0.89,0.04,1.294,0.315,1.82,0.827c1.537,1.496,2.832,3.386,4.773,6.731l2.427,4.212H290.372z M284.021,93.119
					c0,1.417-0.485,2.559-1.254,3.307c-0.849,0.827-2.144,1.142-4.57,1.142h-2.386v-8.621h2.548
					C282.484,88.946,284.021,90.363,284.021,93.119z"/>
				<path fill-rule="evenodd" clip-rule="evenodd" fill="#00205B" d="M314.507,112.525v-27.24h-4.409l0.081,12.439
					c0,2.48,0.283,6.377,0.404,7.755l-0.121,0.118c-0.364-1.26-1.578-4.488-2.872-7.007l-6.794-13.305h-5.258v27.24h4.57
					l-0.162-13.187c-0.041-2.401-0.081-5.275-0.283-7.558l0.122-0.118c0.526,1.614,2.062,5.039,3.559,8.07l6.269,12.793H314.507z"/>
			</g>
		</g>
		<g>
			<polygon fill-rule="evenodd" clip-rule="evenodd" fill="#00205B" points="63.251,0 46.323,13.267 46.323,74.836 83.245,109.098 
				63.251,62.924 			"/>
			<polygon fill-rule="evenodd" clip-rule="evenodd" fill="#00205B" points="85.424,46.341 69.783,33.774 69.783,58.253 
				85.424,108.361 			"/>
			<polygon fill-rule="evenodd" clip-rule="evenodd" fill="#00205B" points="39.791,33.121 23.46,46.341 23.46,93.335 
				81.758,110.608 39.791,80.115 			"/>
			<polygon fill-rule="evenodd" clip-rule="evenodd" fill="#00205B" points="81.333,112.535 0,112.535 0,79.461 16.974,66.194 
				16.974,99.314 			"/>
		</g>
	</g>
</g>
</svg>
