<?xml version="1.0" encoding="utf-8"?>
<!-- Generator: Adobe Illustrator 27.7.0, SVG Export Plug-In . SVG Version: 6.00 Build 0)  -->
<svg version="1.1" id="Ebene_1" xmlns="http://www.w3.org/2000/svg" xmlns:xlink="http://www.w3.org/1999/xlink" x="0px" y="0px"
	 viewBox="0 0 454.5 184.9" style="enable-background:new 0 0 454.5 184.9;" xml:space="preserve">
<style type="text/css">
	.st0{fill:#0025AA;}
	.st1{fill:#50D1D1;}
	.st2{fill:#23A9C9;}
	.st3{fill:#0A75C4;}
	.st4{fill:none;}
</style>
<g>
	<path class="st0" d="M153.6,153.6v-32.7h11.8c2.6,0,4.7,0.5,6.2,1.4c1.5,1,2.6,2.2,3.3,3.7c0.6,1.5,1,3,1,4.7
		c0,1.1-0.2,2.3-0.6,3.4c-0.4,1.1-1,2.2-1.8,3.1c-0.8,1-1.9,1.7-3.2,2.3c-1.3,0.6-2.9,0.9-4.9,0.9h-8.5v13.3H153.6z M156.9,137.3
		h8.7c1.7,0,3.1-0.3,4.2-1c1-0.7,1.8-1.5,2.2-2.5c0.4-1,0.7-2,0.7-3.1c0-1-0.2-2-0.6-3c-0.4-1-1.1-1.9-2.1-2.6c-1-0.7-2.5-1-4.3-1
		h-8.7V137.3z"/>
	<path class="st0" d="M176.7,153.6l11.5-32.7h2.9l11.5,32.7h-3.4l-2.9-8.4h-13.2l-2.9,8.4H176.7z M184,142.3h11.3l-4.4-12.7
		c-0.1-0.3-0.2-0.7-0.4-1.2c-0.2-0.5-0.3-1-0.5-1.5c-0.2-0.5-0.3-0.9-0.4-1.3c-0.1,0.3-0.2,0.7-0.4,1.3c-0.2,0.5-0.3,1-0.5,1.5
		c-0.2,0.5-0.3,0.9-0.4,1.2L184,142.3z"/>
	<path class="st0" d="M208.8,153.6v-32.7h8.4c2.8,0,5.1,0.5,7,1.4c1.9,0.9,3.5,2.2,4.6,3.8c1.2,1.6,2,3.3,2.5,5.3
		c0.5,1.9,0.8,3.9,0.8,5.9c0,1.9-0.2,3.8-0.7,5.7c-0.5,1.9-1.3,3.7-2.4,5.3c-1.1,1.6-2.7,2.9-4.6,3.9c-2,1-4.4,1.5-7.3,1.5H208.8z
		 M212.1,150.5h5.3c2.2,0,4-0.4,5.5-1.2c1.5-0.8,2.6-1.8,3.5-3.1c0.9-1.3,1.5-2.7,1.9-4.3c0.4-1.6,0.5-3.1,0.5-4.7
		c0-1.7-0.2-3.3-0.6-4.9c-0.4-1.6-1-3-1.9-4.3c-0.9-1.3-2-2.3-3.4-3c-1.4-0.7-3.1-1.1-5.1-1.1h-5.7V150.5z"/>
	<path class="st0" d="M238.7,153.6v-32.7h18.6v3.1h-15.4v11.2h10.2v3.1h-10.2v12.3h16.4v3.1H238.7z"/>
	<path class="st0" d="M265.5,153.6v-32.7h12.3c2.5,0,4.5,0.4,6,1.3c1.5,0.9,2.5,2,3.1,3.4c0.6,1.4,0.9,2.8,0.9,4.3
		c0,1.4-0.3,2.7-0.8,3.9c-0.5,1.3-1.4,2.3-2.6,3.3c-1.2,0.9-2.7,1.5-4.6,1.8l7.2,14.7h-3.7l-7-14.5h-7.7v14.5H265.5z M268.8,136.1
		h9.1c1.7,0,3-0.3,3.9-0.9c1-0.6,1.7-1.4,2.1-2.3c0.4-0.9,0.6-1.9,0.6-2.9c0-0.9-0.2-1.8-0.6-2.7c-0.4-0.9-1.1-1.7-2-2.4
		c-1-0.6-2.3-1-4.1-1h-9.1V136.1z"/>
	<path class="st0" d="M296.2,153.6v-32.7h11.1c2.5,0,4.5,0.4,5.9,1.2c1.4,0.8,2.5,1.9,3.1,3.2c0.6,1.3,0.9,2.7,0.9,4.1
		c0,1.6-0.5,3-1.4,4.3c-0.9,1.3-2.2,2.2-3.9,2.8c1.3,0.3,2.5,0.8,3.5,1.6c1,0.7,1.7,1.7,2.2,2.8c0.5,1.1,0.8,2.3,0.8,3.7
		c0,1.1-0.2,2.2-0.5,3.3c-0.4,1.1-0.9,2.1-1.7,3c-0.8,0.9-1.8,1.6-3.2,2.2c-1.3,0.5-3,0.8-4.9,0.8H296.2z M299.5,135.1h7
		c2.5,0,4.3-0.5,5.6-1.6c1.2-1.1,1.9-2.5,1.9-4.2c0-0.9-0.2-1.8-0.5-2.6c-0.3-0.8-1-1.5-1.9-2.1c-0.9-0.5-2.3-0.8-4-0.8h-8V135.1z
		 M299.5,150.6h9c1.7,0,3.1-0.3,4-0.9c1-0.6,1.6-1.3,2-2.2c0.4-0.9,0.6-1.8,0.6-2.8c0-1.1-0.2-2.2-0.7-3.2c-0.5-1-1.3-1.8-2.4-2.4
		c-1.2-0.6-2.8-0.9-5-0.9h-7.5V150.6z"/>
	<path class="st0" d="M338.8,154.2c-2.5,0-4.6-0.5-6.3-1.5c-1.7-1-3.1-2.3-4.2-3.9c-1.1-1.6-1.8-3.5-2.3-5.5c-0.5-2-0.7-4-0.7-6
		c0-2,0.2-4,0.7-6c0.5-2,1.3-3.8,2.3-5.5c1.1-1.6,2.4-3,4.2-3.9c1.7-1,3.8-1.5,6.3-1.5c2.5,0,4.6,0.5,6.4,1.5c1.7,1,3.1,2.3,4.2,3.9
		c1,1.6,1.8,3.5,2.3,5.5c0.5,2,0.7,4,0.7,6c0,2-0.2,4-0.7,6c-0.5,2-1.2,3.8-2.3,5.5c-1,1.6-2.4,3-4.2,3.9
		C343.5,153.7,341.4,154.2,338.8,154.2z M338.8,151.1c1.9,0,3.5-0.4,4.8-1.3c1.3-0.8,2.3-1.9,3.1-3.3c0.8-1.4,1.4-2.9,1.7-4.5
		c0.4-1.6,0.5-3.2,0.5-4.8c0-1.7-0.2-3.4-0.5-5c-0.4-1.6-0.9-3.1-1.7-4.5c-0.8-1.3-1.8-2.4-3.1-3.2c-1.3-0.8-2.9-1.2-4.8-1.2
		c-1.9,0-3.4,0.4-4.7,1.3c-1.3,0.8-2.3,1.9-3.1,3.3c-0.8,1.4-1.4,2.9-1.7,4.5c-0.4,1.6-0.5,3.2-0.5,4.8c0,1.7,0.2,3.4,0.5,5
		c0.4,1.6,0.9,3.1,1.7,4.4c0.8,1.3,1.8,2.4,3.1,3.2C335.4,150.7,337,151.1,338.8,151.1z"/>
	<path class="st0" d="M360.6,153.6v-32.7H373c2.5,0,4.5,0.4,6,1.3c1.5,0.9,2.5,2,3.1,3.4c0.6,1.4,0.9,2.8,0.9,4.3
		c0,1.4-0.3,2.7-0.8,3.9s-1.4,2.3-2.6,3.3c-1.2,0.9-2.7,1.5-4.6,1.8l7.2,14.7h-3.7l-7-14.5h-7.7v14.5H360.6z M363.9,136.1h9.1
		c1.7,0,3-0.3,3.9-0.9c1-0.6,1.7-1.4,2.1-2.3c0.4-0.9,0.6-1.9,0.6-2.9c0-0.9-0.2-1.8-0.6-2.7c-0.4-0.9-1.1-1.7-2-2.4
		c-1-0.6-2.3-1-4.1-1h-9.1V136.1z"/>
	<path class="st0" d="M391.6,153.6v-32.7h3.3l15.2,24.6c0.2,0.4,0.5,0.8,0.7,1.2c0.2,0.4,0.5,0.8,0.7,1.3c0-0.4,0-0.8,0-1.2
		c0-0.4,0-0.8,0-1.2v-24.6h3.3v32.7h-3.2L396.1,129c-0.2-0.4-0.4-0.7-0.7-1.1c-0.2-0.4-0.5-0.8-0.7-1.2c0,0.4,0.1,0.7,0.1,1.1
		c0,0.4,0,0.8,0,1.2v24.6H391.6z"/>
	<g>
		<path class="st0" d="M394.6,77.5c-0.6,0-1.1-0.2-1.5-0.6c-0.4-0.4-0.6-0.9-0.6-1.5c0-0.6,0.2-1.1,0.6-1.6c0.4-0.4,0.9-0.6,1.5-0.6
			c0.6,0,1.1,0.2,1.6,0.6c0.4,0.4,0.6,0.9,0.6,1.6c0,0.6-0.2,1.1-0.6,1.5C395.7,77.3,395.2,77.5,394.6,77.5z"/>
		<path class="st0" d="M384.4,77.5c-0.6,0-1.1-0.2-1.5-0.6c-0.4-0.4-0.6-0.9-0.6-1.5c0-0.6,0.2-1.1,0.6-1.6c0.4-0.4,0.9-0.6,1.5-0.6
			c0.6,0,1.1,0.2,1.6,0.6c0.4,0.4,0.6,0.9,0.6,1.6c0,0.6-0.2,1.1-0.6,1.5C385.5,77.3,385,77.5,384.4,77.5z"/>
	</g>
	<path class="st0" d="M164.9,112.6c-2.6,0-4.7-0.5-6.4-1.5c-1.7-1-2.9-2.4-3.7-4.3c-0.8-1.9-1.2-4.2-1.2-6.9V79.3h3.3v20.6
		c0,3,0.6,5.4,1.9,7.1c1.2,1.7,3.3,2.5,6.1,2.5c1.7,0,3.1-0.3,4.3-1c1.2-0.6,2.1-1.7,2.8-3.1c0.6-1.4,1-3.3,1-5.6V79.3h3.3V100
		c0,2.2-0.2,4-0.7,5.6c-0.5,1.6-1.2,2.9-2.2,3.9c-1,1.1-2.1,1.8-3.6,2.3C168.4,112.4,166.8,112.6,164.9,112.6z"/>
	<path class="st0" d="M185.5,112.1V79.3h3.3l15.2,24.6c0.2,0.4,0.5,0.8,0.7,1.2s0.5,0.8,0.7,1.3c0-0.4,0-0.8,0-1.2
		c0-0.4,0-0.8,0-1.2V79.3h3.3v32.7h-3.2l-15.4-24.6c-0.2-0.4-0.4-0.7-0.7-1.1c-0.2-0.4-0.5-0.8-0.7-1.2c0,0.4,0.1,0.7,0.1,1.1
		c0,0.4,0,0.8,0,1.2v24.6H185.5z"/>
	<path class="st0" d="M218.4,112.1V79.3h3.3v32.7H218.4z"/>
	<path class="st0" d="M240.5,112.1l-11.2-32.7h3.5l8.3,24.9c0.1,0.4,0.3,0.9,0.4,1.3c0.1,0.5,0.3,1,0.4,1.5c0.1-0.5,0.3-1,0.4-1.5
		c0.1-0.5,0.3-0.9,0.4-1.4l8.2-24.9h3.5l-11.2,32.7H240.5z"/>
	<path class="st0" d="M261,112.1V79.3h18.6v3.1h-15.4v11.2h10.2v3.1h-10.2v12.3h16.4v3.1H261z"/>
	<path class="st0" d="M287.6,112.1V79.3h12.3c2.5,0,4.5,0.4,6,1.3c1.5,0.9,2.5,2,3.1,3.4c0.6,1.4,0.9,2.8,0.9,4.3
		c0,1.4-0.3,2.7-0.8,3.9c-0.5,1.3-1.4,2.3-2.6,3.3c-1.2,0.9-2.7,1.5-4.6,1.8l7.2,14.7h-3.7l-7-14.5h-7.7v14.5H287.6z M290.8,94.5
		h9.1c1.7,0,3-0.3,3.9-0.9c1-0.6,1.7-1.4,2.1-2.3c0.4-0.9,0.6-1.9,0.6-2.9c0-0.9-0.2-1.8-0.6-2.7c-0.4-0.9-1.1-1.7-2-2.4
		c-1-0.6-2.3-1-4.1-1h-9.1V94.5z"/>
	<path class="st0" d="M326.6,112.6c-1.8,0-3.5-0.3-5-0.9c-1.5-0.6-2.7-1.5-3.8-2.6c-1-1.1-1.8-2.3-2.3-3.6l3.2-1.1
		c0.7,1.5,1.7,2.8,3.1,3.7c1.4,1,3,1.4,4.8,1.4c2.1,0,3.7-0.5,5-1.5c1.3-1,1.9-2.5,1.9-4.5c0-1.3-0.4-2.5-1.1-3.4
		c-0.7-0.9-1.7-1.7-2.8-2.4c-1.2-0.6-2.4-1.2-3.7-1.7c-1.1-0.4-2.2-0.9-3.4-1.4c-1.1-0.5-2.1-1.1-3-1.8c-0.9-0.7-1.6-1.6-2.2-2.6
		c-0.5-1-0.8-2.2-0.8-3.6c0-1.4,0.4-2.7,1.1-3.9c0.8-1.2,1.8-2.1,3.3-2.8c1.4-0.7,3.2-1.1,5.2-1.1c1.6,0,3,0.2,4.3,0.7
		c1.3,0.5,2.3,1.2,3.2,2c0.8,0.9,1.4,1.8,1.8,2.9l-3.1,1c-0.4-1.1-1.2-2-2.3-2.6c-1.1-0.7-2.5-1-4.1-1c-1.9,0-3.3,0.4-4.4,1.3
		c-1.1,0.8-1.6,2-1.6,3.5c0,1.1,0.4,2.1,1.1,2.9c0.7,0.8,1.6,1.4,2.7,2c1.1,0.5,2.3,1.1,3.6,1.6c1.1,0.4,2.2,0.9,3.4,1.5
		c1.1,0.6,2.2,1.2,3.1,2c0.9,0.8,1.7,1.8,2.3,2.9c0.6,1.1,0.9,2.5,0.9,4.1c0,2-0.4,3.6-1.3,5c-0.9,1.4-2.1,2.4-3.7,3.1
		C330.4,112.3,328.6,112.6,326.6,112.6z"/>
	<path class="st0" d="M345,112.1V79.3h3.3v32.7H345z"/>
	<path class="st0" d="M364.5,112.1V82.5h-9.1v-3.2h21.4v3.2h-9.1v29.6H364.5z"/>
	<path class="st0" d="M376.6,112.1l11.5-32.7h2.9l11.5,32.7h-3.4l-2.9-8.4H383l-2.9,8.4H376.6z M383.9,100.8h11.3L390.8,88
		c-0.1-0.3-0.2-0.7-0.4-1.2c-0.2-0.5-0.3-1-0.5-1.5s-0.3-0.9-0.4-1.3c-0.1,0.3-0.2,0.7-0.4,1.3s-0.3,1-0.5,1.5
		c-0.2,0.5-0.3,0.9-0.4,1.2L383.9,100.8z"/>
	<path class="st0" d="M411.4,112.1V82.5h-9.1v-3.2h21.4v3.2h-9.1v29.6H411.4z"/>
	<path class="st1" d="M110.5,67.3l15.3,12v60.8l-15.3-48.8V67.3L110.5,67.3z"/>
	<path class="st2" d="M100.2,99.3l18.9,42.6l-35.2-29.9V43.5l16.3-12.8V99.3z"/>
	<path class="st3" d="M73.6,120.1l40.5,26.8l-56.8-14V80.1l16.3-12.8V120.1L73.6,120.1z"/>
	<path class="st0" d="M47.1,140.1v0.8l65.3,12.8H30.7v-36.9l16.3-12.8V140.1z"/>
</g>
<rect x="0" y="0" class="st4" width="454.5" height="184.9"/>
<g>
</g>
<g>
</g>
<g>
</g>
<g>
</g>
<g>
</g>
<g>
</g>
</svg>
